<?xml version="1.0" encoding="utf-8"?>
<!-- Generator: Adobe Illustrator 22.0.1, SVG Export Plug-In . SVG Version: 6.00 Build 0)  -->
<svg version="1.1" id="Laag_1" xmlns="http://www.w3.org/2000/svg" xmlns:xlink="http://www.w3.org/1999/xlink" x="0px" y="0px"
	 viewBox="0 0 1874 1939" style="enable-background:new 0 0 1874 1939;" xml:space="preserve">
<style type="text/css">
	.st0{fill:#FFFFFF;}
	.st1{font-family:'MyriadPro-Regular';}
	.st2{font-size:239.8793px;}
</style>
<image style="overflow:visible;enable-background:new    ;" width="1871" height="1936" xlink:href="17454307.png"  transform="matrix(0.9996 0 0 0.9996 5.025833e-02 3.7427)">
</image>
<rect x="152.7" y="830.8" width="1581.2" height="186"/>
<text transform="matrix(1 0 0 1 266.7509 994.7197)" class="st0 st1 st2">Y</text>
<text transform="matrix(1 0 0 1 378.2939 994.7197)" class="st0 st1 st2">o</text>
<text transform="matrix(1 0 0 1 509.9868 994.7197)" class="st0 st1 st2">u</text>
<text transform="matrix(1 0 0 1 642.1591 994.7197)" class="st0 st1 st2">r</text>
<text transform="matrix(1 0 0 1 720.5986 994.7197)" class="st0 st1 st2">L</text>
<text transform="matrix(1 0 0 1 833.8178 994.7197)" class="st0 st1 st2">i</text>
<text transform="matrix(1 0 0 1 889.9482 994.7197)" class="st0 st1 st2">f</text>
<text transform="matrix(1 0 0 1 956.8764 994.7197)" class="st0 st1 st2">e</text>
<text transform="matrix(1 0 0 1 1077.0542 994.7197)" class="st0 st1 st2">C</text>
<text transform="matrix(1 0 0 1 1215.4634 994.7197)" class="st0 st1 st2">i</text>
<text transform="matrix(1 0 0 1 1271.5933 994.7197)" class="st0 st1 st2">r</text>
<text transform="matrix(1 0 0 1 1347.6353 994.7197)" class="st0 st1 st2">c</text>
<text transform="matrix(1 0 0 1 1455.1011 994.7197)" class="st0 st1 st2">l</text>
<text transform="matrix(1 0 0 1 1511.7104 994.7197)" class="st0 st1 st2">e</text>
</svg>
