<?xml version="1.0" encoding="utf-8"?>
<!-- Generator: Adobe Illustrator 22.0.1, SVG Export Plug-In . SVG Version: 6.00 Build 0)  -->
<svg version="1.1" baseProfile="tiny" id="Laag_1" xmlns="http://www.w3.org/2000/svg" xmlns:xlink="http://www.w3.org/1999/xlink"
	 x="0px" y="0px" viewBox="0 0 256 256" xml:space="preserve">
<rect stroke="#000000" stroke-miterlimit="10" width="256" height="256"/>
<g>
	<path fill="#C8C7C7" d="M255.2,129.3c0.3,69.4-57.1,126.2-126.7,126C59.7,255,2.2,198.2,2.9,127.6C3.6,59.6,59.9,2,131,2.9
		C198.9,3.8,255.6,59.7,255.2,129.3z M129,16C67.1,16,16.4,66.6,15.9,128.1c-0.5,63,51.1,114.2,113,114.2
		c62.1,0.1,113.7-51.2,113.3-113.9C241.9,67,191.3,15.7,129,16z"/>
	<path fill="#C8C7C7" d="M71.6,68.4c-0.9,1.6,0.4,2.8,0.8,4.2c1.1,4-0.7,6.8-3.7,9c-2.9,2.1-6.1,1.9-8.8-0.3
		c-4.3-3.6-7.2-8.4-9.5-13.3c-1.9-4,1.3-7.1,4.5-9c3.3-2,6.7-1.2,9.7,1.3c1,0.8,1.2,3.2,3.3,2.2c1.6-0.8,1-2.7,1.1-4.1
		c0.6-6.5,6.1-10.2,12.4-8.3c1.3,0.4,2.8,1.9,4.1,0.5c1.3-1.4-0.2-2.8-0.6-4.1c-1.2-4.3,0.7-7.2,4.1-9.2c3.6-2.1,7.3-1.6,9.9,1.6
		c2.7,3.3,5.1,7,7.2,10.8c2.3,4.1,0.1,7.4-3.1,10c-3.1,2.6-6.2,1.8-9.2-0.2c-1.4-0.9-2.2-2.8-4.2-3.2c-0.7,2.3,0.7,3.4,1.6,4.7
		c7,10.3,14.2,20.6,21.2,30.9c2.1,3.1,4.6,4.7,8.6,4.4c6.5-0.4,13-0.1,19.5-0.1c1.9,0,3.4-0.3,4.7-2.1c7.8-11.6,15.8-23,23.7-34.6
		c0.5-0.7,1.3-1.6,0.6-3c-2.1-0.2-2.8,1.9-4,2.9c-3,2.4-6.2,2.7-9.1,0.4c-3.2-2.4-5.7-5.7-3.4-9.9c2.1-3.9,4.6-7.8,7.4-11.2
		c2.6-3.2,6.5-3.6,10-1.4c3.5,2.2,5.5,5.3,3.8,9.7c-0.4,1.2-1.8,2.4-0.5,3.6c1.1,1.1,2.5,0.3,3.7-0.2c6.6-2.3,12.2,1.2,12.8,8
		c0.1,1.4-0.5,3.3,1.1,4.1c2.3,1.1,2.5-1.5,3.6-2.4c2.9-2.6,7.5-2.7,10.5-0.2c3.4,2.9,5.3,6.1,2.3,10.4c-2.1,3-4,6.2-6.2,9
		c-2.7,3.4-6.3,5.3-10.5,2.7c-4-2.4-5.9-5.8-3.8-10.6c0.4-0.8,1.2-1.7,0.4-2.8c-2-0.5-2.5,1.2-3.3,2.3c-10.3,14.9-20.6,29.9-31,44.7
		c-1.7,2.5-2.2,5-2.2,7.9c0.1,33.7,0,67.4,0,101c0,6.6-0.1,6.7-6.7,6.7c-10.2,0-20.3-0.2-30.5,0.1c-4.6,0.1-6-1.5-6-6.1
		c0.2-33.8,0-67.7,0.1-101.5c0-3.3-0.8-6.1-2.7-8.8c-10.3-14.8-20.7-29.7-31-44.6C73.6,69.4,73.2,68.1,71.6,68.4z M114.1,169.7
		c0,16,0,32,0,48c0,8.1-1.3,7.2,7.5,7.4c3.6,0.1,4.5-1.2,4.5-4.6c-0.2-11.5-0.1-23-0.1-34.5c0-5.7,0-11.3,0-17c0-2,0.9-3.4,2.8-3.5
		c2-0.1,3,1.3,3.2,3.1c0.2,1.3,0.1,2.7,0.1,4c0,15.8,0,31.7,0,47.5c0,1.4-0.7,3.6,0.7,4.2c3.4,1.5,7.3,1,10.8,0.4
		c2.6-0.5,1.5-3.3,1.5-5.1c0.1-33,0-66.1,0.1-99.1c0-2.1-0.3-4.2,1.1-6.2c8.1-11.4,16.1-22.8,24.2-34.3c4.3-6.1,8.5-12.4,12.7-18.5
		c1.2-1.7,1.6-3.5-0.1-4.9c-1.7-1.4-3.5-0.8-4.9,0.8c-1,1.1-1.8,2.4-2.7,3.6c-8.7,12.6-17.5,25.1-26.2,37.8
		c-1.6,2.4-3.4,3.3-6.2,3.2c-9-0.1-18-0.1-27,0c-2.8,0-4.6-0.9-6.2-3.3c-9-13.2-18.1-26.3-27.2-39.4c-1.4-2-3.1-4.6-6-2.9
		c-3.2,1.9-1.1,4.3,0.3,6.4c11.6,16.8,23.3,33.7,35.1,50.4c1.5,2.1,2.1,4,2.1,6.4C114,136.4,114.1,153.1,114.1,169.7z M100.5,51.9
		c-1.6-2.4-3.4-5.3-5.4-8.1c-0.6-0.9-1.5-2-2.8-1.2c-1.5,0.8-1.5,2.1-0.7,3.4c1.6,2.7,3.3,5.3,5.1,7.8c0.7,1,1.8,1.5,3,0.7
		C100.4,54.1,100.9,53.4,100.5,51.9z M168.1,44.5c0-0.9-0.5-1.6-1.3-1.9c-0.9-0.4-1.6,0.1-2.1,0.8c-1.9,2.7-3.8,5.4-5.7,8.2
		c-0.6,0.9-0.8,1.8,0.1,2.7c0.7,0.6,1.4,0.8,2.3,0.5C162.6,54.4,168.2,45.7,168.1,44.5z M66,74.5c0.1-1.7-5.5-10-6.8-10.2
		c-1.7-0.2-3.5,0.5-2.5,2.3c1.6,3.2,3.4,6.4,6.3,8.8C64.4,76.6,65.7,76.4,66,74.5z M195.1,76.1c0.3-0.1,1-0.1,1.2-0.4
		c2.2-3.1,4.4-6.1,6.4-9.3c0.5-0.7-0.3-1.5-1-2c-0.8-0.4-1.8-0.5-2.3,0.2c-2.1,2.9-4.1,5.9-6,9C192.7,74.8,193.4,75.9,195.1,76.1z"
		/>
	<path fill="#C8C7C7" d="M128.4,90.1c-10.8-0.1-19.4-8.9-19.3-19.8c0.1-11,9-19.3,20.4-19.3c12.2-0.1,19.2,10.5,19.4,19.4
		C149.1,81.8,140.1,90.2,128.4,90.1z M142.2,70.8c0.1-7.9-5.6-13.8-13.2-13.7c-7.5,0.1-13.4,6.1-13.5,13.8
		c-0.1,6.9,6.3,13.2,13.6,13.2C136.4,84.1,142.1,78.4,142.2,70.8z"/>
</g>
</svg>
