<?xml version="1.0" encoding="utf-8"?>
<!-- Generator: Adobe Illustrator 22.0.1, SVG Export Plug-In . SVG Version: 6.00 Build 0)  -->
<svg version="1.1" id="Laag_1" xmlns="http://www.w3.org/2000/svg" xmlns:xlink="http://www.w3.org/1999/xlink" x="0px" y="0px"
	 viewBox="0 0 256 256" style="enable-background:new 0 0 256 256;" xml:space="preserve">
<style type="text/css">
	.st0{fill:#B7B7B7;}
</style>
<g>
	<path class="st0" d="M201.9,75c-0.4-15.3-1.7-29.3-7.6-42.6C184,9.2,164,4.1,141.8,19.3C126,30,115.9,44.7,107.7,60.5
		c-3.9,7.4-6.9,15.1-10.3,22.7c-1.1,2.4-2.4,5-6,3.9c-3.1-1-3.7-3.3-2.6-6.2c10-25.6,22.6-49.7,46.6-67.5c13.6-10,28.7-14.2,46-8.5
		c4,1.3,8.2,2.4,12.5,3c25.4,3.8,37.5,19.1,43.1,39.9c7.9,29,4.3,57.7-4.3,86.1c-5.7,18.7-13.7,36.6-25.6,52.9
		c-1.8,2.4-1.8,4.3-0.4,6.9c6.5,11.8,12.8,23.7,19.3,35.5c1.6,2.9,3.4,6.2,8,4.2c4.5-2,2.8-5.2,1.2-8.2
		c-6.6-12.3-13.2-24.6-19.8-36.8c-1.5-2.8-3.3-5.7,0.7-7.7c4.3-2.1,5.8,1.3,7.2,3.9c7,12.9,14,25.7,20.8,38.7
		c3.8,7.2,1.3,14.2-5.8,17.5c-7.3,3.5-14.6,1.4-19-6.2c-6.2-10.7-12-21.5-17.7-32.4c-2-3.8-3.3-4.4-6.6-0.8
		c-3.4,3.7-7.4,6.8-11.3,10.1c-3.4,2.9-9.4,3.4-2.3,10.3c4.7,4.5,1.9,14.8,0.6,22.5c-1,6-8.5,11.1-14.5,10.8
		c-5.3-0.3-11.8-6.2-12.5-12c-0.5-5-0.5-10-0.3-15c0.1-3.4-1-4.8-5-5.1c-4.3-0.3-8.5-1.4-12.6-2.3c-7.6-1.7-12.4,2.4-11.2,9.4
		c0.3,2,1.5,3.4,3.6,3.9c2.3,0.6,4.1-0.3,5.2-2c0.9-1.3,1.3-2.9,2-4.4c1.1-2.3,2.7-4,5.8-3c2.9,1,3.2,2.9,2.6,5.5
		c-1.9,8.4-9.2,13.7-17,12.1c-8.7-1.8-13.5-8.9-10.2-17.4c2.7-6.8,0.8-9.2-6.8-11.1c-11.2-2.8-18-10.6-23-19.6
		c-11.1-19.8-12-41.1-10.5-62.6c0.5-7,1.9-14,3-20.9c0.4-2.8,1.4-6,5.3-5.5c4.3,0.5,4.2,3.8,3.5,7c-3.7,18.5-4.7,37-1.4,55.6
		c1.7,9.2,4.6,18.2,10.2,26.2c9.5,13.6,23.4,17,39.3,9.7c12.6-5.8,21.4-15.2,29.1-25.5C190.2,146.6,200.2,111.3,201.9,75z
		 M140.2,212.4c8.7,3.1,16.4,3.4,24.3,0.3c11-4.3,19.6-11.3,26.7-19.8c30.5-36.4,42.5-77.9,40.7-122.8c-0.5-13-3.4-25.7-10.8-37.2
		c-5.3-8.2-12.7-13.8-24.4-15c19.7,34.7,16.5,70,6.4,105.3C193,158.4,176.3,190.6,140.2,212.4z M173.9,219.1
		c-10.1,2-10.1,2-10.1,10.2c0,3.4,0,6.8,0,10.2c0,3,1,5.9,4.6,6c4.3,0.1,4.8-3.1,4.8-6.3C173.2,232.5,172.5,225.8,173.9,219.1z"/>
	<path class="st0" d="M190,86.7c-1.1,25.7-8.8,50.9-26,73.6c-4.9,6.4-10.7,12.1-18.2,16.3c-15.6,8.7-30.4,5.6-39.5-8.6
		c-8.2-12.9-9.1-27.2-8.5-41.6c0.1-3.2,0.4-6.3,0.9-9.5c0.5-2.9,0.8-6.6,5.3-6.2c4.4,0.4,4.1,3.9,3.8,7c-1.3,11.1-2,22.2,1,33.2
		c2.5,9.2,5.1,19,16.9,21.6c11.7,2.6,20.1-4.3,26.4-11.7c23.8-27.9,32.7-59.5,26.5-94.1c-1.6-9.2-5.4-18.8-17.2-21.4
		c-11.1-2.4-18.5,4.5-25.3,11.1c-8.3,8.1-13.9,17.8-18.6,27.9c-0.9,1.9-1.6,3.8-2.6,5.6c-1.2,2.2-3.1,3.8-6.1,2.5
		c-2.2-1-3.2-2.9-2.2-5.2c7.6-17,15.9-33.6,33.1-44.7c16.5-10.7,33.2-7,42.5,9.1C188.4,62.1,189.7,73.6,190,86.7z"/>
	<path class="st0" d="M21.2,62.6c0,1.8,0.1,3.6,0,5.4c-0.2,3,2,4.1,4.7,4.4c4.2,0.3,2.3-2.7,2.5-4.4c0.3-2.2,0-4.5,0.1-6.8
		c0.1-2.5,1.3-4.6,4.4-4.5c3,0.1,4.4,2.1,4.5,4.7c0.2,3.6,0.3,7.3,0.1,10.9c-0.2,3.2,1.4,5,4.6,5c3.7,0,1.9-3,2.1-4.7
		c0.5-4.2-2.2-10.9,5-10.7c6.4,0.2,4.4,6.9,4,10.8c-0.6,6.3,1.7,9.1,8.7,11.1c26.3,7.5,52.4,15.8,78.5,23.8c1.9,0.6,3.8,1.2,5.5,2.2
		c2,1.1,2.4,2.9,1.2,4.8c-1.6,2.4-4,2.5-6.6,1.7c-7.4-2.3-14.9-4.5-22.3-6.8C97.7,103.2,77.3,97.1,57,90.6c-5-1.6-8-1.1-10.5,3.1
		c-1.5,2.6-3.7,4.9-5.8,7.2c-1.6,1.8-3.8,2.4-6,1c-2.2-1.4-2.4-3.5-1.1-5.5c1.5-2.3,3.4-4.5,5.2-6.7c1.1-1.4,3.1-2.9,0.2-4.4
		c-2.1-1-4.3-1.6-6,0.6c-2.3,3-4.6,6-7.1,8.9c-1.7,2-3.6,4.3-6.9,2.4c-3.5-2-2.4-4.6-0.5-7c1.3-1.7,2.7-3.3,4-5
		c1-1.4,3.3-2.8,0.7-4.5c-2.3-1.5-4.7-1.5-6.6,0.8c-2.4,3-4.7,6-7.1,8.8c-1.6,1.9-3.5,3.7-6.3,2.1c-3-1.7-2.3-4.2-1-6.6
		c0.6-1,1.3-2,2.2-2.8c6.8-6.3,9.1-13.8,8-22.4c-0.4-3.3-1.5-8.5,4.4-8.5c6.1-0.1,4.1,5.1,4.5,8.4C21.3,61.2,21.2,61.9,21.2,62.6
		C21.2,62.6,21.2,62.6,21.2,62.6z"/>
	<path class="st0" d="M169,97.5c-0.4,12.7-4.1,24.6-11.3,35.6c-3.1,4.8-7.1,8.9-12.5,11.7c-8.3,4.3-16.7,2.6-21.7-4.7
		c-4-5.8-5.2-12.2-5-18.9c0.1-2.6,1.3-4.6,4.3-4.6c3,0,4.5,2,4.6,4.5c0.1,4.1,0.5,8.2,2.2,12c2.7,6.4,7.6,7.5,13.6,3.1
		c12.6-9.2,20.9-37.6,14.9-51.1c-3.1-6.9-7.6-8-14-3.3c-4.4,3.2-7.3,7.5-9.8,12c-1.5,2.6-2.9,6-7.2,3.9c-4-2-2-5.1-0.6-7.7
		c3.1-5.8,7-11.1,12.7-15.1c10.5-7.4,21-5.1,26.5,5.9C168.3,86.1,169.2,91.7,169,97.5z"/>
</g>
</svg>
