<?xml version="1.0" encoding="utf-8"?>
<!-- Generator: Adobe Illustrator 22.0.1, SVG Export Plug-In . SVG Version: 6.00 Build 0)  -->
<svg version="1.1" baseProfile="tiny" id="Laag_1" xmlns="http://www.w3.org/2000/svg" xmlns:xlink="http://www.w3.org/1999/xlink"
	 x="0px" y="0px" viewBox="0 0 256 256" xml:space="preserve">
<g>
	<path fill="#6AA340" d="M129.1,255C59.4,255,2.9,198.5,3,128.8C3.1,59.4,59.5,3,128.9,3C198.2,3,255,59.3,255,128.2
		C255.1,198.5,199,255,129.1,255z M129,15.9c-62,0-112.9,50.5-113.1,112.2c-0.2,63,50.1,113.8,112.8,114
		c62.7,0.1,113.3-50.5,113.3-113.4C242.1,66.6,191.3,16,129,15.9z"/>
	<path fill="#6FA545" d="M209.5,117c4.7,1.1,9.1,1.6,13.4,3.2c2.3,0.9,4.6,2.1,3.7,5c-0.9,2.9-3.3,3.5-6.1,2.6
		c-6-2-12.1-2.3-18.2-0.9c-2.7,0.6-4,1.3-2.4,4.6c5.9,12.4,3.9,23.6-6,33.2c-20.7,20.1-43.8,36.8-70.8,47.7c-4.2,1.7-8.4,3.1-13,3.4
		c-6.7,0.4-9.6-2.8-8.7-9.4c0.4-2.8,2.2-6.3,1.1-8.1c-1.3-2-5.2-0.1-7.9-0.7c-4.9-1.2-9.8-0.8-14.9-0.1c-8.7,1.3-16.4-1.9-23.3-6.9
		c-22.1-16.2-30.9-53.6-18.5-78.2c8.6-17,24-22.6,41.3-14.7c3.3,1.5,3.2,0.4,4.2-2.4c1.9-5.4,0.2-6.6-5-7.9c-13.5-3.3-22-17-20.3-31
		c0.5-4.6,2.7-6.7,7.3-7.2c14.3-1.5,27.5,7.1,31.2,20.9c1,3.7,1.7,5.5,5.6,3.2c0.7-0.4,1.6-0.4,2.4-0.6c2.5-0.8,4.4-0.1,5.3,2.3
		c1,2.8-0.6,4.5-3.1,5.3c-3.9,1.1-7.5,2.7-10.3,5.8c-1.3,1.5-2.6,3.1-3.4,4.9c-1.1,2.3-3.2,5.4-1.4,7.4c1.6,1.7,4-1.1,6.1-2
		c12.6-5.3,26.2-1.7,34.8,9.5c5.5,7,8,15.2,9.3,23.9c0.2,1-0.5,2.6,1,3c1.4,0.4,1.9-1.1,2.7-1.9c3.7-4.1,7.2-8.4,11.7-11.6
		c9-6.4,18.6-6.8,28.3-2.2c3.3,1.5,4.2,1,4.9-2.4c1.2-5.9,1-11.6-0.7-17.3c-0.8-2.8-1.4-5.5,2.1-6.6c3.6-1.1,4.5,1.7,5.4,4.3
		c2.1,5.9,2.2,12.1,1.5,19.2c4.9-3.1,9.3-5.9,13.7-8.7c1.1-0.7,2.3-1.4,3.5-1.9c2-0.8,3.7,0.1,4.6,1.9c1.1,2.1,0.3,3.9-1.6,5.2
		C215.9,113,212.7,115,209.5,117z M134.1,139.3c0-6.4-0.6-11.7-2.2-16.8c-6.1-19.5-21-25.6-36.4-16.1c-5.8,3.5-11.7,2.7-17.6-0.4
		c-15.4-7.9-28-3.1-34.3,13.1c-7.6,19.4-1.5,47.3,13.7,61.6c5.6,5.3,12,9.6,19.9,8.8c6.7-0.6,13.1-0.9,19.8,0c7,1,10.1-1.3,13.2-7.7
		c5.7-11.7,12.6-22.7,20.5-33.1C133.2,145.6,134.4,142.3,134.1,139.3z M172.7,122.1c-3,0.1-5.9,0.7-8.6,2.2
		c-7.1,3.8-7.5,5.3-2.2,11.1c1.7,1.9,3.1,3.8,1,6.1c-2.2,2.4-4.4,1.5-6.5-0.3c-5.4-4.5-5.4-4.5-10.1,0.8c-0.7,0.8-1.3,1.5-1.9,2.3
		c-2,2.6-5.1,5.1-5.7,8c-0.5,2.7,3.6,4.3,5.3,6.6c1.5,2,1.8,3.9-0.1,5.7c-1.8,1.7-3.5,1.2-5.4-0.1c-1.9-1.4-3.3-5-5.5-4.3
		c-2,0.7-3.2,3.9-4.7,6.1c-0.7,0.9-1.3,1.9-1.9,2.9c-4.6,7.6-4.6,7.7,1.2,14.5c1.6,1.9,2.4,3.8,0.6,5.7c-2,2.1-4.2,1.7-6.1-0.2
		c-0.7-0.7-1.5-1.3-2.1-2.1c-1.8-2.3-2.8-1.3-3.8,0.8c-2,4.6-4.2,9.1-5.5,13.9c-0.5,1.7-1.9,3.9-0.6,5.2c1.5,1.5,3.7,0,5.6-0.6
		c8.5-2.6,16.3-6.6,24.1-10.8c5.5-3,5.5-3.1,1.4-7.8c-1.6-1.9-2.9-3.9-0.7-6.1c2.1-2.2,4.1-1.3,6.1,0.3c6.7,5.5,6.7,5.5,13.9,0.4
		c1-0.7,1.9-1.4,2.8-2.1c6.1-4.6,6.1-4.6,1.4-10.4c-1.5-1.9-2.2-3.8-0.3-5.7c1.9-2,3.7-1.3,5.7,0.1c2.3,1.6,3.5,5.9,6.7,5
		c2.6-0.8,4.6-3.7,6.8-5.7c1.6-1.5,3.1-3,4.7-4.5c6.9-6.8,8.6-14.8,5.1-23.2C190,127.7,181.5,122,172.7,122.1z M88.4,72.9
		c-1.1-9.1-12-17.4-20.3-15.8c-1.4,0.3-2,0.9-2.1,2.2c-1,9.3,7.6,20.6,15.8,20.3c-0.5-2.5-2.9-3.5-4.3-5.3c-1.4-1.8-2-3.5-0.3-5.4
		C79,67,81,67.3,83,68.7C84.9,70,85.8,72.4,88.4,72.9z"/>
	<path fill="#6FA545" d="M62,108.9c2.5-0.2,3.9,0.8,4.6,2.7c0.7,1.9-0.1,3.5-1.7,4.2c-7.2,3.2-8.5,9.7-9.7,16.3
		c-0.5,3-1.2,6.1-5,5.4c-3.7-0.6-3.5-3.9-3-6.8c0.9-5.8,2.6-11.4,6.2-16.1C55.7,111.7,58.5,109.5,62,108.9z"/>
	<path fill="#6FA545" d="M56.1,149.7c0,2.7-1.3,4.6-4.1,4.4c-4-0.3-4.1-3.9-4.5-6.7c-0.4-2.6,1.3-4.6,4.1-4.4
		C55.6,143.3,55.5,146.8,56.1,149.7z"/>
</g>
</svg>
