<?xml version="1.0" encoding="utf-8"?>
<!-- Generator: Adobe Illustrator 22.0.1, SVG Export Plug-In . SVG Version: 6.00 Build 0)  -->
<svg version="1.1" id="Laag_1" xmlns="http://www.w3.org/2000/svg" xmlns:xlink="http://www.w3.org/1999/xlink" x="0px" y="0px"
	 viewBox="0 0 150 150" style="enable-background:new 0 0 150 150;" xml:space="preserve">
<style type="text/css">
	.st0{fill:#030405;}
	.st1{fill:#67A9DD;}
	.st2{fill:#5FA1D8;}
</style>
<g>
	<path class="st0" d="M151,151.7c-50.5,0-101,0-151.5,0c0-49.9,0-99.7-0.1-149.6c0-2,0.4-2.4,2.4-2.4C51.5-0.3,101.2-0.3,151-0.3
		c0,1.2-0.1,2.4-0.1,3.6c0,47.2,0,94.4,0,141.6C150.9,147.1,151,149.4,151,151.7z M149.2,75.7c0.2-40.6-33-74.1-73.6-74.2
		C34.7,1.4,1.4,34.4,1.2,75.3s32.7,74.4,73.2,74.6C115.9,150.1,149,117.2,149.2,75.7z"/>
	<path class="st1" d="M151,151.7c0-2.3-0.1-4.5-0.1-6.8c0-47.2,0-94.4,0-141.6c0-1.2,0.1-2.4,0.1-3.6c1.2-0.1,0.5,0.8,0.5,1.2
		c0.1,49.9,0.1,99.7,0,149.6C151.5,150.8,152.1,151.8,151,151.7z"/>
	<path class="st1" d="M149.2,75.7c-0.2,41.5-33.3,74.4-74.8,74.2C33.9,149.7,1,116.1,1.2,75.3S34.7,1.4,75.5,1.5
		C116.1,1.6,149.4,35.1,149.2,75.7z M75.2,142.2c36.6,0,66.4-29.8,66.4-66.6C141.5,39,111.9,9.2,75.4,9.1
		C38.7,9.1,8.9,38.8,8.9,75.6C8.8,112.4,38.5,142.2,75.2,142.2z"/>
	<path class="st0" d="M75.2,142.2c-36.6,0-66.4-29.8-66.4-66.6C8.9,38.9,38.7,9.1,75.4,9.1c36.5,0.1,66.1,29.9,66.2,66.5
		C141.5,112.4,111.8,142.2,75.2,142.2z M91.6,53.1c-0.4,14.5-3.8,28.4-11,41.1c-3.1,5.6-6.9,10.7-12.2,14.4c-7.2,4.9-14,3.2-18-4.5
		c-1.7-3.2-2.7-6.6-3.2-10.2c-1.2-8-0.8-16,0.5-23.9c0.2-1.4,0.4-2.8-1.2-3.1c-1.7-0.3-2,1.2-2.2,2.6c-0.4,3-0.9,6.1-1.2,9.1
		c-0.5,9.4-0.2,18.6,4.2,27.2c2,3.8,4.6,7.2,8.8,8.4c3.1,0.9,3.8,2,2.7,5c-1.2,3.5,0.7,6.6,3.9,7.4c2.9,0.7,5.6-1.2,6.5-4.6
		c0.3-1.1,0.8-2.4-0.8-3c-1.6-0.6-2.1,0.6-2.5,1.8c-0.5,1.4-1,2.9-2.8,2.1c-2-0.9-1-2.6-0.7-4.2c0.4-1.5,0.7-2.6,2.7-1.9
		c2,0.7,4,1.1,6,1.4c1.5,0.2,2,0.8,2,2.3c-0.1,2.1-0.1,4.2,0.1,6.2c0.2,2.6,1.8,4.4,4,5.4c1.9,0.8,3.6-0.5,4.9-1.8
		c1.6-1.6,2.7-11.3,1.4-13.1c-0.2-0.3-0.5-0.7-0.9-0.7c-1.7-0.5-1.3-1.1-0.2-1.8c2.3-1.5,4.4-3.4,6.1-5.6c1.5-2,2.1-1.2,2.9,0.5
		c2.1,4.6,4.3,9.1,6.6,13.6c1.7,3.4,4.4,4.4,7.3,3c2.9-1.4,3.9-4.6,2.4-7.8c-2.6-5.6-5.3-11-7.9-16.6c-0.5-1.1-1-2.7-2.7-2
		c-1.8,0.8-1,2.3-0.4,3.5c2.5,5.3,5,10.5,7.6,15.8c0.7,1.4,1.5,2.9-0.5,3.8c-1.7,0.8-2.4-0.8-3-2c-2.5-5-4.9-10.2-7.4-15.2
		c-0.6-1.2-0.6-2.1,0.2-3.3c4.7-7.2,7.9-15.3,10.1-23.6c3.2-12.1,4.5-24.3,1.5-36.6c-2.2-9.1-7-15.8-16.9-17.5
		c-1.5-0.2-3.1-0.7-4.6-1.2c-6.9-2.5-12.8-0.7-18.1,3.7c-9.3,7.7-14.1,18.2-18,29.3c-0.4,1.1-0.1,2,0.9,2.5c1.4,0.6,2-0.5,2.4-1.5
		c1.4-3.3,2.5-6.6,4-9.9c3.3-7.1,7.4-13.8,13.9-18.5c8.2-5.9,15.5-3.8,19.5,5.5C90.9,40.4,91.4,46.7,91.6,53.1z M87,59.6
		c0.1-6.5-1.1-12.8-3.1-16.3c-3.7-6.7-9.9-8.3-16.2-3.9C60.9,44.2,57.5,51.5,54.6,59c-0.4,1,0,1.8,0.9,2.3c0.9,0.5,1.7,0,2.2-0.8
		c0.5-0.9,0.8-1.8,1.2-2.7c1.7-4.2,3.8-8.3,6.9-11.7c2.8-3.1,5.8-6.6,10.5-5.2c4.8,1.5,5.9,6.1,6.6,10.4c1.8,12.5-1,24.2-7.2,35
		c-1.8,3.3-4.1,6.3-7.4,8.4c-4.8,3.1-9,1.9-11.4-3.3c-1.2-2.6-1.8-5.4-2.1-8.3c-0.3-3.6-0.2-7.1,0.2-10.7c0.1-1.3,0.4-2.8-1.3-3.1
		c-2-0.3-2,1.5-2.2,2.8c-0.2,1.2-0.3,2.6-0.4,3.9c-0.2,6.7,0.1,13.3,3.8,19.1c3.3,5,8.4,6.3,13.7,3.4c3.4-1.8,6-4.5,8.1-7.7
		C83.5,81.1,86.5,70.2,87,59.6z M17.9,49.6c0.5,2.1-0.5,4.5-2.4,6.6c-0.5,0.6-0.9,1.2-1.4,1.9c-0.7,1.1-1.1,2.3,0.2,3.1
		c1.2,0.8,2-0.2,2.7-1.1c0.9-1.2,1.8-2.6,2.8-3.9c0.7-0.9,1.6-0.8,2.4-0.2c1,0.7,0.2,1.4-0.2,2c-0.5,0.7-1.1,1.4-1.5,2.1
		c-0.8,1.1-1.2,2.2,0.2,3.1c1.2,0.8,2-0.2,2.7-1c0.9-1.2,1.8-2.6,2.8-3.9c0.7-0.9,1.5-0.7,2.4-0.2c1.1,0.7,0.3,1.3-0.1,1.9
		c-0.7,0.9-1.4,1.9-2,2.9c-0.5,0.8-0.4,1.8,0.5,2.4c0.9,0.6,1.7,0.3,2.3-0.5c0.8-1,1.7-2,2.2-3.1c1-1.9,2.2-2,4.1-1.3
		c7.6,2.7,15.3,5.3,22.9,7.9c3.2,1.1,6.3,2.1,9.5,3.2c1.2,0.4,2.2,0.2,2.7-1.1c0.4-1.2-0.4-1.8-1.4-2.3c-0.7-0.3-1.3-0.5-2-0.7
		C57,64,46.7,60.5,36.4,57.1c-1.8-0.6-2.6-1.4-2.4-3.4c0.1-1.5,0-3-0.1-4.5c-0.1-0.8-0.7-1.5-1.5-1.5c-0.9-0.1-1.5,0.6-1.7,1.4
		c-0.2,0.7-0.1,1.4-0.2,2c-0.3,1.1,1.1,3.2-0.9,3.3c-2.2,0.2-1.5-2-1.7-3.4c0-0.3,0-0.6,0-0.9c-0.2-1.7,0.8-4.5-1.9-4.5
		c-2.5,0.1-1.3,2.8-1.6,4.4c-0.2,0.8,0.8,2.3-0.9,2.3c-1.4,0.1-2-0.9-1.9-2.4c0.1-1.6,0.1-3.1,0-4.7c-0.1-0.9-0.6-1.7-1.7-1.8
		c-1.1-0.1-1.7,0.7-1.7,1.7C17.9,46.5,17.9,47.7,17.9,49.6z M78.8,64.9c0.1-4.9-0.7-7.8-1.9-9.9c-2.1-3.4-5.2-4.2-8.6-2
		c-3,1.8-4.7,4.7-6.2,7.8c-0.5,1.2-0.8,2.4,0.7,3c1.4,0.6,2-0.5,2.4-1.5c0.9-2,2-3.9,3.7-5.3c2.7-2.3,4.6-1.8,5.8,1.4
		c2.1,5.9-0.9,17.6-5.6,21.8c-2.6,2.3-4.7,1.7-5.7-1.6c-0.4-1.5-0.5-3.1-0.7-4.7c-0.1-1.1-0.6-2-1.7-2c-1.2-0.1-1.7,0.8-1.7,2
		c-0.1,3,0.4,5.9,2.1,8.5c2,3,5.1,3.7,8.2,1.9c1.8-1.1,3.3-2.6,4.4-4.3C77.1,74.8,78.6,69.4,78.8,64.9z"/>
	<path class="st2" d="M91.6,53.1c-0.2-6.4-0.7-12.6-3.3-18.6C84.4,25.2,77,23,68.9,29c-6.5,4.7-10.6,11.4-13.9,18.5
		c-1.5,3.2-2.7,6.6-4,9.9c-0.4,1-1,2.1-2.4,1.5c-1-0.4-1.3-1.4-0.9-2.5c3.9-11.1,8.8-21.7,18.1-29.4c5.3-4.5,11.3-6.3,18.1-3.7
		c1.5,0.5,3,1,4.6,1.2c9.9,1.7,14.7,8.4,16.9,17.5c3,12.3,1.7,24.6-1.5,36.6c-2.2,8.4-5.3,16.4-10.1,23.6c-0.8,1.1-0.8,2.1-0.2,3.3
		c2.5,5,4.9,10.2,7.4,15.2c0.6,1.2,1.3,2.8,3,2c2-0.8,1.1-2.4,0.5-3.8c-2.5-5.3-5-10.5-7.6-15.8c-0.6-1.3-1.4-2.7,0.4-3.5
		c1.7-0.8,2.2,0.9,2.7,2c2.7,5.5,5.4,11,7.9,16.6c1.5,3.3,0.5,6.4-2.4,7.8s-5.6,0.4-7.3-3c-2.3-4.5-4.5-9-6.6-13.6
		c-0.8-1.7-1.4-2.5-2.9-0.5c-1.7,2.2-3.7,4-6.1,5.6c-1.1,0.8-1.5,1.4,0.2,1.8c0.4,0.1,0.7,0.4,0.9,0.7c1.2,1.8,0.2,11.5-1.4,13.1
		c-1.4,1.4-3,2.6-4.9,1.8c-2.2-1-3.8-2.8-4-5.4c-0.1-2.1-0.1-4.2-0.1-6.2c0.1-1.5-0.4-2.1-2-2.3c-2-0.2-4.1-0.7-6-1.4
		c-2-0.7-2.4,0.4-2.7,1.9c-0.4,1.5-1.4,3.2,0.7,4.2c1.8,0.8,2.4-0.8,2.8-2.1c0.4-1.2,0.9-2.4,2.5-1.8c1.5,0.6,1.1,1.8,0.8,3
		c-0.9,3.4-3.6,5.3-6.5,4.6c-3.3-0.8-5.2-3.9-3.9-7.4c1.1-3.1,0.4-4.2-2.7-5c-4.2-1.2-6.8-4.5-8.8-8.4C43,97,42.6,87.8,43.2,78.4
		c0.2-3,0.7-6.1,1.2-9.1c0.2-1.3,0.5-2.8,2.2-2.6c1.7,0.3,1.5,1.8,1.2,3.1c-1.4,8-1.8,15.9-0.5,23.9c0.5,3.6,1.5,6.9,3.2,10.2
		c4,7.7,10.8,9.5,18,4.5c5.3-3.7,9.1-8.8,12.2-14.4C87.8,81.4,91.2,67.7,91.6,53.1z M67.8,113.4c3.3,1.5,6.2,1.5,9.2,0.2
		c4.1-1.8,7.3-4.6,10-8.1c12.3-16.1,17-34.5,16.1-54.6c-0.2-5.6-1.4-11-4.3-15.9c-2-3.4-4.9-5.8-9.3-6.3c7.6,15.1,6.4,30.5,2.5,45.7
		C88.2,89.9,81.8,103.9,67.8,113.4z M80.8,116.3c-2.5,0.5-4.4,1.1-4,4.3c0.2,1.5,0,3.1,0.1,4.7c0,1.4,0.4,2.7,2,2.7
		c1.5-0.1,1.6-1.4,1.6-2.7C80.5,122.3,80.2,119.4,80.8,116.3z"/>
	<path class="st2" d="M87,59.6c-0.5,10.6-3.5,21.5-10.1,31.3c-2.1,3.1-4.7,5.9-8.1,7.7c-5.3,2.8-10.4,1.5-13.7-3.4
		C51.3,89.3,51,82.7,51.2,76c0.1-1.3,0.1-2.6,0.4-3.9c0.2-1.3,0.2-3.1,2.2-2.8c1.7,0.2,1.5,1.8,1.3,3.1c-0.4,3.6-0.5,7.1-0.2,10.7
		c0.2,2.9,0.9,5.7,2.1,8.3c2.4,5.2,6.6,6.4,11.4,3.3c3.2-2.1,5.6-5,7.4-8.4c6.1-10.9,9-22.6,7.2-35c-0.7-4.3-1.8-9-6.6-10.4
		c-4.7-1.4-7.7,2-10.5,5.2c-3.1,3.4-5.1,7.5-6.9,11.7c-0.4,0.9-0.7,1.8-1.2,2.7c-0.5,0.9-1.2,1.4-2.2,0.8c-0.9-0.5-1.2-1.2-0.9-2.3
		c3-7.5,6.3-14.8,13.1-19.6c6.2-4.4,12.5-2.8,16.2,3.9C85.8,46.8,87.1,53.1,87,59.6z"/>
	<path class="st2" d="M17.9,49.6c0-2-0.1-3.1,0-4.3c0.1-0.9,0.7-1.7,1.7-1.7c1.1,0.1,1.6,0.8,1.7,1.8c0.1,1.6,0.1,3.1,0,4.7
		c-0.1,1.5,0.5,2.4,1.9,2.4c1.7-0.1,0.7-1.5,0.9-2.3c0.3-1.6-0.8-4.3,1.6-4.4c2.8-0.1,1.7,2.7,1.9,4.5c0.1,0.3,0,0.6,0,0.9
		c0.1,1.4-0.5,3.6,1.7,3.4c2-0.1,0.6-2.2,0.9-3.3c0.2-0.7,0-1.4,0.2-2c0.2-0.8,0.8-1.4,1.7-1.4c0.9,0.1,1.5,0.7,1.5,1.5
		c0.1,1.5,0.2,3,0.1,4.5c-0.2,2,0.7,2.8,2.4,3.4c10.3,3.4,20.5,6.9,30.8,10.4c0.7,0.2,1.3,0.4,2,0.7c0.9,0.4,1.8,1,1.4,2.3
		c-0.4,1.3-1.5,1.5-2.7,1.1c-3.2-1.1-6.3-2.1-9.5-3.2c-7.6-2.6-15.3-5.2-22.9-7.9c-1.9-0.7-3.1-0.6-4.1,1.3
		c-0.6,1.1-1.4,2.1-2.2,3.1c-0.6,0.8-1.4,1.1-2.3,0.5c-0.9-0.6-0.9-1.5-0.5-2.4c0.6-1,1.3-2,2-2.9c0.4-0.6,1.2-1.2,0.1-1.9
		c-0.8-0.5-1.7-0.7-2.4,0.2c-0.9,1.3-1.8,2.6-2.8,3.9c-0.7,0.9-1.4,1.8-2.7,1c-1.4-0.9-0.9-2-0.2-3.1c0.5-0.7,1.1-1.4,1.5-2.1
		c0.4-0.6,1.2-1.2,0.2-2c-0.8-0.5-1.7-0.7-2.4,0.2c-0.9,1.2-1.8,2.6-2.8,3.9c-0.7,0.9-1.4,1.9-2.7,1.1c-1.2-0.9-0.8-2.1-0.2-3.1
		c0.4-0.7,0.9-1.3,1.4-1.9C17.4,54.1,18.5,51.8,17.9,49.6z"/>
	<path class="st2" d="M78.8,64.9c-0.2,4.5-1.7,10-4.9,15c-1.1,1.8-2.5,3.3-4.4,4.3c-3.1,1.8-6.3,1.1-8.2-1.9
		c-1.7-2.6-2.1-5.5-2.1-8.5c0.1-1.1,0.5-2,1.7-2c1.2,0.1,1.6,0.9,1.7,2c0.2,1.5,0.2,3.1,0.7,4.7c1,3.4,3.1,3.9,5.7,1.6
		c4.7-4.2,7.7-15.9,5.6-21.8c-1.2-3.3-3.1-3.7-5.8-1.4c-1.7,1.5-2.7,3.3-3.7,5.3c-0.5,1-1.1,2.1-2.4,1.5c-1.4-0.7-1.2-1.8-0.7-3
		c1.4-3.1,3.2-5.9,6.2-7.8c3.4-2.1,6.5-1.3,8.6,2C78.2,57,78.9,60,78.8,64.9z"/>
	<path class="st0" d="M67.8,113.4c14-9.4,20.4-23.5,24.3-38.9c3.9-15.3,5.1-30.6-2.5-45.7c4.4,0.5,7.2,2.8,9.3,6.3
		c2.9,4.9,4,10.3,4.3,15.9c0.9,20-3.8,38.4-16.1,54.6c-2.7,3.5-5.9,6.4-10,8.1C74,114.9,71,115,67.8,113.4z"/>
	<path class="st0" d="M80.8,116.3c-0.6,3.1-0.3,6-0.4,8.9c0,1.2-0.2,2.6-1.6,2.7c-1.7,0.1-2-1.2-2-2.7c0-1.5,0.2-3.1-0.1-4.7
		C76.3,117.5,78.2,116.8,80.8,116.3z"/>
</g>
</svg>
