<?xml version="1.0" encoding="utf-8"?>
<!-- Generator: Adobe Illustrator 22.0.1, SVG Export Plug-In . SVG Version: 6.00 Build 0)  -->
<svg version="1.1" baseProfile="tiny" id="Laag_1" xmlns="http://www.w3.org/2000/svg" xmlns:xlink="http://www.w3.org/1999/xlink"
	 x="0px" y="0px" viewBox="0 0 256 256" xml:space="preserve">
<g>
	<path fill="#6EAEE0" d="M255,129.1c-0.1,70.1-56.5,126.1-126.7,125.9C58.6,254.8,2.8,198.1,3,127.7C3.2,58.7,60.1,2.8,130,3
		C198.8,3.2,255.1,59.9,255,129.1z M129.4,16C67.1,15.8,16.1,66.3,16,128.1C15.8,191.2,66,241.9,128.6,242
		c62.8,0.1,113.3-50.2,113.4-113.2C242.2,66.8,191.6,16.1,129.4,16z"/>
	<path fill="#76B1E1" d="M133.6,35c42.7,0.6,76.5,30.6,81.3,70.1c3.9,31.9-8,57.3-33.8,76.1c-4.2,3.1-4.8,5.3-2.4,9.7
		c2.9,5.4,5.3,11.1,7.8,16.7c3,6.8,1.3,12.3-4.3,14.9c-4.5,2.1-9.6-0.5-12.7-6.7c-3.3-6.5-6.7-13.1-9.8-19.7
		c-1.2-2.5-2.5-3.3-5.4-2.5c-12.6,3.3-25.4,3.4-38,0.1c-3.3-0.9-4.4,0.2-5.6,2.8c-3.6,7.3-7.3,14.6-11.2,21.8
		c-1.9,3.4-5,5.5-9.1,4.7c-3.8-0.8-6.5-3.1-7.8-7c-0.7-2.2-0.3-4.3,0.6-6.3c3.1-6.8,6-13.7,9.4-20.4c1.7-3.3,1-4.8-2-6.7
		c-14.8-9.7-25.2-23-31.5-39.5c-0.8-2.1-2.3-4.3,1.4-5.6c3.4-1.2,3.5,1.4,4.2,3.3c11.7,32,43.3,52.4,77.1,49.2
		c37.8-3.5,65.4-34.3,67.7-69.1c2.5-37.5-23.4-69.9-58-77.9c-36.1-8.3-74.1,12.2-86.8,47.2c-0.8,2.1-1,4.9-4.5,3.7
		c-3.8-1.3-1.7-3.9-1-5.7C69.9,60.8,89.7,44,118.1,37C123.6,35.7,129,34.2,133.6,35z M182.1,213c-0.2-0.7-0.5-2-1.1-3.2
		c-2.9-6.3-5.9-12.6-8.6-19c-1.5-3.5-3.4-2.5-5.9-1.5c-3,1.2-2.5,2.9-1.3,5c1.8,3.4,3.5,6.8,5.2,10.2c1.7,3.4,3.4,6.8,5.2,10.2
		c0.8,1.5,2.2,2.6,4.1,2.1C181.3,216.4,182.1,215.3,182.1,213z M91.3,216.9c1.5,0,2.6-0.6,3.1-1.6c3.9-7.5,7.8-15,11.5-22.6
		c1.2-2.5-1.5-2.9-3-3.6c-1.5-0.7-3.1-1.8-4.1,0.5c-3.4,7.5-6.9,15-10.2,22.6C87.4,214.8,89.1,216.2,91.3,216.9z"/>
	<path fill="#76B1E1" d="M134.9,53.8c26.5,1,46.3,13,57,37.4c10.6,24.1,6.2,47.1-11.5,66.3c-16.8,18.2-38.4,24.1-62.4,17.3
		c-22.9-6.4-37.1-22-43.3-44.8c-0.5-1.7-1.9-4,1.2-4.9c3.1-0.9,3.9,0.8,4.5,3.5c6.5,26.5,30.6,44.1,58.1,42.7
		c25-1.3,47.6-21.5,51.8-46.3c5-29.6-14.4-59.7-47.7-64.9C115.4,55.9,87.9,74,80.8,101c-0.5,1.9,0.1,4.7-3,5.1
		c-3.6,0.4-4.2-1.5-3.4-4.6c4.4-16.5,13.3-29.7,28-38.6C112.4,56.9,123.1,53.6,134.9,53.8z"/>
	<path fill="#76B1E1" d="M178.3,115.6c1.3-20-15-40.2-38.3-43.4c-19.6-2.7-40.6,10.8-46.8,30.6c-0.6,2-0.4,4.5-3.9,3.4
		c-3.7-1.1-2.2-3.5-1.5-5.5c6.6-21.3,28.4-36.1,50.6-34.5c23,1.7,42,19,45.6,41.4c4.1,25.8-12.1,49.9-37.6,56.1
		c-24.9,6-50.9-8.6-58.5-33c-0.6-1.8-2.5-4.2,0.7-5.4c3.5-1.3,4,1.1,4.9,3.7c6.3,19.1,23.8,30.8,44.6,30.1
		c17.9-0.6,34.7-14.7,39.5-33C178.4,122.6,178.2,119.1,178.3,115.6z"/>
	<path fill="#76B1E1" d="M103.6,118.8c-8.3,0-16.6,0.2-25-0.1c-3.7-0.1-6.5,0.8-8.7,3.7c-5.1,7.2-11.9,9.8-20.7,8.7
		c-5.1-0.7-10.3-0.1-15.5-0.1c-1.7,0-3.4-0.3-4.2-2.1c-0.9-1.9,0.5-3.2,1.6-4.3c2.2-2.3,4.3-4.6,6.7-6.7c2.1-1.8,1.7-3.1-0.1-4.8
		c-2.5-2.2-4.9-4.6-7-7.1c-2.6-3-1.7-5.7,2.1-5.8c9-0.3,18-0.3,26.9,0c3.4,0.1,5.3,3.4,7.2,5.8c4.4,5.6,9.8,7.3,16.9,7
		c15.5-0.5,30.9-0.2,46.4-0.2c2.1,0,4.4-0.6,4.5,2.9c0.1,3.6-2.3,3-4.4,3C121.6,118.8,112.6,118.8,103.6,118.8z M41.1,106.1
		c0.1,1,0.1,1.2,0.2,1.3c1.6,2.9,5.6,4.3,6.2,7.5c0.6,3.7-3.7,5-5.6,7.7c-1.3,1.8-0.4,2.3,1.3,2.3c3.5,0,7-0.4,10.4,0.1
		c7.1,0.9,9.4-5.2,13.5-8.6c0.3-0.2,0.4-0.9,0.3-1.3c-0.3-1.6-9-9-10.7-9C51.7,106.1,46.6,106.1,41.1,106.1z"/>
	<path fill="#76B1E1" d="M134.7,143.1c-10,0.3-17.5-4.7-23.3-12.7c-1-1.4-3.1-3.3-0.4-5.1c2.4-1.6,3.9-0.9,5.4,1.7
		c4.9,8.4,14.8,12,24.2,9.5c9.2-2.5,15.7-10.7,16.1-20.5c0.4-9.3-6.2-18.2-15.8-21.3c-9-2.9-18.5,0.4-24.1,8.4
		c-0.4,0.5-0.8,1.1-1.1,1.7c-1.1,2.5-2.8,1.7-4.5,1c-2.4-1.1-1.4-2.6-0.5-4.1c6-9.9,14.9-14.7,26.4-13.8c11.1,0.9,19.1,6.9,23.4,17
		c4.3,10.2,2.7,19.9-4.6,28.4C150.5,139.8,143.6,143.3,134.7,143.1z"/>
	<path fill="#76B1E1" d="M150.1,115.7c-0.1,11.1-11.5,18.6-21.3,13.9c-1.3-0.6-4.1-1-2.8-3.6c1-1.9,2.4-3,5.2-2
		c7.3,2.6,13.2-1.6,12.9-8.7c-0.2-6.4-6.1-10.4-12.2-8.4c-0.8,0.3-1.5,0.9-2.3,0.9c-2.2,0.1-3.3-1.7-4-3.2c-0.7-1.7,1.4-2,2.4-2.5
		C138.5,96.6,150.2,103.9,150.1,115.7z"/>
</g>
</svg>
