<?xml version="1.0" encoding="utf-8"?>
<!-- Generator: Adobe Illustrator 22.0.1, SVG Export Plug-In . SVG Version: 6.00 Build 0)  -->
<svg version="1.1" id="Laag_1" xmlns="http://www.w3.org/2000/svg" xmlns:xlink="http://www.w3.org/1999/xlink" x="0px" y="0px"
	 viewBox="0 0 150 150" style="enable-background:new 0 0 150 150;" xml:space="preserve">
<style type="text/css">
	.st0{fill:#020203;stroke:#FFFFFF;stroke-miterlimit:10;}
	.st1{fill:#6AA340;}
	.st2{fill:#6FA645;}
</style>
<rect x="-16.3" y="-13.7" class="st0" width="177.3" height="170.7"/>
<g>
	<path class="st1" d="M75.2,149.7c-40.9,0-74.1-33.2-74-74.1C1.3,34.9,34.3,1.8,75.1,1.8c40.7,0,74,33,74,73.5
		C149.1,116.5,116.2,149.7,75.2,149.7z M75.1,9.4C38.7,9.4,8.9,39,8.8,75.2c-0.1,37,29.4,66.8,66.2,66.9
		c36.8,0.1,66.5-29.6,66.5-66.5C141.5,39.1,111.7,9.4,75.1,9.4z"/>
	<path class="st2" d="M122.4,68.7c2.8,0.6,5.3,0.9,7.9,1.9c1.3,0.5,2.7,1.2,2.2,2.9c-0.5,1.7-1.9,2.1-3.6,1.5
		c-3.5-1.2-7.1-1.3-10.7-0.5c-1.6,0.4-2.3,0.8-1.4,2.7c3.5,7.3,2.3,13.8-3.5,19.5c-12.1,11.8-25.7,21.6-41.5,28
		c-2.5,1-4.9,1.8-7.6,2c-3.9,0.2-5.6-1.6-5.1-5.5c0.2-1.6,1.3-3.7,0.6-4.8c-0.8-1.2-3.1-0.1-4.6-0.4c-2.9-0.7-5.8-0.5-8.7-0.1
		c-5.1,0.8-9.6-1.1-13.7-4c-13-9.5-18.1-31.5-10.9-45.9c5-10,14.1-13.3,24.2-8.6c1.9,0.9,1.9,0.2,2.5-1.4c1.1-3.2,0.1-3.9-2.9-4.6
		c-7.9-1.9-12.9-10-11.9-18.2c0.3-2.7,1.6-3.9,4.3-4.2c8.4-0.9,16.1,4.2,18.3,12.3c0.6,2.2,1,3.2,3.3,1.9c0.4-0.2,0.9-0.2,1.4-0.4
		c1.5-0.5,2.6-0.1,3.1,1.3c0.6,1.6-0.4,2.6-1.8,3.1c-2.3,0.6-4.4,1.6-6,3.4c-0.8,0.9-1.5,1.8-2,2.9c-0.6,1.3-1.9,3.2-0.8,4.3
		c0.9,1,2.3-0.6,3.6-1.2c7.4-3.1,15.4-1,20.4,5.6c3.2,4.1,4.7,8.9,5.5,14c0.1,0.6-0.3,1.5,0.6,1.8c0.8,0.2,1.1-0.6,1.6-1.1
		c2.2-2.4,4.2-4.9,6.9-6.8c5.3-3.8,10.9-4,16.6-1.3c1.9,0.9,2.5,0.6,2.9-1.4c0.7-3.5,0.6-6.8-0.4-10.2c-0.5-1.6-0.8-3.2,1.2-3.9
		c2.1-0.6,2.6,1,3.2,2.5c1.2,3.5,1.3,7.1,0.9,11.3c2.9-1.8,5.5-3.5,8-5.1c0.6-0.4,1.3-0.8,2.1-1.1c1.2-0.5,2.2,0.1,2.7,1.1
		c0.6,1.2,0.2,2.3-0.9,3.1C126.1,66.3,124.2,67.5,122.4,68.7z M78.1,81.8c0-3.8-0.4-6.9-1.3-9.9c-3.6-11.4-12.3-15-21.4-9.4
		c-3.4,2.1-6.9,1.6-10.3-0.2c-9-4.6-16.4-1.8-20.1,7.7c-4.5,11.4-0.9,27.8,8,36.1c3.3,3.1,7,5.6,11.7,5.2c3.9-0.4,7.7-0.5,11.6,0
		c4.1,0.6,5.9-0.8,7.7-4.5c3.3-6.9,7.4-13.3,12-19.4C77.6,85.5,78.3,83.5,78.1,81.8z M100.8,71.7c-1.8,0.1-3.5,0.4-5,1.3
		c-4.2,2.2-4.4,3.1-1.3,6.5c1,1.1,1.8,2.2,0.6,3.6c-1.3,1.4-2.6,0.9-3.8-0.2c-3.2-2.6-3.2-2.6-5.9,0.5c-0.4,0.5-0.8,0.9-1.1,1.3
		c-1.2,1.5-3,3-3.3,4.7c-0.3,1.6,2.1,2.5,3.1,3.9c0.9,1.2,1.1,2.3-0.1,3.3c-1.1,1-2.1,0.7-3.2-0.1c-1.1-0.8-1.9-2.9-3.2-2.5
		c-1.2,0.4-1.9,2.3-2.8,3.6c-0.4,0.5-0.8,1.1-1.1,1.7c-2.7,4.5-2.7,4.5,0.7,8.5c0.9,1.1,1.4,2.2,0.4,3.3c-1.2,1.2-2.5,1-3.6-0.1
		c-0.4-0.4-0.9-0.8-1.2-1.2c-1.1-1.3-1.6-0.8-2.2,0.5c-1.2,2.7-2.5,5.3-3.2,8.2c-0.3,1-1.1,2.3-0.4,3.1c0.9,0.9,2.2,0,3.3-0.4
		c5-1.5,9.6-3.9,14.1-6.3c3.2-1.8,3.2-1.8,0.8-4.6c-0.9-1.1-1.7-2.3-0.4-3.6c1.2-1.3,2.4-0.8,3.6,0.2c3.9,3.2,3.9,3.2,8.2,0.2
		c0.6-0.4,1.1-0.8,1.6-1.2c3.6-2.7,3.6-2.7,0.8-6.1c-0.9-1.1-1.3-2.2-0.2-3.3c1.1-1.2,2.2-0.8,3.3,0.1c1.3,0.9,2.1,3.5,3.9,2.9
		c1.5-0.5,2.7-2.2,4-3.3c0.9-0.9,1.8-1.8,2.8-2.6c4-4,5-8.7,3-13.6C110.9,75,105.9,71.6,100.8,71.7z M51.3,42.8
		c-0.6-5.3-7-10.2-11.9-9.3c-0.8,0.2-1.2,0.5-1.2,1.3c-0.6,5.5,4.5,12.1,9.3,11.9c-0.3-1.5-1.7-2.1-2.5-3.1
		c-0.8-1.1-1.2-2.1-0.2-3.2c1.1-1.1,2.2-0.9,3.4-0.1C49.3,41.1,49.8,42.5,51.3,42.8z"/>
	<path class="st2" d="M35.8,63.9c1.5-0.1,2.3,0.5,2.7,1.6c0.4,1.1-0.1,2.1-1,2.5c-4.2,1.9-5,5.7-5.7,9.6c-0.3,1.8-0.7,3.6-2.9,3.2
		c-2.2-0.4-2.1-2.3-1.8-4c0.5-3.4,1.5-6.7,3.6-9.4C32.1,65.6,33.8,64.3,35.8,63.9z"/>
	<path class="st2" d="M32.4,87.9c0,1.6-0.8,2.7-2.4,2.6c-2.3-0.2-2.4-2.3-2.6-3.9c-0.2-1.5,0.8-2.7,2.4-2.6
		C32.1,84.1,32,86.2,32.4,87.9z"/>
</g>
</svg>
