<?xml version="1.0" encoding="utf-8"?>
<!-- Generator: Adobe Illustrator 22.0.1, SVG Export Plug-In . SVG Version: 6.00 Build 0)  -->
<svg version="1.1" id="Laag_1" xmlns="http://www.w3.org/2000/svg" xmlns:xlink="http://www.w3.org/1999/xlink" x="0px" y="0px"
	 viewBox="0 0 256 256" style="enable-background:new 0 0 256 256;" xml:space="preserve">
<style type="text/css">
	.st0{fill:#C5C5C5;}
	.st1{fill:#65ADE9;}
	.st2{fill:#65A03E;}
	.st3{fill:#FEFEFE;}
	.st4{fill:#FBFBFB;}
</style>
<g>
	<path class="st0" d="M5.5,143.7c-0.3-0.5-0.2-1.1-0.2-1.7c-0.3-2.3-0.5-4.6-0.6-6.9c-0.2-2.9-0.3-5.8-0.2-8.7
		c0.1-3.7,0.3-7.4,0.6-11c0.3-3,0.7-6,1.2-8.9c0.7-3.8,1.5-7.5,2.5-11.2c1.2-4.2,2.5-8.4,4.1-12.5c1.1-2.8,2.3-5.5,3.6-8.2
		c2.3-4.9,4.9-9.6,7.8-14.1c2.4-3.7,5-7.3,7.8-10.7c3.1-3.9,6.5-7.6,10-11c2.8-2.7,5.6-5.2,8.6-7.6c4.8-3.8,9.8-7.3,15.1-10.4
		c4.5-2.6,9.1-4.9,13.9-7c3.7-1.6,7.5-3,11.3-4.2c3.5-1.1,7.1-2.1,10.6-2.9c2.3-0.5,4.6-1,6.9-1.4c2.1-0.4,4.3-0.7,6.4-0.9
		c3.3-0.4,6.5-0.6,9.8-0.7c2.3-0.1,4.7-0.1,7-0.1c2.5,0,5,0.2,7.6,0.4c4.6,0.4,9.1,1,13.6,1.9c3.8,0.8,7.6,1.7,11.3,2.8
		c5.6,1.7,11.1,3.7,16.5,6.2c1.1,0.5,2.2,1,3.3,1.6c-1.3,2.6-2.6,5.2-4,7.8c-1.2,2.4-2.4,4.7-3.6,7.1c-0.1,0-0.3-0.1-0.4-0.1
		c-4.8-2.3-9.7-4.3-14.7-5.9c-9.6-3-19.3-4.7-29.4-5c-5.1-0.1-10.2,0.1-15.3,0.6c-6.1,0.7-12.1,1.9-18,3.6c-3.5,1-6.9,2.2-10.3,3.5
		c-0.1-0.5,0.1-1.1,0.1-1.6c0.2-2,0.5-4,0.7-6c0.2-1.9,0.5-3.7,0.7-5.6c0-0.3-0.1-0.4-0.3-0.2c-0.5,0.2-1.1,0.5-1.7,0.7
		c-0.4,0.1-0.5,0.3-0.5,0.7c-0.2,1.6-0.3,3.1-0.6,4.7c-0.1,0.5,0.1,1-0.3,1.5c-1.1-1.2-2.1-2.4-3.1-3.6c-0.8-1-0.8-1-2-0.5
		c-0.3,0.1-0.5,0.2-0.8,0.3c-0.3,0.1-0.3,0.3-0.1,0.5c1.8,2,3.5,4.1,5.3,6.1c0.3,0.4,0.4,0.7,0.3,1.2c-0.2,0.9-0.2,1.9-0.3,2.9
		c-0.2,0.1-0.3,0.2-0.5,0.2c-15.2,6.7-28.2,16.4-39,29.1c-9.8,11.6-16.7,24.7-21,39.3c-1.5,5.1-2.6,10.4-3.3,15.7
		c-0.4,3.2-0.7,6.4-0.9,9.5c-0.2,4-0.2,8.1,0.2,12.1c0.2,2.1,0.4,4.2,0.6,6.3c-0.2,0-0.4,0.1-0.7,0.1c-3.3,0.5-6.6,1-10,1.5
		C9.4,143.2,7.5,143.4,5.5,143.7z M46.6,43.7c0-0.1,0-0.2,0-0.4c-0.4-2.5-3.2-3.8-5.5-2.4c-1.1,0.7-2,1.7-2.9,2.6
		c-0.3,0.3-0.1,0.4,0.1,0.6c1.4,2,2.8,3.9,4.2,5.9c1,1.5,2.1,2.9,3.1,4.3c0.2,0.3,0.4,0.6,0.8,0.2c1.2-1.2,2.5-2.3,3.7-3.5
		c1.4-1.4,1.4-3.3,0.4-4.8c-0.8-1.1-1.9-1.8-3.3-1.7c-0.5,0-0.8,0-0.5-0.6C46.6,43.9,46.6,43.8,46.6,43.7z M75.8,31
		c0.1,0.2,0.2,0.3,0.2,0.3c0.1,0.6,0.4,0.6,0.9,0.3c0.3-0.2,0.7-0.4,1-0.6c0.4-0.2,0.5-0.4,0.3-0.8c-0.3-0.6-0.6-1.3-0.8-2
		c-1.4-3.4-2.8-6.7-4.1-10.1c-0.2-0.4-0.3-0.4-0.7-0.2c-0.4,0.3-0.8,0.5-1.3,0.7C71,18.8,70.9,19,71,19.4c0.3,0.5,0.5,1.1,0.7,1.7
		c0.4,0.9,0.7,1.8,1.1,2.7c-0.2,0-0.2,0-0.3,0c-1.6-0.6-2.9-0.2-4,0.9c-2.5,2.4-2.2,6.7,0.7,8.7c1.1,0.8,2.3,1.2,3.7,0.7
		C74.4,33.6,75.3,32.6,75.8,31z M63.3,37.2c0-1-0.6-2.2-1.4-3.3c-1.3-1.6-3.7-2.2-5.5-1.3c-2.9,1.4-4.2,4.9-2.7,7.8
		c0.9,1.8,2.3,3.1,4.5,3.1C60.8,43.3,63.3,40.5,63.3,37.2z"/>
	<path class="st1" d="M176.4,31.3c1.2-2.4,2.4-4.8,3.6-7.1c1.3-2.6,2.7-5.1,4-7.8c0.4,0.1,0.7,0.3,1.1,0.5c4.8,2.4,9.4,5.2,13.9,8.2
		c4.8,3.3,9.4,6.9,13.6,10.8c7.8,7.1,14.5,15.1,20.3,24c7.2,11.2,12.5,23.2,16,36.1c1.5,5.8,2.6,11.7,3.3,17.6
		c0.4,3.2,0.6,6.5,0.7,9.7c0.1,3.2,0.1,6.4,0,9.6c-0.3,6.7-1.1,13.4-2.5,20c-1.6,7.6-3.9,15-6.8,22.2c-2.8,6.7-6.1,13.1-10,19.2
		c-4.1,6.5-8.8,12.6-14.1,18.2c-4.1,4.4-8.4,8.4-13.1,12.2c-2.9,2.3-5.9,4.5-9,6.6c-0.2,0.1-0.4,0.4-0.7,0.2
		c-0.1-0.2-0.1-0.3-0.2-0.5c-2.2-3.5-4.4-7-6.6-10.4c-0.7-1-1.4-2-1.9-3.1c0,0,0.1,0,0.1-0.1c10.9-7.2,20.2-16.1,27.8-26.7
		c5.3-7.3,9.6-15.2,12.9-23.6c4.7-11.8,7.2-24.1,7.5-36.9c0.2-9.4-0.8-18.7-3-27.9c-3.4-13.9-9.3-26.7-17.7-38.3
		c-8.6-11.7-19.1-21.3-31.6-28.8C181.5,34,178.9,32.7,176.4,31.3z M246.6,122.2c0.7,0.1,0.9-0.2,0.8-0.9c-0.1-0.3,0-0.7,0-1
		c0-0.5-0.2-0.6-0.7-0.7c-0.7,0-1.4-0.1-2.1-0.2c-2.4-0.2-4.7-0.5-7.1-0.7c-0.3,0-0.4,0-0.4,0.4c0,0.6,0.1,1.2,0.1,1.8
		c0,0.3,0.1,0.3,0.4,0.4c0.5,0,1,0.1,1.5,0.1c1.4,0.1,2.9,0.2,4.2,0.6c1.1,0.3,1.8,0.9,2.1,2.1c0.2,0.9-0.3,1.5-1.2,1.6
		c-0.4,0-0.9,0-1.3-0.1c-1.6-0.1-3.3-0.3-4.9-0.5c-0.4,0-0.6,0.1-0.5,0.5c0,0.5,0,0.9,0,1.4c0,0.3,0.1,0.5,0.5,0.6
		c1,0.1,2,0.2,3,0.3c1.3,0.1,2.6,0.3,3.9,0.3c1.7,0,2.9-1.2,2.9-3C247.8,124,247.2,123.1,246.6,122.2L246.6,122.2z M237.3,96.4
		c0.1-0.2,0.3-0.3,0.5-0.4c2.1-1.2,4.2-2.4,6.3-3.6c0.5-0.3,1.2-0.5,1.4-0.9c0.3-0.5-0.2-1.1-0.4-1.7c-0.1-0.4-0.3-0.6-0.7-0.5
		c-0.9,0.1-1.8,0.1-2.7,0.1c-2.7,0.1-5.5,0.1-8.2,0.2c-0.8,0-1.6,0.1-2.3,0.1c-0.2,0-0.4,0-0.3,0.3c0.2,0.6,0.3,1.2,0.5,1.7
		c0.1,0.3,0.3,0.3,0.5,0.3c1.8-0.1,3.7-0.1,5.5-0.2c0.9,0,1.7,0,2.7,0c-2.2,1.3-4.3,2.5-6.4,3.7c-1.1,0.6-1.1,0.6-0.7,1.8
		c0.1,0.5,0.3,0.7,0.9,0.8c2.7,0.5,5.3,1,8,1.5c-0.1,0.2-0.3,0.2-0.5,0.3c-1.8,0.5-3.6,1.1-5.4,1.6c-1.7,0.5-1.7,0.5-1.2,2.2
		c0.2,0.6,0.4,0.6,0.9,0.5c3.7-1.1,7.3-2.2,11-3.3c1.5-0.4,1.4-0.4,1.1-1.9c-0.1-0.6-0.4-0.8-1-0.9C243.6,97.6,240.5,97,237.3,96.4z
		 M245.3,143.4c1.5-0.9,2.1-2.2,1.9-3.7c-0.3-3.4-3.5-5.7-6.9-5c-3.6,0.7-4.5,4.3-2.9,6.5c0.1,0.1,0.1,0.2,0.1,0.3
		c-0.1,0-0.2,0-0.3,0c-0.5-0.2-0.6,0-0.6,0.5c0,0.4,0,0.8-0.1,1.2c-0.2,0.6,0.1,0.7,0.6,0.8c4.1,1,8.1,2,12.2,3
		c0.9,0.2,0.9,0.2,1-0.7c0-0.3,0.1-0.7,0.1-1c0.1-0.4-0.1-0.6-0.5-0.7C248.4,144.1,246.9,143.8,245.3,143.4z M241.7,110
		c-1.8,0.1-3.5,0-5.2,0.1c-0.2,0-0.5-0.1-0.4,0.2c0.1,0.7,0,1.5,0.4,2.1c0.3,0.4,1,0.1,1.5,0.1c0.2,0,0.5,0,0.7,0
		c2.4,0,4.9-0.1,7.3-0.1c0.5,0,0.6-0.1,0.5-0.6c-0.1-0.4-0.2-0.9-0.2-1.3c0-0.4-0.2-0.5-0.6-0.5C244.3,110,242.9,110,241.7,110z
		 M249,112.7c0.8,0,1.6-0.7,1.6-1.5c0-0.8-0.8-1.6-1.6-1.6c-0.9,0-1.5,0.7-1.5,1.6C247.5,112.1,248.2,112.7,249,112.7z"/>
	<path class="st2" d="M187.9,217.6c0.5,1.1,1.3,2.1,1.9,3.1c2.2,3.5,4.4,7,6.6,10.4c0.1,0.1,0.2,0.3,0.2,0.5
		c-7.5,4.9-15.5,8.9-23.9,12.1c-7.7,2.9-15.6,5-23.7,6.4c-9.1,1.5-18.3,2-27.5,1.5c-9.5-0.6-18.9-2.2-28.1-4.9
		c-12.1-3.6-23.4-8.9-33.9-15.9c-14.7-9.8-26.7-22.2-36.1-37.2c-6.7-10.7-11.6-22.1-14.9-34.2c-1.3-5-2.3-10.1-3.1-15.2
		c0-0.1,0-0.3,0-0.4c2-0.3,3.9-0.5,5.9-0.8c3.3-0.5,6.6-1,10-1.5c0.2,0,0.4-0.1,0.7-0.1c0.3,2,0.6,4,1,6
		c2.3,11.9,6.3,23.1,12.3,33.5c8.5,14.8,19.9,27,34.2,36.4c9,5.9,18.7,10.4,29,13.5c8.7,2.5,17.5,4,26.5,4.3
		c5.9,0.2,11.8-0.1,17.7-0.9c7.7-1,15.2-2.9,22.6-5.5c7.7-2.8,15-6.4,21.8-10.8C187.4,217.7,187.6,217.5,187.9,217.6z M42.8,201
		c0.1,0.3-0.1,0.5-0.1,0.7c-1,2.5-2,5-2.9,7.6c-0.6,1.6-0.6,1.6,0.6,2.9c0.2,0.2,0.4,0.3,0.7,0.1c3.6-2.4,7.2-4.7,10.9-7
		c0.3-0.2,0.3-0.4,0.1-0.6c-0.3-0.3-0.6-0.7-0.9-1c-0.3-0.4-0.6-0.5-1.1-0.2c-2.1,1.4-4.3,2.8-6.5,4.2c-0.2,0.1-0.4,0.3-0.7,0.3
		c0.1-0.3,0.1-0.4,0.2-0.6c1-2.5,1.9-4.9,2.9-7.4c0.7-1.7,0.7-1.7-0.6-3c0,0,0,0,0-0.1c-0.2-0.3-0.4-0.3-0.6-0.1
		c-3.6,2.4-7.2,4.7-10.9,7.1c-0.3,0.2-0.4,0.3-0.1,0.6c0.3,0.4,0.7,0.7,1,1.1c0.3,0.4,0.5,0.4,0.9,0.1c1.8-1.2,3.7-2.4,5.6-3.6
		C41.7,201.7,42.2,201.4,42.8,201z M98.9,243.8c0,1,0.6,2.2,1.9,3.1c2.8,1.8,6.8,0.8,8.3-2.2c1.6-3.2-0.1-6.8-3.4-7.3
		C102.1,236.8,99,239.5,98.9,243.8z M118.1,240.2c0.1-0.9,0.1-0.9-0.8-1c-0.3,0-0.6,0-0.9,0c-0.4-0.1-0.6,0.1-0.7,0.5
		c-0.5,2.6-1,5.2-1.5,7.8c-0.4,1.7-0.4,1.7,1.4,1.8c0.6,0,0.8-0.1,0.9-0.7c0.3-1.7,0.6-3.4,1.1-5c0.3-0.9,0.8-1.6,1.7-1.9
		c1.3-0.5,2.2,0.3,2,1.6c-0.3,1.5-0.6,3-0.9,4.5c-0.4,2.1-0.4,2.1,1.7,2c0.3,0,0.4-0.1,0.5-0.4c0.4-2.1,0.8-4.3,1.2-6.4
		c0.2-1.2,0-2.3-1.1-3.1c-1.1-0.8-2.3-0.7-3.4-0.2C118.9,239.7,118.5,240,118.1,240.2z M47.1,217.5c0,0.9,0.3,1.7,0.9,2.5
		c1.8,2.1,4.1,2.4,6.4,0.8c1.3-0.9,2.5-2.1,3.7-3.1c0.5-0.4,1.4-0.8,1.3-1.3c-0.1-0.5-0.9-0.9-1.3-1.3c-0.2-0.2-0.4-0.2-0.7,0
		c-0.6,0.6-1.3,1.2-2,1.7c-1,0.8-1.8,1.7-2.9,2.3c-0.9,0.5-1.9,0.3-2.5-0.6c-0.5-0.7-0.4-1.5,0.4-2.3c1-0.9,2.1-1.8,3.1-2.8
		c0.5-0.4,1.3-0.8,1.2-1.3c-0.1-0.5-0.8-0.9-1.3-1.3c0,0-0.1-0.1-0.1-0.1c-0.2-0.2-0.3-0.2-0.6,0c-1.5,1.4-3.1,2.6-4.5,4.1
		C47.5,215.7,47.1,216.5,47.1,217.5z M68.5,218.2c0-0.2-0.1-0.2-0.2-0.3c-0.4-0.3-0.8-0.5-1.1-0.8c-0.4-0.3-0.7-0.3-1,0.1
		c-0.6,0.7-1.2,1.3-1.8,2c-0.2,0.2-0.3,0.4-0.6,0.1c-0.6-0.6-1-0.3-1.4,0.2c-0.1,0.2-0.3,0.4-0.5,0.5c-0.4,0.3-0.3,0.6,0.1,0.8
		c0.5,0.2,0.4,0.5,0.1,0.8c-1.3,1.3-2.5,2.6-3.7,4c-0.4,0.5-1.2,0.9-1.2,1.4c0,0.5,0.9,0.8,1.4,1.2c0.4,0.3,0.6,0.2,0.9-0.1
		c1.5-1.7,3.1-3.3,4.6-5c0.3-0.4,0.5-0.4,0.9-0.1c0.8,0.6,0.8,0.6,1.4-0.2c0,0,0.1-0.1,0.1-0.1c0.7-0.8,0.7-0.8-0.1-1.4
		c-0.4-0.3-0.3-0.4-0.1-0.7c0.6-0.6,1.2-1.3,1.8-2C68.3,218.4,68.4,218.3,68.5,218.2z M89.7,233.5c0.1-0.3-0.1-0.3-0.2-0.4
		c-0.2-0.1-0.4-0.2-0.6-0.2c-0.4-0.1-0.5-0.3-0.3-0.7c0.4-0.7,0.8-1.5,1.3-2.2c0.3-0.5,0.2-0.7-0.3-0.9c-0.4-0.1-0.8-0.3-1.1-0.4
		c-0.4-0.2-0.6-0.1-0.8,0.3c-0.4,0.8-0.9,1.6-1.3,2.4c-0.2,0.3-0.3,0.4-0.6,0.3c-0.6-0.4-0.9-0.2-1.2,0.4c-0.1,0.2-0.2,0.4-0.4,0.6
		c-0.3,0.4-0.2,0.7,0.3,0.8c0.5,0.1,0.5,0.3,0.3,0.7c-0.9,1.6-1.8,3.2-2.7,4.8c-0.3,0.5-0.9,1.2-0.8,1.6c0.2,0.5,1.1,0.5,1.6,0.8
		c0.4,0.2,0.6,0.1,0.9-0.3c1.1-2,2.2-3.9,3.2-5.9c0.3-0.5,0.5-0.7,1.1-0.4c0.2,0.1,0.6,0.4,0.8,0.2C89.2,234.6,89.5,234,89.7,233.5z
		 M72,225.9c0.4-0.9,0.4-0.9-0.5-1.4c-0.1-0.1-0.3-0.1-0.4-0.2c-0.4-0.3-0.6-0.2-0.9,0.2c-1.6,2-3.1,4.1-4.7,6.1
		c-0.4,0.5-1.1,1-1,1.5c0.1,0.4,1,0.7,1.5,1c0.3,0.2,0.6,0.2,0.8-0.1c0.8-1.1,1.6-2.1,2.5-3.2c0.5-0.6,1-1.2,1.6-1.6
		c0.5-0.4,1.1-0.8,1.7-0.4c0.6,0.4,0.9,0.1,1.2-0.2c0.2-0.1,0.3-0.2,0.5-0.4c0.2-0.2,0.7-0.3,0.6-0.7c-0.1-0.4-0.5-0.5-0.9-0.6
		c-0.3-0.1-0.5-0.1-0.8-0.1C72.8,225.7,72.4,225.8,72,225.9z M96.4,235.4c0-0.3-0.2-0.2-0.3-0.3c-0.5-0.2-1-0.3-1.5-0.5
		c-0.4-0.2-0.6,0-0.8,0.4c-1.1,2.4-2.2,4.7-3.2,7.1c-0.3,0.6-0.9,1.2-0.6,1.7c0.2,0.4,1.1,0.4,1.7,0.6c0.4,0.1,0.6,0,0.8-0.4
		c1.3-2.8,2.5-5.5,3.8-8.3C96.3,235.7,96.3,235.5,96.4,235.4z M79,228.5c-0.2,0-0.3,0.2-0.4,0.3c-1.7,2.6-3.4,5.2-5.2,7.8
		c-0.2,0.3-0.2,0.4,0.1,0.6c0.5,0.2,1,0.5,1.5,0.7c0.2,0.1,0.4,0.1,0.6-0.1c1.7-2.6,3.5-5.3,5.2-7.9c0.1-0.1,0.3-0.3,0.1-0.4
		C80.3,229.1,79.7,228.8,79,228.5z M81.5,228.3c0.9,0,1.5-0.7,1.5-1.5c0-0.8-0.7-1.5-1.5-1.5c-0.9,0-1.6,0.7-1.6,1.6
		C79.9,227.7,80.6,228.4,81.5,228.3z M94.8,232.5c0,0.9,0.7,1.5,1.5,1.5c0.8,0,1.5-0.7,1.6-1.5c0-0.9-0.7-1.6-1.6-1.6
		C95.5,231,94.8,231.7,94.8,232.5z"/>
	<path d="M187.9,217.6c-0.3-0.1-0.5,0.1-0.7,0.2c-6.9,4.4-14.1,8-21.8,10.8c-7.3,2.6-14.8,4.5-22.6,5.5c-5.9,0.8-11.8,1.1-17.7,0.9
		c-9-0.3-17.9-1.7-26.5-4.3c-10.4-3-20-7.5-29-13.5c-14.3-9.4-25.7-21.6-34.2-36.4c-6-10.5-10.1-21.7-12.3-33.5c-0.4-2-0.7-4-1-6
		c-0.2-2.1-0.4-4.2-0.6-6.3c-0.3-4-0.3-8.1-0.2-12.1c0.1-3.2,0.4-6.4,0.9-9.5c0.7-5.3,1.8-10.5,3.3-15.7c4.3-14.5,11.3-27.7,21-39.3
		c10.7-12.7,23.7-22.4,39-29.1c0.2-0.1,0.3-0.2,0.5-0.2c0.8-0.3,1.6-0.7,2.5-1c3.4-1.3,6.8-2.5,10.3-3.5c5.9-1.7,11.9-2.9,18-3.6
		c5.1-0.6,10.2-0.8,15.3-0.6c10,0.3,19.8,1.9,29.4,5c5.1,1.6,10,3.6,14.7,5.9c0.1,0.1,0.2,0.1,0.4,0.1c2.5,1.4,5,2.7,7.5,4.1
		c12.5,7.5,23,17,31.6,28.8c8.5,11.6,14.3,24.4,17.7,38.3c2.2,9.2,3.2,18.4,3,27.9c-0.3,12.7-2.8,25-7.5,36.9
		c-3.3,8.4-7.6,16.3-12.9,23.6c-7.6,10.6-16.9,19.5-27.8,26.7C188,217.6,187.9,217.6,187.9,217.6z M150.9,135.4
		c1.8,0,3.4-0.4,4.8-1.2c0.6-0.3,0.6-0.6,0.1-1c-0.3-0.3-0.5-0.6-0.8-0.9c-0.2-0.3-0.4-0.3-0.7-0.1c-1,0.6-2.2,0.9-3.4,0.9
		c-2.1,0-3.8-1.2-4.3-3c-0.5-1.8,0.2-3.8,1.7-5c1.8-1.4,3.7-1.7,5.8-0.8c0.5,0.2,0.8,0.9,1.3,0.7c0.5-0.2,0.8-0.7,1.2-1.1
		c0,0,0.1-0.1,0.1-0.1c0.4-0.2,0.3-0.4,0-0.7c-2.3-1.9-4.9-2.2-7.6-1.3c-3.7,1.2-6,5-5.3,8.6C144.6,133.4,147.2,135.4,150.9,135.4z
		 M214.7,133.3c-0.6-0.3-1.2-0.6-1.8-0.9c-0.3-0.2-0.5-0.2-0.8,0c-0.6,0.5-1.4,0.7-2.1,0.7c-1.2,0-2-0.6-2.4-1.6
		c-0.2-0.5-0.1-0.7,0.5-0.7c2.3,0,4.6,0,6.9,0c0.5,0,0.6-0.2,0.7-0.6c0.3-2.4-1.3-4.8-3.6-5.3c-3.6-0.8-7,1.8-7,5.5
		c0,2.4,1.1,4.2,3.3,4.8c0.8,0.2,1.7,0.3,2.5,0.2C212.3,135.2,213.6,134.6,214.7,133.3z M137.3,133.3c-0.6-0.3-1.2-0.6-1.7-0.9
		c-0.4-0.2-0.6-0.2-0.9,0c-0.6,0.5-1.4,0.6-2.1,0.6c-1.2,0-1.9-0.6-2.3-1.5c-0.2-0.5-0.1-0.7,0.5-0.7c2.3,0,4.6,0,6.9,0
		c0.4,0,0.6-0.1,0.6-0.5c0.3-2.5-1.3-4.8-3.6-5.4c-3.6-0.8-7,1.8-7,5.5c0,2.5,1.1,4.2,3.3,4.8c0.8,0.2,1.7,0.3,2.5,0.2
		C134.9,135.2,136.3,134.6,137.3,133.3z M67.6,129.7c0-2.4-1.4-4.3-3.6-4.8c-3.5-0.8-7,1.9-7.1,5.4c-0.1,2.2,0.8,3.9,2.6,4.6
		C63.6,136.6,67.7,133.6,67.6,129.7z M46.1,126.8c-0.7-1.7-1.3-3.3-1.9-4.9c-0.1-0.2,0-0.5-0.4-0.5c-0.8,0-1.6,0-2.5,0
		c0.1,0.2,0.1,0.4,0.2,0.5c0.9,2.4,1.9,4.8,2.8,7.2c0.1,0.4,0.2,0.7,0.1,1.1c-0.2,1.5-0.4,2.9-0.6,4.4c-0.1,0.4,0,0.6,0.4,0.5
		c0.5,0,1.1,0,1.6,0c0.4,0,0.5-0.1,0.6-0.5c0.1-1.2,0.3-2.3,0.5-3.5c0.1-0.9,0.4-1.7,0.9-2.5c1.6-2.2,3.2-4.4,4.7-6.6
		c0.1-0.2,0.3-0.3,0.3-0.6c-0.8,0-1.5,0-2.3,0c-0.4,0-0.7,0.1-0.9,0.5C48.4,123.5,47.3,125.1,46.1,126.8z M73.4,130.9
		c-0.2,2.2,0.8,3.9,2.7,4.3c2.7,0.7,5.1-0.4,5.8-3.3c0.5-2.2,0.6-4.4,1-6.6c0.1-0.3-0.1-0.3-0.3-0.3c-0.6,0-1.2,0-1.7,0
		c-0.3,0-0.4,0.1-0.5,0.4c-0.1,0.8-0.2,1.6-0.3,2.5c-0.2,1.3-0.3,2.6-0.7,3.8c-0.2,0.6-0.5,1-1.1,1.3c-1.4,0.5-2.6-0.4-2.4-1.9
		c0.2-1.8,0.4-3.5,0.7-5.3c0.1-0.6,0-0.8-0.6-0.7c-0.5,0.1-0.9,0-1.4,0c-0.3,0-0.4,0-0.4,0.4C73.9,127.2,73.5,129.1,73.4,130.9z
		 M185.7,135.4c1.7,0,3.1-0.5,4.2-1.5c0.7-0.6,0.7-0.6-0.1-1.1c-0.3-0.2-0.7-0.5-1-0.7c-0.2-0.2-0.3-0.2-0.5,0c-1,1-2.2,1.1-3.4,0.8
		c-0.8-0.2-1.4-0.7-1.7-1.5c-0.4-1.2,0.1-2.8,1.2-3.7c1.1-0.9,2.9-1,3.9-0.2c0.7,0.6,1.2,0.5,1.8,0.1c0.1-0.1,0.2-0.1,0.4-0.2
		c0.8-0.4,0.8-0.4,0.2-1.1c-0.3-0.4-0.7-0.7-1.2-1c-2.6-1.4-7.2-0.8-8.5,3.5c-0.7,2.3-0.1,4.5,1.6,5.7
		C183.4,135.2,184.5,135.4,185.7,135.4z M101.5,135.1c0.7,0,1.4,0,2.1,0c1.4,0,1.4,0,1.6-1.3c0-0.2,0-0.4,0.1-0.5
		c0.1-0.3,0-0.5-0.4-0.5c-1.1,0-2.2,0-3.3,0c-0.4,0-0.5-0.1-0.5-0.5c0.2-1.1,0.3-2.1,0.5-3.2c0.3-2.4,0.7-4.8,1-7.2
		c0.1-0.4,0-0.6-0.5-0.6c-0.5,0.1-1.1,0-1.6,0c-0.4,0-0.5,0.1-0.6,0.5c-0.1,1.2-0.3,2.4-0.5,3.7c-0.4,3-0.8,6-1.2,9
		c-0.1,0.4,0,0.6,0.5,0.5C99.6,135.1,100.6,135.1,101.5,135.1z M124,123.4c0.1-0.6,0.1-1.2,0.2-1.8c0-0.2,0-0.4-0.2-0.5
		c-1.5-1.1-3.5-0.4-4.1,1.4c-0.2,0.7-0.3,1.4-0.4,2c0,0.3-0.1,0.5-0.5,0.4c-0.6-0.1-0.8,0.2-0.8,0.7c0,0.3-0.1,0.7-0.1,1
		c-0.1,0.3,0,0.5,0.4,0.4c0.6-0.1,0.6,0.2,0.5,0.6c-0.3,2.1-0.6,4.3-0.9,6.4c-0.1,0.9-0.1,0.9,0.7,0.9c0.4,0,0.8,0,1.1,0
		c0.5,0,0.6-0.1,0.7-0.6c0.3-2.3,0.6-4.6,1-6.9c0-0.2,0.1-0.5,0.4-0.5c0.4,0,0.9,0.2,1.1-0.1c0.2-0.3,0.1-0.8,0.2-1.2
		c0-0.1,0-0.3,0.1-0.4c0.1-0.3,0-0.5-0.4-0.5c-1.2,0-1.2,0-0.9-1.2c0-0.1,0.1-0.2,0.1-0.3c0.1-0.5,0.5-0.6,0.9-0.5
		C123.5,123.2,123.7,123.3,124,123.4z M197.3,135.1c0.2,0,0.5,0,0.7,0c0.4,0,0.5-0.1,0.6-0.5c0.6-4.3,1.1-8.5,1.7-12.7
		c0.1-0.9,0.1-0.9-0.8-0.9c-0.4,0-0.7,0-1.1,0c-0.4-0.1-0.6,0.1-0.6,0.5c-0.5,4.1-1.1,8.3-1.6,12.4
		C196.1,135.1,196.1,135.1,197.3,135.1z M91,126.1c-0.1-1-0.1-1-1.1-1c-0.2,0-0.4,0-0.6,0c-0.4-0.1-0.5,0.1-0.6,0.5
		c-0.4,3-0.8,6.1-1.2,9.1c-0.1,0.4,0,0.6,0.4,0.5c0.5,0,1,0,1.5,0c0.4,0,0.5-0.1,0.5-0.5c0.1-1.2,0.3-2.3,0.4-3.5
		c0.1-1,0.3-1.9,0.7-2.9c0.3-0.6,0.7-1.3,1.4-1.2c0.6,0,0.7-0.3,0.9-0.7c0.1-0.2,0.2-0.4,0.3-0.7c0.1-0.3,0.4-0.6,0.2-0.8
		c-0.2-0.3-0.7-0.2-1-0.1c-0.3,0-0.5,0.2-0.7,0.3C91.6,125.3,91.3,125.7,91,126.1z M173.6,126.1c-0.1-1-0.1-1-1.1-1
		c-0.2,0-0.4,0-0.6,0c-0.4-0.1-0.5,0.1-0.6,0.5c-0.4,3-0.8,6.1-1.2,9.1c-0.1,0.4,0,0.6,0.4,0.5c0.5,0,1,0,1.5,0
		c0.4,0,0.5-0.1,0.5-0.5c0.1-1.2,0.3-2.3,0.4-3.5c0.1-1,0.3-1.9,0.7-2.9c0.3-0.6,0.7-1.3,1.4-1.2c0.6,0,0.7-0.3,0.9-0.7
		c0.1-0.2,0.2-0.4,0.3-0.7c0.1-0.3,0.4-0.6,0.2-0.8c-0.2-0.3-0.7-0.2-1-0.1c-0.3,0-0.5,0.2-0.7,0.3
		C174.2,125.3,173.9,125.7,173.6,126.1z M163,135.1c0.2,0,0.4,0,0.5,0c0.6,0.1,0.9-0.1,0.9-0.8c0-0.8,0.2-1.6,0.3-2.4
		c0.3-2.2,0.6-4.3,0.9-6.5c0.1-0.4,0-0.5-0.4-0.4c-0.5,0-1,0.1-1.5,0c-0.5-0.1-0.6,0.2-0.7,0.6c-0.4,2.7-0.7,5.5-1.1,8.2
		C161.8,135.1,161.8,135.1,163,135.1z M113.6,125c-0.7,0-1.3,0-1.9,0c-0.5,0-0.7,0.2-0.7,0.7c-0.3,2.5-0.6,4.9-1,7.4
		c-0.3,2.2-0.4,2.2,1.9,2.1c0.3,0,0.4-0.1,0.5-0.4C112.7,131.5,113.1,128.3,113.6,125z M166.3,122.4c0-0.9-0.7-1.5-1.5-1.5
		c-0.9,0-1.6,0.7-1.6,1.6c0,0.9,0.7,1.6,1.6,1.5C165.6,124,166.3,123.3,166.3,122.4z M112.6,124c0.9,0,1.5-0.7,1.5-1.5
		c0-0.9-0.7-1.6-1.6-1.6c-0.9,0-1.5,0.7-1.5,1.5C111.1,123.3,111.7,124,112.6,124z"/>
	<path class="st3" d="M46.6,43.7c0,0.1,0,0.2,0,0.3c-0.2,0.6,0.1,0.6,0.5,0.6c1.4-0.1,2.5,0.6,3.3,1.7c1,1.5,1,3.3-0.4,4.8
		c-1.2,1.2-2.5,2.4-3.7,3.5c-0.4,0.4-0.6,0.1-0.8-0.2c-1.1-1.4-2.1-2.9-3.1-4.3c-1.4-2-2.8-3.9-4.2-5.9c-0.1-0.2-0.4-0.4-0.1-0.6
		c0.9-0.9,1.8-1.8,2.9-2.6c2.2-1.5,5.1-0.1,5.5,2.4C46.6,43.5,46.6,43.6,46.6,43.7z M48.5,48.4c0-0.6-0.3-1.1-0.9-1.4
		c-0.9-0.4-2.7,0.3-3.1,1.2c-0.1,0.2,0,0.3,0.1,0.4c0.5,0.7,1.1,1.5,1.6,2.2c0.1,0.2,0.3,0.3,0.5,0.1c0.2-0.2,0.4-0.3,0.6-0.5
		C47.9,49.9,48.5,49.4,48.5,48.4z M44.3,44.4c0-0.7-0.5-1.4-1.1-1.6c-0.5-0.1-1.7,0.5-1.9,0.9c-0.1,0.2,0,0.2,0.1,0.4
		c0.5,0.6,0.9,1.3,1.4,1.9c0.1,0.1,0.1,0.3,0.4,0.2C43.6,46.1,44.3,44.9,44.3,44.4z"/>
	<path class="st3" d="M75.8,31c-0.5,1.6-1.4,2.5-2.9,3c-1.4,0.5-2.6,0.1-3.7-0.7c-2.8-2-3.1-6.3-0.7-8.7c1.1-1.1,2.5-1.6,4-0.9
		c0.1,0,0.1,0,0.3,0c-0.4-0.9-0.7-1.8-1.1-2.7c-0.2-0.6-0.4-1.1-0.7-1.7c-0.2-0.3-0.1-0.5,0.2-0.7c0.4-0.2,0.9-0.4,1.3-0.7
		c0.3-0.2,0.5-0.2,0.7,0.2c1.4,3.4,2.7,6.7,4.1,10.1c0.3,0.7,0.5,1.3,0.8,2c0.2,0.4,0.1,0.6-0.3,0.8c-0.4,0.2-0.7,0.4-1,0.6
		C76.4,32,76.1,32,76,31.4C76,31.3,75.9,31.2,75.8,31z M69.3,28.6c-0.1,0.9,0.3,1.8,0.9,2.4c0.6,0.7,1.4,1,2.4,0.7
		c1.3-0.4,2.1-1.3,2.2-2.7c0.1-1.2-0.3-2.3-1.3-3.1c-0.5-0.4-1.1-0.6-1.7-0.4C70.2,25.8,69.3,26.9,69.3,28.6z"/>
	<path class="st3" d="M63.3,37.2c0,3.3-2.5,6.1-5.2,6.2c-2.2,0-3.6-1.2-4.5-3.1c-1.4-2.9-0.2-6.4,2.7-7.8c1.9-0.9,4.2-0.3,5.5,1.3
		C62.7,35,63.2,36.2,63.3,37.2z M60.8,38c0-1-0.4-1.9-1-2.6c-0.6-0.7-1.8-1-2.7-0.6c-1.6,0.7-2.2,2.4-1.5,4c0.4,1,1,1.8,2.2,2
		C59.5,41.1,61,39.3,60.8,38z"/>
	<path class="st3" d="M88.4,28c-0.8,0.3-1.6,0.7-2.5,1c0-1,0.1-1.9,0.3-2.9c0.1-0.4,0-0.8-0.3-1.2c-1.8-2-3.5-4.1-5.3-6.1
		c-0.2-0.2-0.3-0.4,0.1-0.5c0.3-0.1,0.5-0.2,0.8-0.3c1.2-0.5,1.1-0.4,2,0.5c1,1.2,2.1,2.4,3.1,3.6c0.4-0.5,0.2-1,0.3-1.5
		c0.2-1.6,0.4-3.1,0.6-4.7c0-0.4,0.2-0.6,0.5-0.7c0.6-0.2,1.1-0.5,1.7-0.7c0.3-0.1,0.4,0,0.3,0.2c-0.2,1.9-0.5,3.7-0.7,5.6
		c-0.2,2-0.5,4-0.7,6C88.5,27,88.3,27.5,88.4,28z"/>
	<path class="st3" d="M237.3,96.4c3.2,0.6,6.3,1.2,9.5,1.7c0.6,0.1,0.8,0.3,1,0.9c0.4,1.4,0.4,1.4-1.1,1.9c-3.7,1.1-7.3,2.2-11,3.3
		c-0.5,0.2-0.7,0.1-0.9-0.5c-0.5-1.7-0.5-1.7,1.2-2.2c1.8-0.5,3.6-1.1,5.4-1.6c0.2,0,0.4-0.1,0.5-0.3c-2.7-0.5-5.3-1-8-1.5
		c-0.5-0.1-0.7-0.3-0.9-0.8c-0.3-1.2-0.4-1.2,0.7-1.8c2.1-1.2,4.2-2.4,6.4-3.7c-1,0-1.9,0-2.7,0c-1.8,0-3.7,0.1-5.5,0.2
		c-0.3,0-0.4-0.1-0.5-0.3c-0.2-0.6-0.3-1.2-0.5-1.7c-0.1-0.3,0.1-0.3,0.3-0.3c0.8,0,1.6-0.1,2.3-0.1c2.7-0.1,5.5-0.1,8.2-0.2
		c0.9,0,1.8-0.1,2.7-0.1c0.4,0,0.6,0.1,0.7,0.5c0.1,0.6,0.6,1.2,0.4,1.7c-0.2,0.4-0.9,0.6-1.4,0.9c-2.1,1.2-4.2,2.4-6.3,3.6
		C237.6,96.1,237.4,96.2,237.3,96.4z"/>
	<path class="st3" d="M245.3,143.4c1.6,0.4,3.1,0.8,4.6,1.1c0.4,0.1,0.6,0.3,0.5,0.7c-0.1,0.3-0.1,0.7-0.1,1c-0.1,1-0.1,1-1,0.7
		c-4.1-1-8.1-2-12.2-3c-0.5-0.1-0.7-0.3-0.6-0.8c0.1-0.4,0.1-0.8,0.1-1.2c0-0.5,0.2-0.7,0.6-0.5c0.1,0,0.2,0,0.3,0
		c-0.1-0.1-0.1-0.2-0.1-0.3c-1.5-2.2-0.7-5.8,2.9-6.5c3.3-0.7,6.5,1.7,6.9,5C247.4,141.2,246.8,142.4,245.3,143.4z M244.9,140.2
		c0-1.8-1.4-3.1-3.3-3.2c-1.6-0.1-2.5,0.7-2.7,2.3c-0.2,1.7,1.1,3.1,3,3.4C243.9,142.9,245,141.5,244.9,140.2z"/>
	<path class="st3" d="M246.6,122.2c0.6,0.9,1.2,1.8,1.2,2.9c0,1.7-1.2,3-2.9,3c-1.3,0-2.6-0.2-3.9-0.3c-1-0.1-2-0.2-3-0.3
		c-0.4,0-0.5-0.2-0.5-0.6c0-0.5,0-0.9,0-1.4c0-0.4,0.1-0.5,0.5-0.5c1.6,0.2,3.3,0.3,4.9,0.5c0.4,0,0.9,0.1,1.3,0.1
		c0.9,0,1.4-0.7,1.2-1.6c-0.2-1.1-1-1.8-2.1-2.1c-1.4-0.4-2.8-0.4-4.2-0.6c-0.5,0-1-0.1-1.5-0.1c-0.2,0-0.4-0.1-0.4-0.4
		c0-0.6-0.1-1.2-0.1-1.8c0-0.3,0.1-0.4,0.4-0.4c2.4,0.2,4.7,0.5,7.1,0.7c0.7,0.1,1.4,0.2,2.1,0.2c0.5,0,0.7,0.1,0.7,0.7
		c0,0.3,0,0.7,0,1C247.5,122,247.3,122.3,246.6,122.2C246.6,122.2,246.6,122.2,246.6,122.2C246.6,122.2,246.6,122.2,246.6,122.2z"/>
	<path class="st4" d="M241.7,110c1.2,0,2.6,0,4.1,0c0.4,0,0.6,0.1,0.6,0.5c0,0.4,0.1,0.9,0.2,1.3c0.1,0.5,0,0.6-0.5,0.6
		c-2.4,0-4.9,0.1-7.3,0.1c-0.2,0-0.5,0-0.7,0c-0.5,0-1.2,0.3-1.5-0.1c-0.4-0.6-0.3-1.4-0.4-2.1c0-0.3,0.3-0.2,0.4-0.2
		C238.2,110,239.8,110.1,241.7,110z"/>
	<path class="st4" d="M249,112.7c-0.9,0-1.5-0.6-1.5-1.5c0-0.9,0.6-1.6,1.5-1.6c0.8,0,1.6,0.7,1.6,1.6
		C250.6,112,249.9,112.7,249,112.7z"/>
	<path class="st4" d="M42.8,201c-0.6,0.4-1.1,0.7-1.7,1.1c-1.9,1.2-3.7,2.4-5.6,3.6c-0.4,0.2-0.6,0.3-0.9-0.1
		c-0.3-0.4-0.6-0.8-1-1.1c-0.3-0.3-0.2-0.4,0.1-0.6c3.6-2.3,7.2-4.7,10.9-7.1c0.3-0.2,0.4-0.2,0.6,0.1c0,0,0,0,0,0.1
		c1.2,1.3,1.2,1.3,0.6,3c-1,2.5-1.9,4.9-2.9,7.4c-0.1,0.2-0.1,0.4-0.2,0.6c0.3,0,0.5-0.2,0.7-0.3c2.2-1.4,4.3-2.8,6.5-4.2
		c0.5-0.3,0.8-0.3,1.1,0.2c0.3,0.4,0.6,0.7,0.9,1c0.2,0.2,0.3,0.4-0.1,0.6c-3.6,2.3-7.3,4.7-10.9,7c-0.3,0.2-0.4,0.1-0.7-0.1
		c-1.2-1.3-1.2-1.3-0.6-2.9c1-2.5,2-5,2.9-7.6C42.7,201.5,42.9,201.3,42.8,201z"/>
	<path class="st4" d="M98.9,243.8c0-4.3,3.1-7,6.8-6.4c3.3,0.5,5,4.1,3.4,7.3c-1.5,3-5.5,4.1-8.3,2.2
		C99.5,246,98.9,244.7,98.9,243.8z M104.1,245.4c1.6,0,2.9-1.2,3.1-3c0.2-1.3-0.5-2.3-1.7-2.7c-1.7-0.5-3.2,0.4-3.9,2.2
		C101,243.9,102,245.4,104.1,245.4z"/>
	<path class="st4" d="M118.1,240.2c0.4-0.2,0.8-0.5,1.2-0.6c1.2-0.5,2.4-0.5,3.4,0.2c1.1,0.8,1.3,1.9,1.1,3.1
		c-0.4,2.1-0.8,4.3-1.2,6.4c-0.1,0.3-0.2,0.4-0.5,0.4c-2.1,0.1-2.1,0.1-1.7-2c0.3-1.5,0.6-3,0.9-4.5c0.2-1.4-0.7-2.1-2-1.6
		c-0.9,0.3-1.4,1-1.7,1.9c-0.5,1.6-0.8,3.3-1.1,5c-0.1,0.6-0.3,0.8-0.9,0.7c-1.8-0.1-1.7-0.1-1.4-1.8c0.5-2.6,1-5.2,1.5-7.8
		c0.1-0.5,0.3-0.6,0.7-0.5c0.3,0,0.6,0,0.9,0C118.2,239.3,118.2,239.3,118.1,240.2z"/>
	<path class="st4" d="M47.1,217.5c0-1,0.4-1.9,1.1-2.6c1.4-1.5,3-2.7,4.5-4.1c0.2-0.2,0.4-0.2,0.6,0c0,0,0.1,0.1,0.1,0.1
		c0.5,0.4,1.2,0.8,1.3,1.3c0.1,0.5-0.8,0.9-1.2,1.3c-1,0.9-2.1,1.8-3.1,2.8c-0.8,0.7-0.9,1.5-0.4,2.3c0.6,0.9,1.6,1.1,2.5,0.6
		c1.1-0.6,2-1.5,2.9-2.3c0.7-0.6,1.3-1.1,2-1.7c0.3-0.2,0.4-0.2,0.7,0c0.5,0.5,1.3,0.8,1.3,1.3c0.1,0.5-0.8,0.9-1.3,1.3
		c-1.2,1.1-2.4,2.2-3.7,3.1c-2.2,1.6-4.6,1.3-6.4-0.8C47.4,219.3,47.1,218.5,47.1,217.5z"/>
	<path class="st4" d="M68.5,218.2c-0.1,0.1-0.2,0.2-0.3,0.3c-0.6,0.7-1.2,1.3-1.8,2c-0.3,0.3-0.3,0.5,0.1,0.7
		c0.9,0.6,0.8,0.6,0.1,1.4c0,0-0.1,0.1-0.1,0.1c-0.7,0.7-0.7,0.7-1.4,0.2c-0.4-0.3-0.6-0.3-0.9,0.1c-1.5,1.7-3.1,3.3-4.6,5
		c-0.3,0.3-0.5,0.5-0.9,0.1c-0.5-0.4-1.4-0.6-1.4-1.2c0-0.4,0.7-0.9,1.2-1.4c1.2-1.3,2.5-2.7,3.7-4c0.3-0.4,0.4-0.6-0.1-0.8
		c-0.4-0.2-0.5-0.4-0.1-0.8c0.2-0.1,0.3-0.3,0.5-0.5c0.4-0.5,0.8-0.8,1.4-0.2c0.2,0.3,0.4,0.1,0.6-0.1c0.6-0.7,1.3-1.3,1.8-2
		c0.4-0.4,0.6-0.4,1-0.1c0.4,0.3,0.8,0.5,1.1,0.8C68.3,218,68.5,218,68.5,218.2z"/>
	<path class="st4" d="M89.7,233.5c-0.3,0.5-0.5,1.1-0.9,1.5c-0.2,0.2-0.6,0-0.8-0.2c-0.5-0.3-0.8-0.1-1.1,0.4
		c-1.1,2-2.2,3.9-3.2,5.9c-0.2,0.4-0.5,0.5-0.9,0.3c-0.5-0.3-1.4-0.3-1.6-0.8c-0.1-0.4,0.5-1,0.8-1.6c0.9-1.6,1.8-3.2,2.7-4.8
		c0.2-0.4,0.2-0.6-0.3-0.7c-0.5-0.1-0.6-0.4-0.3-0.8c0.1-0.2,0.3-0.4,0.4-0.6c0.2-0.6,0.6-0.8,1.2-0.4c0.3,0.2,0.5,0,0.6-0.3
		c0.4-0.8,0.9-1.6,1.3-2.4c0.2-0.4,0.4-0.5,0.8-0.3c0.4,0.2,0.7,0.3,1.1,0.4c0.5,0.2,0.7,0.3,0.3,0.9c-0.5,0.7-0.8,1.5-1.3,2.2
		c-0.2,0.4-0.2,0.6,0.3,0.7c0.2,0.1,0.4,0.2,0.6,0.2C89.7,233.2,89.8,233.3,89.7,233.5z"/>
	<path class="st4" d="M72,225.9c0.4-0.1,0.8-0.2,1.2-0.3c0.3,0,0.5,0,0.8,0.1c0.4,0.1,0.8,0.2,0.9,0.6c0.1,0.4-0.4,0.5-0.6,0.7
		c-0.1,0.1-0.3,0.2-0.5,0.4c-0.4,0.3-0.7,0.6-1.2,0.2c-0.6-0.4-1.2,0-1.7,0.4c-0.6,0.5-1.1,1-1.6,1.6c-0.8,1.1-1.7,2.1-2.5,3.2
		c-0.3,0.3-0.5,0.4-0.8,0.1c-0.5-0.3-1.4-0.6-1.5-1c-0.2-0.5,0.6-1,1-1.5c1.6-2,3.2-4.1,4.7-6.1c0.3-0.4,0.5-0.5,0.9-0.2
		c0.1,0.1,0.3,0.2,0.4,0.2C72.4,225,72.4,225,72,225.9z"/>
	<path class="st4" d="M96.4,235.4c-0.1,0.1-0.1,0.2-0.2,0.4c-1.3,2.8-2.5,5.5-3.8,8.3c-0.2,0.4-0.4,0.5-0.8,0.4
		c-0.6-0.2-1.5-0.2-1.7-0.6c-0.3-0.4,0.4-1.1,0.6-1.7c1.1-2.4,2.2-4.7,3.2-7.1c0.2-0.4,0.4-0.5,0.8-0.4c0.5,0.2,1,0.3,1.5,0.5
		C96.2,235.2,96.4,235.2,96.4,235.4z"/>
	<path class="st4" d="M79,228.5c0.6,0.3,1.3,0.6,1.9,1c0.2,0.1,0,0.3-0.1,0.4c-1.7,2.6-3.5,5.3-5.2,7.9c-0.2,0.2-0.3,0.3-0.6,0.1
		c-0.5-0.3-1-0.5-1.5-0.7c-0.4-0.2-0.3-0.3-0.1-0.6c1.7-2.6,3.4-5.2,5.2-7.8C78.8,228.7,78.8,228.5,79,228.5z"/>
	<path class="st4" d="M81.5,228.3c-0.9,0-1.5-0.6-1.6-1.5c0-0.9,0.7-1.6,1.6-1.6c0.8,0,1.5,0.7,1.5,1.5
		C83,227.6,82.3,228.3,81.5,228.3z"/>
	<path class="st4" d="M94.8,232.5c0-0.9,0.7-1.6,1.5-1.6c0.9,0,1.6,0.7,1.6,1.6c0,0.8-0.7,1.5-1.6,1.5
		C95.5,234.1,94.8,233.4,94.8,232.5z"/>
	<path class="st4" d="M150.9,135.4c-3.7,0-6.3-1.9-6.9-5.2c-0.7-3.7,1.5-7.4,5.3-8.6c2.8-0.9,5.3-0.5,7.6,1.3c0.3,0.3,0.4,0.5,0,0.7
		c-0.1,0-0.1,0.1-0.1,0.1c-0.4,0.4-0.8,0.9-1.2,1.1c-0.5,0.2-0.8-0.5-1.3-0.7c-2.1-1-4.1-0.6-5.8,0.8c-1.6,1.2-2.2,3.2-1.7,5
		c0.5,1.8,2.2,3,4.3,3c1.2,0,2.4-0.2,3.4-0.9c0.3-0.2,0.5-0.1,0.7,0.1c0.2,0.3,0.5,0.7,0.8,0.9c0.5,0.4,0.4,0.7-0.1,1
		C154.3,135,152.7,135.4,150.9,135.4z"/>
	<path class="st4" d="M214.7,133.3c-1,1.3-2.3,1.9-3.9,2.1c-0.8,0.1-1.7,0.1-2.5-0.2c-2.1-0.6-3.3-2.3-3.3-4.8
		c0.1-3.7,3.5-6.3,7-5.5c2.3,0.5,3.9,2.9,3.6,5.3c-0.1,0.5-0.2,0.6-0.7,0.6c-2.3,0-4.6,0-6.9,0c-0.6,0-0.6,0.2-0.5,0.7
		c0.3,1,1.1,1.6,2.4,1.6c0.8,0,1.5-0.2,2.1-0.7c0.3-0.2,0.5-0.2,0.8,0C213.4,132.7,214,133,214.7,133.3z M213,129.1
		c-0.3-1.3-1.2-2-2.4-2c-1.1,0-2.3,0.8-2.7,1.7c-0.1,0.3,0,0.3,0.2,0.3C209.8,129.1,211.4,129.1,213,129.1z"/>
	<path class="st4" d="M137.3,133.3c-1,1.3-2.3,1.9-3.9,2.1c-0.8,0.1-1.7,0.1-2.5-0.2c-2.1-0.6-3.3-2.3-3.3-4.8
		c0.1-3.7,3.5-6.3,7-5.5c2.3,0.5,3.9,2.9,3.6,5.4c-0.1,0.4-0.2,0.5-0.6,0.5c-2.3,0-4.6,0-6.9,0c-0.6,0-0.7,0.2-0.5,0.7
		c0.3,1,1.1,1.5,2.3,1.5c0.8,0,1.5-0.2,2.1-0.6c0.3-0.3,0.6-0.3,0.9,0C136.1,132.7,136.7,133,137.3,133.3z M135.6,129.1
		c-0.4-1.3-1.3-2-2.5-2c-1.2,0.1-2.3,0.9-2.5,2C132.2,129.1,133.9,129.1,135.6,129.1z"/>
	<path class="st4" d="M67.6,129.7c0.1,3.9-4,6.8-8,5.3c-1.8-0.7-2.7-2.4-2.6-4.6c0.1-3.6,3.6-6.3,7.1-5.4
		C66.2,125.4,67.6,127.3,67.6,129.7z M65.1,129.7c0-1.7-1.3-2.8-3-2.5c-1.6,0.3-2.6,1.7-2.6,3.6c0,1.6,1.2,2.6,2.7,2.4
		C63.9,132.9,65,131.6,65.1,129.7z"/>
	<path class="st4" d="M46.1,126.8c1.2-1.7,2.4-3.3,3.5-5c0.2-0.4,0.5-0.5,0.9-0.5c0.8,0,1.5,0,2.3,0c0,0.3-0.2,0.4-0.3,0.6
		c-1.6,2.2-3.1,4.4-4.7,6.6c-0.6,0.8-0.8,1.6-0.9,2.5c-0.1,1.2-0.3,2.3-0.5,3.5c0,0.4-0.2,0.5-0.6,0.5c-0.5,0-1.1,0-1.6,0
		c-0.5,0-0.5-0.1-0.4-0.5c0.2-1.5,0.4-2.9,0.6-4.4c0.1-0.4,0-0.7-0.1-1.1c-0.9-2.4-1.9-4.8-2.8-7.2c0-0.1-0.1-0.2-0.2-0.5
		c0.9,0,1.7,0,2.5,0c0.3,0,0.3,0.3,0.4,0.5C44.8,123.5,45.4,125.1,46.1,126.8z"/>
	<path class="st4" d="M73.4,130.9c0.1-1.9,0.5-3.7,0.7-5.5c0-0.3,0.2-0.4,0.4-0.4c0.5,0,0.9,0,1.4,0c0.6-0.1,0.7,0.1,0.6,0.7
		c-0.3,1.8-0.5,3.5-0.7,5.3c-0.2,1.5,1,2.4,2.4,1.9c0.6-0.2,0.9-0.7,1.1-1.3c0.4-1.2,0.5-2.5,0.7-3.8c0.1-0.8,0.2-1.6,0.3-2.5
		c0-0.3,0.1-0.4,0.5-0.4c0.6,0,1.2,0,1.7,0c0.2,0,0.4,0,0.3,0.3c-0.4,2.2-0.5,4.4-1,6.6c-0.7,2.9-3.2,4-5.8,3.3
		C74.2,134.8,73.3,133.1,73.4,130.9z"/>
	<path class="st4" d="M185.7,135.4c-1.2,0-2.3-0.2-3.2-0.9c-1.7-1.2-2.3-3.4-1.6-5.7c1.3-4.2,5.9-4.8,8.5-3.5c0.5,0.2,0.9,0.6,1.2,1
		c0.6,0.7,0.6,0.7-0.2,1.1c-0.1,0.1-0.2,0.1-0.4,0.2c-0.6,0.4-1.1,0.6-1.8-0.1c-1-0.9-2.8-0.7-3.9,0.2c-1.1,0.8-1.6,2.4-1.2,3.7
		c0.3,0.8,0.8,1.3,1.7,1.5c1.3,0.3,2.5,0.1,3.4-0.8c0.2-0.2,0.3-0.2,0.5,0c0.3,0.3,0.7,0.5,1,0.7c0.8,0.5,0.8,0.5,0.1,1.1
		C188.7,134.9,187.3,135.4,185.7,135.4z"/>
	<path class="st4" d="M101.5,135.1c-1,0-1.9,0-2.9,0c-0.5,0-0.5-0.2-0.5-0.5c0.4-3,0.8-6,1.2-9c0.2-1.2,0.3-2.4,0.5-3.7
		c0-0.4,0.2-0.5,0.6-0.5c0.5,0,1.1,0.1,1.6,0c0.5,0,0.5,0.2,0.5,0.6c-0.3,2.4-0.7,4.8-1,7.2c-0.1,1.1-0.3,2.1-0.5,3.2
		c-0.1,0.4,0,0.5,0.5,0.5c1.1,0,2.2,0,3.3,0c0.4,0,0.5,0.1,0.4,0.5c0,0.2-0.1,0.4-0.1,0.5c-0.2,1.3-0.2,1.3-1.6,1.3
		C102.9,135.1,102.2,135.1,101.5,135.1z"/>
	<path class="st4" d="M124,123.4c-0.3-0.1-0.6-0.3-0.8-0.4c-0.4-0.1-0.7,0-0.9,0.5c0,0.1-0.1,0.2-0.1,0.3c-0.3,1.2-0.3,1.2,0.9,1.2
		c0.4,0,0.4,0.2,0.4,0.5c0,0.1-0.1,0.3-0.1,0.4c-0.1,0.4,0,0.9-0.2,1.2c-0.2,0.3-0.7,0.1-1.1,0.1c-0.4,0-0.4,0.2-0.4,0.5
		c-0.3,2.3-0.7,4.6-1,6.9c-0.1,0.5-0.2,0.6-0.7,0.6c-0.4,0-0.8,0-1.1,0c-0.9,0-0.8,0-0.7-0.9c0.3-2.1,0.6-4.3,0.9-6.4
		c0.1-0.5,0-0.7-0.5-0.6c-0.4,0.1-0.5-0.1-0.4-0.4c0.1-0.3,0.1-0.7,0.1-1c0-0.6,0.2-0.9,0.8-0.7c0.3,0.1,0.4-0.1,0.5-0.4
		c0.1-0.7,0.2-1.4,0.4-2c0.5-1.8,2.5-2.5,4.1-1.4c0.2,0.1,0.3,0.3,0.2,0.5C124.2,122.3,124.1,122.8,124,123.4z"/>
	<path class="st4" d="M197.3,135.1c-1.2,0-1.2,0-1.1-1.2c0.5-4.1,1.1-8.3,1.6-12.4c0.1-0.4,0.2-0.6,0.6-0.5c0.4,0,0.7,0,1.1,0
		c0.9,0,0.9,0,0.8,0.9c-0.6,4.2-1.2,8.5-1.7,12.7c-0.1,0.4-0.2,0.5-0.6,0.5C197.8,135.1,197.6,135.1,197.3,135.1z"/>
	<path class="st4" d="M91,126.1c0.3-0.4,0.6-0.8,1-1c0.2-0.1,0.5-0.2,0.7-0.3c0.3-0.1,0.8-0.2,1,0.1c0.2,0.3-0.1,0.5-0.2,0.8
		c-0.1,0.2-0.2,0.5-0.3,0.7c-0.2,0.4-0.2,0.7-0.9,0.7c-0.7,0-1.1,0.6-1.4,1.2c-0.4,0.9-0.5,1.9-0.7,2.9c-0.2,1.1-0.3,2.3-0.4,3.5
		c0,0.4-0.2,0.5-0.5,0.5c-0.5,0-1,0-1.5,0c-0.5,0-0.5-0.2-0.4-0.5c0.4-3,0.8-6.1,1.2-9.1c0.1-0.4,0.2-0.5,0.6-0.5c0.2,0,0.4,0,0.6,0
		C90.9,125,90.9,125,91,126.1z"/>
	<path class="st4" d="M173.6,126.1c0.3-0.4,0.6-0.8,1-1c0.2-0.1,0.5-0.2,0.7-0.3c0.3-0.1,0.8-0.2,1,0.1c0.2,0.3-0.1,0.5-0.2,0.8
		c-0.1,0.2-0.2,0.5-0.3,0.7c-0.2,0.4-0.2,0.7-0.9,0.7c-0.7,0-1.1,0.6-1.4,1.2c-0.4,0.9-0.5,1.9-0.7,2.9c-0.2,1.1-0.3,2.3-0.4,3.5
		c0,0.4-0.2,0.5-0.5,0.5c-0.5,0-1,0-1.5,0c-0.5,0-0.5-0.2-0.4-0.5c0.4-3,0.8-6.1,1.2-9.1c0.1-0.4,0.2-0.5,0.6-0.5c0.2,0,0.4,0,0.6,0
		C173.5,125,173.5,125,173.6,126.1z"/>
	<path class="st4" d="M163,135.1c-1.2,0-1.2,0-1.1-1.3c0.4-2.7,0.8-5.5,1.1-8.2c0.1-0.4,0.2-0.7,0.7-0.6c0.5,0.1,1,0,1.5,0
		c0.4,0,0.4,0.1,0.4,0.4c-0.3,2.2-0.6,4.3-0.9,6.5c-0.1,0.8-0.3,1.6-0.3,2.4c0,0.6-0.3,0.9-0.9,0.8
		C163.4,135.1,163.2,135.1,163,135.1z"/>
	<path class="st4" d="M113.6,125c-0.4,3.3-0.9,6.5-1.3,9.7c0,0.3-0.1,0.4-0.5,0.4c-2.2,0.1-2.2,0.1-1.9-2.1c0.4-2.4,0.7-4.9,1-7.4
		c0.1-0.5,0.2-0.7,0.7-0.7C112.3,125.1,112.9,125,113.6,125z"/>
	<path class="st4" d="M166.3,122.4c0,0.9-0.6,1.5-1.5,1.6c-0.9,0-1.6-0.6-1.6-1.5c0-0.9,0.7-1.6,1.6-1.6
		C165.6,120.9,166.3,121.6,166.3,122.4z"/>
	<path class="st4" d="M112.6,124c-0.9,0-1.6-0.7-1.6-1.6c0-0.9,0.7-1.5,1.5-1.5c0.9,0,1.6,0.7,1.6,1.6
		C114.2,123.3,113.5,124,112.6,124z"/>
	<path class="st0" d="M48.5,48.4c0,1-0.6,1.4-1.2,2c-0.2,0.2-0.4,0.3-0.6,0.5c-0.2,0.2-0.3,0.1-0.5-0.1c-0.5-0.7-1.1-1.5-1.6-2.2
		c-0.1-0.1-0.2-0.2-0.1-0.4c0.3-0.9,2.1-1.6,3.1-1.2C48.2,47.3,48.5,47.8,48.5,48.4z"/>
	<path class="st0" d="M44.3,44.4c0,0.5-0.8,1.7-1.2,1.8c-0.2,0.1-0.3-0.1-0.4-0.2c-0.5-0.6-0.9-1.3-1.4-1.9
		c-0.1-0.1-0.2-0.2-0.1-0.4c0.2-0.5,1.4-1,1.9-0.9C43.8,43,44.3,43.7,44.3,44.4z"/>
	<path class="st0" d="M69.3,28.6c0-1.7,0.9-2.8,2.5-3.1c0.6-0.1,1.2,0.1,1.7,0.4c1,0.8,1.4,1.9,1.3,3.1c-0.1,1.4-0.9,2.2-2.2,2.7
		c-0.9,0.3-1.8,0-2.4-0.7C69.6,30.3,69.2,29.5,69.3,28.6z"/>
	<path class="st0" d="M60.8,38c0.2,1.3-1.4,3.1-3,2.9c-1.2-0.2-1.8-1-2.2-2c-0.7-1.6-0.1-3.3,1.5-4c0.9-0.4,2.1-0.2,2.7,0.6
		C60.5,36.1,60.9,37,60.8,38z"/>
	<path class="st1" d="M244.9,140.2c0.1,1.4-1,2.8-2.9,2.5c-1.9-0.3-3.2-1.7-3-3.4c0.2-1.6,1.1-2.4,2.7-2.3
		C243.5,137.1,244.9,138.4,244.9,140.2z"/>
	<path class="st1" d="M246.6,122.2C246.6,122.2,246.6,122.2,246.6,122.2C246.6,122.2,246.6,122.2,246.6,122.2
		C246.6,122.2,246.6,122.2,246.6,122.2z"/>
	<path class="st2" d="M104.1,245.4c-2.1,0-3.1-1.6-2.4-3.5c0.6-1.8,2.2-2.7,3.9-2.2c1.2,0.4,1.9,1.4,1.7,2.7
		C106.9,244.2,105.7,245.4,104.1,245.4z"/>
	<path d="M213,129.1c-1.6,0-3.2,0-4.8,0c-0.2,0-0.3,0-0.2-0.3c0.3-0.9,1.6-1.7,2.7-1.7C211.8,127.1,212.7,127.8,213,129.1z"/>
	<path d="M135.6,129.1c-1.7,0-3.4,0-5.1,0c0.2-1.1,1.3-1.9,2.5-2C134.3,127,135.3,127.7,135.6,129.1z"/>
	<path d="M65.1,129.7c0,1.9-1.1,3.2-2.8,3.4c-1.6,0.2-2.7-0.8-2.7-2.4c0-1.8,1-3.3,2.6-3.6C63.8,126.8,65.1,127.9,65.1,129.7z"/>
</g>
</svg>
