<?xml version="1.0" encoding="utf-8"?>
<!-- Generator: Adobe Illustrator 22.0.1, SVG Export Plug-In . SVG Version: 6.00 Build 0)  -->
<svg version="1.1" baseProfile="tiny" id="Laag_1" xmlns="http://www.w3.org/2000/svg" xmlns:xlink="http://www.w3.org/1999/xlink"
	 x="0px" y="0px" viewBox="0 0 256 256" xml:space="preserve">
<g>
	<path fill="#CBCACA" d="M81,253.3c-8.3-6.6-9.2-9.5-5.1-19.2c4.1-9.6,8.2-19.1,12.7-28.5c1.2-2.5,0.7-3.3-1.3-4.6
		c-16.7-10.3-29.7-24-39.1-41.1c-2.7-5-5-10.3-6.8-15.7c-0.5-1.6-2.3-3.7,1.3-4.4c2.5-0.5,5.1-2.1,6.4,1.8
		c2.4,7.3,5.8,14.1,9.9,20.6c11.9,18.6,28.1,32.3,48.9,40.1c36.4,13.6,70.5,8.3,100.8-15.4c20-15.6,32.4-36.5,35.9-61.9
		c4.7-35.3-6.1-65.4-32.9-89c-16.9-14.8-37.1-22.9-60-24.4c-18.1-1.1-35.1,2-51.1,9.8c-24.6,11.9-41.8,30.7-51,56.3
		c-0.7,1.9-0.3,4.9-4.1,4.1c-5-1-5.4-1.5-3.4-6.8c13.6-35.5,39.2-58,76.2-68.4c12.4-3.5,25.1-4.9,37.6-3.2
		c20.1,2.7,38.9,9.4,55.2,21.9c24,18.5,38.3,42.6,42.3,72.3c4,30.1-4.6,56.8-23.9,80.3c-7.1,8.7-15.4,16-25,21.9
		c-3,1.9-3.7,3.7-1.9,7.2c4.6,9.2,8.5,18.7,12.8,28c3.4,7.3,0.9,13.2-4.5,18.4c-4.6,0-9.2,0-13.9,0c-1.3-3.9-4.6-6.5-6.3-10.2
		c-4.1-9-8.9-17.6-13.1-26.6c-1.4-3-2.7-3.2-5.6-2.4c-17.7,4.4-35.4,4.6-53.1,0c-3.4-0.9-4.8,0-6.1,2.8c-2.6,5.8-5.2,11.6-8.2,17.2
		c-3.7,6.7-5.8,14.6-12.6,19.4C88.3,253.3,84.6,253.3,81,253.3z M81.7,241.6c-0.1,2.8,1.6,4.1,3.8,4.6c2.8,0.6,4.6-1.1,5.8-3.5
		c4.5-9.2,9-18.4,13.5-27.6c1.1-2.2,3.2-4.4-0.9-6.2c-6.7-3-7-3.1-9.2,1.8c-4,9-7.9,18.1-11.9,27.2
		C82.4,239.1,82.1,240.4,81.7,241.6z M208.7,240.7c0.1,0.7,0.1,0.1-0.1-0.3c-4.7-10.7-9.2-21.5-14.4-32.1c-1.8-3.6-4.8-0.1-7.1,0.6
		c-2,0.6-3.5,1.6-2.2,4.3c2.5,4.9,4.7,10,7.2,15c2.5,5.1,5.1,10.2,7.8,15.2c1.2,2.2,3.1,3.5,5.7,2.7
		C207.6,245.4,209.1,244.2,208.7,240.7z"/>
	<path fill="#CBCACA" d="M1.7,91.1C9.9,89,18.2,91,26.3,89.9c13.8-1.9,24.8,2,32.9,13.3c2.1,2.9,5.2,3.5,8.7,3.5
		c23.9-0.1,47.9,0,71.8-0.1c3,0,4.9,0.3,4.9,4.1c0,3.7-1.9,3.8-4.7,3.8c-13.9-0.1-27.7,0-41.6,0c-10.6,0-21.1,0.1-31.7-0.1
		c-2.9,0-5,0.8-7,2.8c-3.9,3.9-8.2,7.6-12.2,11.4c-1.8,1.7-3.8,2.5-6.2,2.5c-11.6,0-23.1,0-34.7-0.1c-1.6,0-3.2-0.6-4.8-0.9
		c0-2,0-3.9,0-5.9c6.1-2.8,9.5-8.6,14.3-12.9c0.3-0.3,0.3-1.5,0-1.7c-4.8-4.2-8.1-10.1-14.3-12.8C1.7,95,1.7,93,1.7,91.1z
		 M30.1,122.5c2.6,0,5.3-0.2,7.9,0c3.4,0.3,6-0.8,8.2-3.4c1.9-2.2,4.1-4.2,6.3-6.2c1.9-1.7,1.6-2.8,0-4.8
		c-6.1-7.5-13.2-12.4-23.6-10.3c-2.5,0.5-5.2,0-7.9,0.1c-1.1,0-2.5-0.5-3,0.9c-0.3,1,0.8,1.7,1.4,2.4c2.5,2.9,7.1,4.9,7.4,8.8
		c0.2,4.3-4.9,6-7.3,9.1c-0.6,0.7-1.7,1.3-1.3,2.4c0.4,1.2,1.6,0.9,2.5,0.9C23.8,122.5,26.9,122.4,30.1,122.5z"/>
	<path fill="#CBCACA" d="M228.7,110.9c0.8,39.9-31.8,75.7-72.4,81c-39.2,5.1-76.8-17-90.4-53.6c-1.2-3.3-1.6-7-2.9-10.3
		c-1.5-3.8,0.3-4.7,3.5-5.4c4.1-0.8,3.9,1.6,4.6,4.4c5.1,20.7,16.6,36.9,35.5,47.6c12.4,7,25.8,10.8,40.1,10.2
		c18.3-0.7,34.6-6.9,48.5-19.1c12.5-11,20.8-24.5,24-40.5c4.3-21.2-0.1-41.1-13.2-58.7c-18.7-25.1-51.5-36.9-81.6-28
		C96.5,47,77.8,65.4,71.2,94.2c-0.9,4.1-3.1,3.9-6,3.7c-3.6-0.3-2.5-2.6-2.1-4.6c4.7-23.1,17.7-40.5,37.8-53
		c29.5-18.3,71.7-15.3,98.6,7.7C217.3,63.1,229.4,87.7,228.7,110.9z"/>
	<path fill="#CBCACA" d="M144.8,52.9C120.4,51.6,94.9,70,88.3,94.5c-1,3.7-2.3,4.1-5.7,3.4c-4.3-0.9-3.2-3.5-2.4-5.8
		c4-11.3,9.8-21.3,19-29.7c9.6-8.7,20.4-14.3,32.9-16.6c20-3.7,38.2,0.4,54.3,13c18.6,14.5,26.9,33.7,25.2,56.9
		c-1.5,20.5-11.4,36.8-28.5,48.5c-37.4,25.8-89,8.2-102.6-34.8c-1.7-5.5-1.4-6.2,3.4-6.9c2.2-0.3,3.2,0.5,3.9,2.6
		c7.8,24.6,25,39,50.6,42.8c15.4,2.2,29.9-2.2,42.2-11.6c15.7-12,23.3-28,23.2-47.7c-0.2-21.8-15.6-43.7-36.7-51.7
		c-2.9-1.1-5.9-2.1-8.9-3C153.8,52.7,149.2,52.8,144.8,52.9z"/>
	<path fill="#CBCACA" d="M145.8,146.8c-15.5,0.7-25.6-6.4-33.3-17.5c-1.2-1.7-3.7-4,0.1-5.9c2.7-1.4,4.8-2.4,7,1.6
		c6.8,12.3,20,16.3,32.1,13.7c12.9-2.8,21.8-14.2,22.6-25.9c1-14.9-9.3-26.5-20.6-29.8c-12.9-3.8-25.8,0.7-33.7,12
		c-1.1,1.5-1.4,4.3-4.5,3.8c-4.3-0.7-5.3-2.8-3.2-6.8c10.2-18.5,36.7-24.3,54-11.7c13,9.4,18.8,22.3,15.3,37.9
		c-3.3,15.1-13.5,24.5-28.7,28.4c-0.6,0.2-1.3,0.3-1.9,0.4C148.9,146.8,146.8,146.8,145.8,146.8z"/>
	<path fill="#CBCACA" d="M144.9,90.1c10.3-0.5,20.9,7.5,20.8,20.2c-0.1,12.3-8.8,19.7-20.6,20.7c-2.6,0.2-5.5-0.9-8.1-1.8
		c-2.1-0.7-5.4-1.2-4-4.7c1.2-2.9,2.9-4.8,6.8-2.9c4.9,2.4,11.5,0.8,14.5-2.8c3.3-4,4-8.6,2.2-13.3c-1.7-4.4-7.4-7.7-12.3-7.6
		c-1.5,0-3.1,0.3-4.2,1.2c-4.2,3.2-5.6-0.8-7.7-2.9c-1.3-1.2,0-1.9,0.9-2.6C136.8,91,140.6,89.9,144.9,90.1z"/>
</g>
</svg>
