<?xml version="1.0" encoding="utf-8"?>
<!-- Generator: Adobe Illustrator 22.0.1, SVG Export Plug-In . SVG Version: 6.00 Build 0)  -->
<svg version="1.1" id="Laag_1" xmlns="http://www.w3.org/2000/svg" xmlns:xlink="http://www.w3.org/1999/xlink" x="0px" y="0px"
	 viewBox="0 0 150 150" style="enable-background:new 0 0 150 150;" xml:space="preserve">
<style type="text/css">
	.st0{fill:#020203;stroke:#020203;stroke-miterlimit:10;}
	.st1{fill:#C9C7C7;}
</style>
<rect x="-0.6" class="st0" width="150.6" height="153"/>
<g>
	<path class="st1" d="M147.3,74.6c0.2,40.2-32.9,73.2-73,73c-39.6-0.2-72.7-33.1-72.3-74C2.4,34.2,34.9,0.8,75.8,1.3
		C114.9,1.9,147.6,34.3,147.3,74.6z M74.7,8.9C39,8.9,9.8,38.3,9.5,73.9c-0.3,36.5,29.4,66.2,65.1,66.2c35.8,0.1,65.5-29.7,65.2-66
		C139.7,38.5,110.5,8.8,74.7,8.9z"/>
	<path class="st1" d="M41.6,39.3c-0.5,0.9,0.2,1.6,0.5,2.4c0.6,2.3-0.4,3.9-2.1,5.2c-1.7,1.2-3.5,1.1-5.1-0.2
		c-2.5-2.1-4.1-4.9-5.5-7.7c-1.1-2.3,0.7-4.1,2.6-5.2c1.9-1.2,3.9-0.7,5.6,0.8c0.6,0.5,0.7,1.9,1.9,1.3c0.9-0.5,0.6-1.6,0.6-2.4
		c0.3-3.8,3.5-5.9,7.1-4.8c0.7,0.2,1.6,1.1,2.4,0.3c0.7-0.8-0.1-1.6-0.3-2.4c-0.7-2.5,0.4-4.2,2.4-5.3c2.1-1.2,4.2-0.9,5.7,0.9
		c1.6,1.9,2.9,4.1,4.1,6.3c1.3,2.4,0.1,4.3-1.8,5.8c-1.8,1.5-3.6,1-5.3-0.1c-0.8-0.5-1.3-1.6-2.4-1.9c-0.4,1.3,0.4,2,0.9,2.7
		c4,6,8.2,11.9,12.2,17.9c1.2,1.8,2.6,2.7,5,2.6c3.7-0.2,7.5-0.1,11.2-0.1c1.1,0,2-0.2,2.7-1.2c4.5-6.7,9.1-13.3,13.6-20.1
		c0.3-0.4,0.7-0.9,0.3-1.7c-1.2-0.1-1.6,1.1-2.3,1.7c-1.7,1.4-3.6,1.6-5.2,0.2c-1.8-1.4-3.3-3.3-2-5.7c1.2-2.3,2.6-4.5,4.3-6.5
		c1.5-1.9,3.7-2.1,5.8-0.8s3.2,3.1,2.2,5.6c-0.2,0.7-1,1.4-0.3,2.1c0.6,0.6,1.4,0.2,2.1-0.1c3.8-1.3,7,0.7,7.4,4.6
		c0.1,0.8-0.3,1.9,0.6,2.4c1.3,0.6,1.4-0.9,2.1-1.4c1.7-1.5,4.3-1.6,6-0.1c2,1.7,3.1,3.5,1.3,6c-1.2,1.7-2.3,3.6-3.6,5.2
		c-1.6,2-3.6,3.1-6,1.6c-2.3-1.4-3.4-3.4-2.2-6.1c0.2-0.5,0.7-1,0.2-1.6c-1.2-0.3-1.4,0.7-1.9,1.3c-5.9,8.6-11.9,17.3-17.9,25.9
		c-1,1.4-1.3,2.9-1.3,4.6c0.1,19.5,0,39.1,0,58.6c0,3.8-0.1,3.9-3.9,3.9c-5.9,0-11.7-0.1-17.6,0.1c-2.6,0.1-3.5-0.9-3.5-3.5
		c0.1-19.6,0-39.2,0.1-58.8c0-1.9-0.5-3.5-1.6-5.1c-5.9-8.6-11.9-17.2-17.9-25.9C42.7,39.9,42.5,39.1,41.6,39.3z M66.1,98
		c0,9.3,0,18.6,0,27.8c0,4.7-0.7,4.2,4.3,4.3c2.1,0.1,2.6-0.7,2.6-2.7c-0.1-6.7-0.1-13.3-0.1-20c0-3.3,0-6.6,0-9.9
		c0-1.2,0.5-2,1.6-2c1.2-0.1,1.7,0.8,1.8,1.8c0.1,0.8,0.1,1.6,0.1,2.3c0,9.2,0,18.4,0,27.5c0,0.8-0.4,2.1,0.4,2.4
		c2,0.9,4.2,0.6,6.2,0.2c1.5-0.3,0.9-1.9,0.9-3c0.1-19.1,0-38.3,0.1-57.5c0-1.2-0.2-2.4,0.6-3.6c4.7-6.6,9.3-13.2,13.9-19.9
		c2.5-3.5,4.9-7.2,7.3-10.7c0.7-1,0.9-2-0.1-2.8c-1-0.8-2-0.5-2.8,0.5c-0.6,0.6-1,1.4-1.6,2.1c-5,7.3-10.1,14.6-15.1,21.9
		c-0.9,1.4-2,1.9-3.6,1.9c-5.2-0.1-10.4-0.1-15.5,0c-1.6,0-2.6-0.5-3.6-1.9C58.5,49.2,53.2,41.6,48,34c-0.8-1.2-1.8-2.7-3.5-1.7
		c-1.8,1.1-0.6,2.5,0.2,3.7c6.7,9.7,13.4,19.5,20.2,29.2c0.9,1.2,1.2,2.3,1.2,3.7C66,78.7,66.1,88.4,66.1,98z M58.2,29.7
		c-0.9-1.4-2-3.1-3.1-4.7c-0.3-0.5-0.9-1.2-1.6-0.7c-0.9,0.5-0.9,1.2-0.4,2c0.9,1.6,1.9,3.1,2.9,4.5c0.4,0.6,1,0.9,1.7,0.4
		C58.2,31,58.5,30.6,58.2,29.7z M97.2,25.5c0-0.5-0.3-0.9-0.7-1.1c-0.5-0.2-0.9,0.1-1.2,0.5c-1.1,1.6-2.2,3.1-3.3,4.8
		c-0.3,0.5-0.5,1,0.1,1.6c0.4,0.3,0.8,0.5,1.3,0.3C94,31.2,97.2,26.2,97.2,25.5z M38.4,42.8c0.1-1-3.2-5.8-3.9-5.9
		c-1-0.1-2,0.3-1.4,1.3c0.9,1.9,2,3.7,3.6,5.1C37.4,44.1,38.2,44,38.4,42.8z M112.7,43.8c0.2-0.1,0.6-0.1,0.7-0.2
		c1.3-1.8,2.5-3.5,3.7-5.4c0.3-0.4-0.2-0.9-0.6-1.2c-0.5-0.2-1-0.3-1.3,0.1c-1.2,1.7-2.4,3.4-3.5,5.2
		C111.3,43,111.7,43.7,112.7,43.8z"/>
	<path class="st1" d="M74.3,51.9c-6.2-0.1-11.2-5.2-11.1-11.5c0.1-6.4,5.2-11.2,11.7-11.2c7-0.1,11.1,6.1,11.2,11.2
		C86.2,47.1,81,52,74.3,51.9z M82.3,40.7c0.1-4.6-3.2-8-7.6-7.9c-4.3,0.1-7.7,3.5-7.8,8c-0.1,4,3.6,7.7,7.8,7.7
		C78.9,48.4,82.2,45.1,82.3,40.7z"/>
</g>
</svg>
