<?xml version="1.0" encoding="utf-8"?>
<!-- Generator: Adobe Illustrator 22.0.1, SVG Export Plug-In . SVG Version: 6.00 Build 0)  -->
<svg version="1.1" id="Laag_1" xmlns="http://www.w3.org/2000/svg" xmlns:xlink="http://www.w3.org/1999/xlink" x="0px" y="0px"
	 viewBox="0 0 256 256" style="enable-background:new 0 0 256 256;" xml:space="preserve">
<style type="text/css">
	.st0{clip-path:url(#SVGID_2_);}
	.st1{fill:#C5C5C5;}
	.st2{fill:#65ADE9;}
	.st3{fill:#FEFEFE;}
	.st4{fill:#65A03E;}
	.st5{fill:#FBFBFB;}
</style>
<g>
	<defs>
		<rect id="SVGID_1_" x="4.2" y="2.5" width="249.3" height="250.8"/>
	</defs>
	<clipPath id="SVGID_2_">
		<use xlink:href="#SVGID_1_"  style="overflow:visible;"/>
	</clipPath>
	<g class="st0">
		<path class="st1" d="M7.5,156.3c-0.3-1.2-0.4-2.4-0.8-3.5c-0.8-2.9-1.1-6-1.5-9c-0.3-2-0.5-4.1-0.6-6.2c0-0.8-0.1-1.5-0.1-2.3
			c0-0.2,0-0.4-0.3-0.4c0-0.4,0-0.9,0-1.3c0.2-0.8,0.2-1.6,0-2.3c0-1.9,0-3.8,0-5.7c0.2-0.7,0.2-1.5,0-2.2c0-0.4,0-0.9,0-1.3
			c0.3,0,0.2-0.3,0.2-0.5c0.1-2.6,0.3-5.2,0.6-7.8c0.4-3.2,0.8-6.5,1.6-9.7c1.3-5.9,2.6-11.8,4.8-17.4c1.5-3.8,2.8-7.7,4.6-11.4
			c1.6-3.1,2.9-6.2,4.7-9.2c1.6-2.6,3-5.3,4.8-7.8c1.5-2.1,2.9-4.4,4.6-6.4c1.5-1.8,2.9-3.7,4.4-5.5c2.3-2.7,4.7-5.3,7.2-7.8
			c2.2-2.2,4.4-4.3,6.8-6.3c1.6-1.3,3.1-2.7,4.8-3.9c3-2.3,6.1-4.5,9.4-6.6c3.2-2,6.5-3.9,9.8-5.7C77,14,81.5,12,86.1,10.3
			c3.7-1.4,7.5-2.6,11.3-3.6c3.9-1,7.9-1.9,12-2.5c1.9-0.3,3.8-0.6,5.7-0.8c2.2-0.2,4.4-0.5,6.6-0.5c0.2,0,0.4,0,0.4-0.3
			c0.4,0,0.8,0,1.2,0c0.6,0.2,1.1,0.2,1.7,0c2.8,0,5.6,0,8.4,0c0.6,0.2,1.1,0.2,1.7,0c0.3,0,0.7,0,1,0c0,0.3,0.2,0.2,0.4,0.3
			c1.7,0,3.4,0.2,5.1,0.4c1.9,0.2,3.9,0.4,5.8,0.7c3.3,0.5,6.6,1.1,9.8,1.9c2.5,0.6,5.1,1.2,7.6,2.1c-0.4-0.1-0.5,0.2-0.6,0.5
			c-1,3.6-2.1,7.3-3.1,10.9c-0.4,1.4-0.9,2.9-1.3,4.3c-0.2,0-0.3-0.1-0.5-0.1c-4.6-1.3-9.3-2.2-14-2.9c-7-1-14-1.3-21-1
			c-6.8,0.3-13.6,1.1-20.3,2.6c-6.3,1.4-12.5,3.4-18.5,5.8c-3.1,1.3-6.2,2.7-9.2,4.3c-3.3,1.7-6.5,3.6-9.6,5.6c-1.5,1-2.9,2-4.4,3
			c-1.7,1.2-3.4,2.6-5,3.8c-1.5,1.1-2.8,2.4-4.3,3.7c-1.6,1.4-3.2,2.9-4.7,4.4c-1.6,1.6-3.2,3.3-4.7,5c-1.6,1.9-3.2,3.8-4.7,5.8
			c-1.6,2.1-3.1,4.3-4.6,6.5c-1.7,2.5-3,5.1-4.6,7.7c-1.8,3.1-3.1,6.3-4.6,9.6c-2,4.5-3.4,9.2-4.7,13.9c-2.7,10.2-3.7,20.7-3.3,31.2
			c0.2,5.2,0.7,10.4,1.7,15.5c0.3,1.8,0.7,3.6,1.1,5.4c-3.3,0.8-6.6,1.6-9.9,2.3C9.1,155.9,8.3,156.2,7.5,156.3z"/>
		<path class="st2" d="M159.6,23.6c0.4-1.4,0.9-2.9,1.3-4.3c1.1-3.6,2.1-7.3,3.1-10.9c0.1-0.4,0.2-0.6,0.6-0.5
			c1.7,0.6,3.4,1.1,5.1,1.7c4.8,1.7,9.5,3.7,14,5.9c3.1,1.5,6.1,3.2,9.1,5c3.2,1.9,6.2,4,9.3,6.2c1.6,1.1,3,2.4,4.5,3.5
			c1.6,1.2,3.1,2.6,4.7,4c1.6,1.4,3.1,3,4.7,4.4c1.6,1.5,3,3.2,4.5,4.7c1.7,1.7,3.1,3.6,4.7,5.5c1.6,2,3.2,4,4.6,6.1
			c1.6,2.3,3.1,4.6,4.7,7c1.7,2.6,3.1,5.4,4.6,8.1c1.8,3.2,3.1,6.6,4.6,9.9c1.9,4.2,3.2,8.6,4.6,13c2.3,7.4,3.5,15.1,4.6,22.8
			c0.4,2.8,0.5,5.6,0.6,8.4c0,0.2-0.1,0.4,0.1,0.6c0,2.6,0,5.3,0,7.9c-0.2,0.2-0.1,0.4-0.1,0.6c0,2.8-0.2,5.6-0.6,8.4
			c-1,7.5-2.2,14.9-4.4,22.1c-1.4,4.5-2.8,9-4.8,13.3c-1.5,3.2-2.8,6.5-4.5,9.6c-1.6,2.8-3,5.6-4.8,8.3c-1.5,2.1-2.8,4.4-4.3,6.4
			c-1.6,2.2-3.3,4.3-5,6.4c-1.5,1.8-3,3.6-4.7,5.3c-1.6,1.6-3.1,3.3-4.7,4.8c-0.5,0.4-1,0.8-1.5,1.2c-0.2-0.1-0.3-0.3-0.5-0.4
			c-0.9-1-1.7-2-2.6-2.8c-0.8-0.7-1.5-1.5-2.2-2.3c-1.5-1.8-3.2-3.4-4.8-5.1c0.7-0.7,1.5-1.3,2.2-2c1.7-1.6,3.3-3.3,5-5
			c1.5-1.6,2.9-3.3,4.3-4.9c1.7-2,3.2-4,4.7-6.1c1.7-2.2,3-4.6,4.6-6.9c1.8-2.7,3.1-5.6,4.6-8.5c1.8-3.5,3.2-7.2,4.6-10.8
			c2.1-5.5,3.5-11.3,4.6-17.1c1.4-7.1,1.8-14.3,1.6-21.5c-0.2-5.8-0.6-11.5-1.8-17.2c-1.3-5.8-2.5-11.6-4.8-17.2
			c-1.5-3.6-2.8-7.3-4.7-10.8c-1.5-2.8-2.9-5.7-4.7-8.4c-1.6-2.3-2.9-4.7-4.6-6.9c-1.6-2-3-4.1-4.7-6c-1.5-1.7-2.9-3.5-4.6-5.1
			c-1.6-1.6-3.1-3.3-4.9-4.8c-1.5-1.3-2.8-2.6-4.4-3.8c-1.6-1.2-3.1-2.5-4.7-3.7c-3-2.2-6.1-4.3-9.3-6.2c-3-1.8-6.1-3.5-9.2-5
			c-3.1-1.5-6.2-2.8-9.4-4C165.7,25.5,162.7,24.5,159.6,23.6z"/>
		<path class="st3" d="M4.3,131.3c0.2,0.8,0.2,1.6,0,2.3C4.3,132.9,4.3,132.1,4.3,131.3z"/>
		<path class="st3" d="M4.3,123.4c0.2,0.7,0.2,1.5,0,2.2C4.3,124.9,4.3,124.2,4.3,123.4z"/>
		<path class="st3" d="M124.8,2.6c-0.6,0.2-1.1,0.2-1.7,0C123.7,2.6,124.3,2.6,124.8,2.6z"/>
		<path class="st3" d="M134.9,2.6c-0.6,0.2-1.1,0.2-1.7,0C133.8,2.6,134.3,2.6,134.9,2.6z"/>
		<path class="st4" d="M204.4,208.5c1.6,1.7,3.3,3.3,4.8,5.1c0.7,0.8,1.4,1.5,2.2,2.3c0.9,0.9,1.7,1.9,2.6,2.8
			c0.1,0.2,0.3,0.3,0.5,0.4c-0.2,0.7-0.9,1-1.3,1.4c-1.5,1.5-3.1,2.7-4.7,4.1c-1.6,1.5-3.4,2.7-5.1,4.1c-1.9,1.4-3.9,2.8-5.9,4.1
			c-2.9,1.9-5.8,3.7-8.9,5.3c-3.2,1.7-6.4,3.3-9.7,4.8c-4.5,2-9.1,3.7-13.8,5.1c-4.6,1.4-9.3,2.5-14,3.4c-4.2,0.7-8.5,1.3-12.8,1.6
			c-1.6,0.1-3.3,0.2-4.9,0.3c-2.7,0.1-5.3,0.1-8,0.1c-2.1,0-4.1-0.2-6.2-0.4c-3.2-0.2-6.4-0.6-9.6-1.1c-3.8-0.6-7.5-1.3-11.2-2.3
			c-4.2-1-8.3-2.3-12.3-3.8c-2.5-0.9-4.9-1.8-7.3-2.9c-2-0.9-4-1.9-6-2.8c-1.9-0.9-3.6-2-5.4-2.9c-1.5-0.8-3-1.8-4.5-2.7
			c-1.7-1-3.2-2.1-4.8-3.2c-1.6-1.1-3.1-2.3-4.7-3.4c-1.6-1.1-3-2.5-4.6-3.7c-1.6-1.2-3-2.7-4.5-4c-1.7-1.4-3.1-3.1-4.7-4.6
			c-1.8-1.7-3.2-3.6-4.9-5.3c-1.6-1.7-2.9-3.6-4.4-5.4c-1.7-2-3.1-4.3-4.7-6.5c-1.8-2.4-3.2-5.1-4.8-7.6c-1.8-2.9-3.2-6.1-4.7-9.1
			c-1.8-3.6-3.1-7.5-4.6-11.2c-1.7-4.4-2.9-9-4-13.6c-0.1-0.2-0.2-0.5,0-0.7c0.8,0,1.6-0.3,2.4-0.5c3.3-0.8,6.6-1.5,9.9-2.3
			c0.4,1.1,0.7,2.2,1,3.4c1.4,4.5,2.7,8.9,4.6,13.2c1.5,3.3,2.9,6.7,4.8,9.8c1.5,2.4,2.8,5,4.4,7.3c1.7,2.3,3.2,4.8,5,7
			c1.5,1.8,2.8,3.6,4.4,5.3c1.6,1.6,3,3.4,4.7,5c1.5,1.4,2.9,3,4.6,4.3c1.6,1.3,3.1,2.8,4.8,4.1c1.5,1.1,3,2.3,4.5,3.4
			c3.1,2.2,6.2,4.2,9.5,6.1c3,1.7,6,3.3,9.1,4.7c3.1,1.4,6.3,2.7,9.5,3.8c4.4,1.6,9,2.8,13.6,3.8c6.5,1.4,13.1,2.3,19.7,2.5
			c7,0.3,14.1-0.1,21.1-1.1c6.4-0.9,12.6-2.4,18.7-4.3c5.2-1.7,10.3-3.7,15.2-6.1c3.1-1.5,6.1-3.2,9.1-5c3.3-2,6.5-4.2,9.6-6.6
			C200,212.2,202.2,210.4,204.4,208.5z"/>
		<path d="M204.4,208.5c-2.1,1.9-4.4,3.7-6.6,5.4c-3.1,2.3-6.3,4.5-9.6,6.6c-2.9,1.8-6,3.5-9.1,5c-4.9,2.4-10,4.4-15.2,6.1
			c-6.1,1.9-12.4,3.4-18.7,4.3c-7,1-14,1.3-21.1,1.1c-6.6-0.2-13.2-1.1-19.7-2.5c-4.6-1-9.1-2.3-13.6-3.8c-3.2-1.1-6.4-2.4-9.5-3.8
			c-3.1-1.4-6.1-3-9.1-4.7c-3.3-1.9-6.4-3.9-9.5-6.1c-1.6-1.1-3-2.3-4.5-3.4c-1.7-1.3-3.2-2.7-4.8-4.1c-1.6-1.3-3-2.9-4.6-4.3
			c-1.7-1.5-3.1-3.3-4.7-5c-1.6-1.7-2.9-3.5-4.4-5.3c-1.8-2.2-3.4-4.6-5-7c-1.7-2.3-2.9-4.8-4.4-7.3c-1.9-3.1-3.2-6.5-4.8-9.8
			c-2-4.2-3.3-8.7-4.6-13.2c-0.3-1.1-0.7-2.3-1-3.4c-0.4-1.8-0.7-3.6-1.1-5.4c-1-5.1-1.5-10.3-1.7-15.5c-0.4-10.6,0.6-21,3.3-31.2
			c1.3-4.7,2.7-9.4,4.7-13.9c1.4-3.2,2.8-6.5,4.6-9.6c1.5-2.6,2.9-5.2,4.6-7.7c1.5-2.2,3-4.4,4.6-6.5c1.5-2,3.1-3.9,4.7-5.8
			c1.5-1.7,3.1-3.4,4.7-5c1.5-1.5,3-3.1,4.7-4.4c1.4-1.2,2.8-2.5,4.3-3.7c1.7-1.3,3.3-2.6,5-3.8c1.4-1,2.9-2,4.4-3
			c3.1-2,6.3-3.9,9.6-5.6c3-1.6,6.1-3,9.2-4.3c6-2.5,12.2-4.4,18.5-5.8c6.7-1.5,13.4-2.4,20.3-2.6c7-0.3,14,0,21,1
			c4.7,0.7,9.4,1.6,14,2.9c0.2,0,0.3,0.1,0.5,0.1c3.1,0.9,6.2,1.9,9.2,3c3.2,1.2,6.3,2.5,9.4,4c3.2,1.5,6.2,3.2,9.2,5
			c3.2,1.9,6.3,4,9.3,6.2c1.6,1.2,3.1,2.5,4.7,3.7c1.5,1.2,2.9,2.6,4.4,3.8c1.7,1.5,3.2,3.2,4.9,4.8c1.7,1.6,3.1,3.4,4.6,5.1
			c1.7,1.9,3.1,4,4.7,6c1.7,2.2,3.1,4.6,4.6,6.9c1.8,2.7,3.2,5.6,4.7,8.4c1.9,3.5,3.2,7.2,4.7,10.8c2.2,5.5,3.5,11.3,4.8,17.2
			c1.2,5.7,1.7,11.4,1.8,17.2c0.2,7.2-0.3,14.4-1.6,21.5c-1.1,5.8-2.4,11.6-4.6,17.1c-1.4,3.7-2.7,7.4-4.6,10.8
			c-1.5,2.8-2.9,5.8-4.6,8.5c-1.5,2.3-2.9,4.7-4.6,6.9c-1.5,2.1-3.1,4.1-4.7,6.1c-1.4,1.7-2.8,3.4-4.3,4.9c-1.6,1.7-3.3,3.4-5,5
			C205.8,207.2,205.1,207.8,204.4,208.5z M160.1,119.7c-0.5-0.3-0.9-0.7-1.3-1c-4-2.8-10.4-2.1-13.9,2.1c-2,2.4-2.6,5.2-1.8,8.2
			c0.5,1.8,1.4,3.3,2.9,4.3c2,1.5,4.4,1.9,6.8,1.7c2-0.1,3.9-0.7,5.7-1.8c0.3-0.2,0.4-0.3,0.1-0.6c-0.5-0.5-0.9-1.1-1.4-1.7
			c-0.2-0.2-0.3-0.3-0.6-0.1c-1.4,0.9-2.9,1.2-4.5,1.2c-2.2,0-4.1-0.8-5.2-2.8c-1.1-2-0.8-4.1,0.4-6c1-1.6,2.5-2.6,4.4-3
			c2.1-0.5,4.1-0.2,5.8,1.4c0.3,0.3,0.4,0.1,0.6,0C158.6,121,159.3,120.3,160.1,119.7z M213,129.3c1.6,0,3.1,0,4.7,0
			c0.4,0,0.5-0.1,0.5-0.5c0.4-2.4-0.9-5.3-2.9-6.3c-3.4-1.7-7.3-0.7-9.6,2.5c-1.2,1.6-1.4,3.5-1,5.5c0.2,1.1,0.7,2.1,1.5,2.8
			c1.6,1.4,3.6,1.8,5.7,1.6c1.9-0.2,3.5-0.9,4.9-2.2c0.3-0.3,0.3-0.4-0.1-0.6c-0.7-0.3-1.4-0.6-2.1-1c-0.3-0.2-0.5-0.2-0.8,0.1
			c-1.1,0.8-2.4,1.1-3.8,0.8c-1.1-0.2-1.9-1.1-2.1-2.2c-0.1-0.4-0.1-0.6,0.5-0.6C209.9,129.3,211.5,129.3,213,129.3z M133.7,129.3
			c1.6,0,3.1,0,4.7,0c0.3,0,0.5,0,0.6-0.5c0.3-2-0.7-4.8-2.5-6c-2.8-1.8-6.9-1.5-9.5,1.5c-1.6,1.8-2,3.9-1.6,6.2
			c0.2,1.3,0.9,2.4,1.9,3.2c1.6,1.1,3.4,1.4,5.3,1.3c1.9-0.2,3.5-0.9,4.9-2.2c0.3-0.3,0.3-0.4-0.1-0.6c-0.7-0.3-1.4-0.6-2.1-1
			c-0.3-0.2-0.5-0.2-0.8,0.1c-0.9,0.7-1.9,0.9-3,0.9c-1.6,0-2.7-0.9-3-2.3c-0.1-0.4,0-0.6,0.5-0.6
			C130.6,129.3,132.1,129.3,133.7,129.3z M67.9,128.1c0.1-2.9-1.7-5.2-4-6c-2.5-0.8-4.9-0.3-7,1.3c-2.3,1.8-3.1,4.3-2.6,7.1
			c0.3,1.8,1.3,3.2,3,3.9c1.2,0.5,2.4,0.6,3.7,0.5c2.8-0.2,4.8-1.7,6.2-4C67.8,130.1,67.9,129,67.9,128.1z M52.5,117.5
			c-1,0-1.9,0.1-2.8,0c-0.8-0.1-1.3,0.3-1.7,0.9c-1.3,1.8-2.6,3.7-3.9,5.5c-0.1,0.1-0.1,0.4-0.4,0.4c-0.2,0-0.2-0.3-0.3-0.5
			c-0.8-1.9-1.5-3.9-2.3-5.8c-0.1-0.2-0.1-0.5-0.4-0.4c-1.1,0-2.1,0-3.3,0c0.7,1.5,1.2,3,1.8,4.4c0.8,1.7,1.4,3.6,2.1,5.4
			c0.1,0.4,0.2,0.7,0.1,1.1c-0.3,2-0.5,4-0.8,5.9c0,0.3,0,0.4,0.3,0.4c0.9,0,1.8,0,2.7,0c0.3,0,0.4-0.1,0.4-0.4
			c0.2-1.6,0.5-3.2,0.6-4.9c0.1-1.1,0.4-2,1.1-2.8c1-1.2,1.8-2.6,2.8-3.8C50,121.1,51.1,119.3,52.5,117.5z M76.4,122
			c-0.9,0-1.7,0-2.6,0c-0.6,0-0.8,0.1-0.8,0.7c0,0.4-0.1,0.8-0.2,1.1c-0.3,2.2-0.8,4.4-0.7,6.6c0.1,1.9,1,3.3,2.7,4.1
			c0.9,0.4,1.8,0.4,2.8,0.4c2.4-0.1,4.6-1.4,5.3-3.9c0.3-1.1,0.5-2.1,0.6-3.2c0.2-1.8,0.5-3.5,0.7-5.3c0.1-0.4,0-0.5-0.5-0.5
			c-0.8,0-1.5,0-2.3,0c-0.2,0-0.4,0-0.4,0.3c-0.1,0.6-0.2,1.1-0.3,1.7c-0.3,1.3-0.4,2.7-0.6,4c-0.1,1-0.3,2-0.7,2.9
			c-0.4,0.8-1.3,1.3-2.3,1.2c-1.1-0.1-1.7-0.6-2-1.5c-0.1-0.4-0.1-0.9,0-1.3c0.2-1.2,0.3-2.5,0.5-3.7C76,124.4,76,123.2,76.4,122z
			 M186.4,134.9c2.6,0,4.6-0.8,6.2-2.4c0.2-0.2,0.2-0.3,0-0.4c-0.7-0.3-1.3-0.8-1.9-1.2c-0.3-0.2-0.5-0.3-0.8,0
			c-1.2,1.2-3.5,1.5-5,0.8c-0.7-0.4-1.2-0.9-1.5-1.7c-0.5-1.5,0.1-3.3,1.3-4.4c1.3-1,3.4-1.3,4.8-0.6c0.5,0.2,0.8,1,1.4,0.9
			c0.6-0.1,1.1-0.5,1.6-0.8c0.1,0,0.1,0,0.2-0.1c0.9-0.5,1-0.3,0.3-1.3c-0.2-0.3-0.5-0.4-0.8-0.6c-2.4-2.1-7.3-1.9-9.9,0.5
			c-1.5,1.4-2.3,3.2-2.3,5.3c0,2.2,0.8,4,2.8,5.1C183.9,134.7,185.2,135,186.4,134.9z M101.7,134.7c1.3,0,2.7,0,4,0
			c0.4,0,0.6-0.2,0.6-0.5c0.1-0.6,0.1-1.3,0.3-1.9c0.1-0.4,0-0.4-0.4-0.4c-1.1,0-2.3,0-3.4,0c-0.5,0-1.3,0.2-1.5-0.1
			c-0.2-0.3,0-1,0.1-1.6c0.6-4.1,1.1-8.2,1.7-12.3c0-0.3-0.1-0.4-0.3-0.4c-0.9,0-1.7,0-2.6,0c-0.3,0-0.4,0.1-0.4,0.4
			c-0.2,1.4-0.5,2.7-0.7,4.1c-0.5,4.1-1.1,8.2-1.7,12.3c-0.1,0.4,0,0.4,0.4,0.4C99,134.7,100.4,134.7,101.7,134.7z M124,120.2
			c0.1-0.8,0.2-1.6,0.3-2.4c0-0.1-0.1-0.2-0.2-0.3c-1.6-1.4-4.5-0.7-5.3,1.2c-0.3,0.7-0.4,1.5-0.6,2.3c-0.2,1-0.2,1-1.2,1
			c-0.4,0-0.5,0.1-0.6,0.5c0,0.5-0.1,1.1-0.2,1.6c-0.1,0.6,0,0.7,0.6,0.6c0.6-0.1,0.7,0.1,0.6,0.7c-0.4,3-0.8,5.9-1.3,8.9
			c-0.1,0.4,0.1,0.4,0.4,0.4c0.8,0,1.6,0,2.3,0c0.4,0,0.5-0.1,0.6-0.5c0.4-2.9,0.8-5.8,1.2-8.7c0.1-0.6,0.3-0.8,0.9-0.8
			c1.3,0.1,1.3,0,1.4-1.2c0-0.2,0.1-0.4,0.1-0.6c0.1-0.9,0.1-0.9-0.8-0.9c-1.2,0-1.2,0-0.9-1.2c0.3-1.2,0.9-1.5,2-0.9
			C123.8,120,123.9,120.1,124,120.2z M198.1,134.7c0.4,0,0.7,0,1.1,0c0.6,0.1,0.7-0.1,0.8-0.7c0.5-3.7,1-7.4,1.5-11.1
			c0.2-1.8,0.7-3.5,0.8-5.3c0-0.4,0-0.6-0.5-0.5c-0.8,0-1.5,0-2.3,0c-0.4,0-0.5,0.1-0.5,0.5c-0.7,5.2-1.3,10.3-2.2,15.5
			c-0.1,0.5-0.4,1.2-0.2,1.5C197,134.9,197.7,134.6,198.1,134.7z M91.3,123.4c-0.1-0.4,0.1-0.7,0.1-1.1c0-0.2,0-0.4-0.3-0.4
			c-0.8,0-1.6,0-2.3,0c-0.3,0-0.3,0.1-0.3,0.4c-0.5,4-1.1,8-1.6,12c0,0.3,0,0.4,0.3,0.4c0.8,0,1.6,0,2.5,0c0.1,0,0.4,0.1,0.4-0.2
			c0-0.4,0.2-0.7,0.3-1.1c0.2-1.6,0.4-3.3,0.7-4.9c0.1-0.9,0.3-1.7,0.7-2.5c0.4-0.8,1-1.5,2.1-1.3c0.2,0,0.2,0,0.3-0.2
			c0.3-0.7,0.6-1.5,1-2.2c0.2-0.4,0-0.5-0.3-0.5c-1-0.2-1.9,0.1-2.6,0.8C91.9,122.8,91.6,123.1,91.3,123.4z M174.1,123.2
			c0-0.1,0-0.4,0.1-0.7c0.1-0.4,0-0.5-0.5-0.5c-0.7,0-1.3,0-2,0c-0.4,0-0.5,0.1-0.5,0.5c-0.3,2.5-0.7,4.9-1,7.4
			c-0.2,1.6-0.4,3.2-0.6,4.9c1,0,1.9,0,2.8,0c0.3,0,0.4-0.1,0.4-0.4c0.1-1,0.3-2,0.4-3c0.2-1.6,0.4-3.3,1-4.8
			c0.4-0.9,0.8-1.8,1.8-1.8c0.9,0,0.9-0.5,1.2-1c0.2-0.4,0.3-0.9,0.5-1.3c0.2-0.4,0.1-0.6-0.3-0.6c-0.9-0.1-1.7,0.1-2.4,0.7
			C174.7,122.8,174.3,123,174.1,123.2z M164.2,134.7c0.3,0,0.7,0,1,0c0.5,0.1,0.7-0.2,0.7-0.7c0.2-1.5,0.4-3,0.6-4.5
			c0.3-2.4,0.6-4.7,1-7.1c0.1-0.4-0.1-0.5-0.5-0.5c-0.7,0-1.3,0.1-2,0c-0.7-0.1-0.8,0.3-0.9,0.8c-0.5,3.4-0.9,6.9-1.4,10.3
			C162.5,134.7,162.5,134.7,164.2,134.7C164.1,134.7,164.2,134.7,164.2,134.7z M110.4,134.7c0.3,0,0.6,0,0.8,0
			c0.7,0.1,0.8-0.2,0.9-0.8c0.2-2.1,0.6-4.2,0.8-6.3c0.2-1.7,0.6-3.3,0.8-5c0.1-0.5,0-0.7-0.6-0.6c-0.6,0.1-1.2,0.1-1.8,0
			c-0.7-0.1-0.9,0.2-1,0.9c-0.5,3.7-1,7.5-1.5,11.2c-0.1,0.6,0,0.7,0.6,0.7C109.8,134.7,110.1,134.7,110.4,134.7z M112.6,116.8
			c-1.1,0-2,0.8-2,1.9c0,1.1,0.9,2,1.9,2c1.2,0,2.1-0.8,2.1-1.9C114.6,117.6,113.8,116.8,112.6,116.8z M168.3,118.7
			c0-1.1-0.9-1.9-2-1.9c-1,0-2,1-2,1.9c0,1,1,2,2.1,1.9C167.5,120.7,168.3,119.8,168.3,118.7z"/>
		<path class="st5" d="M160.1,119.7c-0.8,0.6-1.5,1.3-2.2,1.9c-0.2,0.2-0.3,0.3-0.6,0c-1.6-1.6-3.6-1.9-5.8-1.4
			c-1.8,0.4-3.3,1.4-4.4,3c-1.2,1.9-1.5,4-0.4,6c1.1,2,2.9,2.8,5.2,2.8c1.6,0,3.2-0.3,4.5-1.2c0.3-0.2,0.4-0.1,0.6,0.1
			c0.5,0.6,0.9,1.2,1.4,1.7c0.3,0.3,0.2,0.4-0.1,0.6c-1.7,1.1-3.6,1.6-5.7,1.8c-2.4,0.2-4.8-0.2-6.8-1.7c-1.5-1.1-2.4-2.6-2.9-4.3
			c-0.8-3-0.1-5.8,1.8-8.2c3.5-4.2,9.8-5,13.9-2.1C159.2,119,159.6,119.4,160.1,119.7z"/>
		<path class="st5" d="M213,129.3c-1.6,0-3.1,0-4.7,0c-0.5,0-0.5,0.2-0.5,0.6c0.2,1.1,1,1.9,2.1,2.2c1.4,0.3,2.7,0,3.8-0.8
			c0.3-0.2,0.5-0.2,0.8-0.1c0.7,0.4,1.4,0.7,2.1,1c0.4,0.2,0.4,0.3,0.1,0.6c-1.4,1.3-3,2-4.9,2.2c-2.1,0.2-4-0.2-5.7-1.6
			c-0.8-0.7-1.3-1.7-1.5-2.8c-0.4-2-0.2-3.9,1-5.5c2.3-3.2,6.2-4.2,9.6-2.5c2,1,3.3,3.9,2.9,6.3c-0.1,0.3-0.2,0.5-0.5,0.5
			C216.2,129.2,214.6,129.3,213,129.3z M208.3,126.9c2.1,0,4.2,0,6.2,0c0.4,0,0.4-0.1,0.3-0.4c-0.3-0.7-0.7-1.2-1.4-1.5
			C211.7,124.1,209.2,124.7,208.3,126.9z"/>
		<path class="st5" d="M133.7,129.3c-1.6,0-3.1,0-4.7,0c-0.5,0-0.5,0.2-0.5,0.6c0.2,1.4,1.4,2.2,3,2.3c1.1,0,2.1-0.2,3-0.9
			c0.3-0.2,0.5-0.2,0.8-0.1c0.7,0.4,1.4,0.7,2.1,1c0.4,0.2,0.4,0.3,0.1,0.6c-1.4,1.3-3,2.1-4.9,2.2c-1.9,0.2-3.7-0.1-5.3-1.3
			c-1.1-0.8-1.7-1.9-1.9-3.2c-0.4-2.3,0-4.4,1.6-6.2c2.6-3,6.7-3.3,9.5-1.5c1.8,1.1,2.8,4,2.5,6c-0.1,0.4-0.2,0.5-0.6,0.5
			C136.8,129.2,135.3,129.3,133.7,129.3z M129,126.9c2.2,0,4.4,0,6.6,0c-0.3-1.3-1.3-2.1-2.8-2.3C131.2,124.4,129.8,125.3,129,126.9
			z"/>
		<path class="st5" d="M67.9,128.1c0,0.9-0.1,2-0.7,2.9c-1.4,2.3-3.4,3.8-6.2,4c-1.3,0.1-2.5,0-3.7-0.5c-1.7-0.8-2.7-2.1-3-3.9
			c-0.5-2.8,0.3-5.3,2.6-7.1c2.1-1.6,4.4-2.1,7-1.3C66.3,122.8,68.1,125.2,67.9,128.1z M57.4,128.8c-0.2,1.4,1.1,2.8,2.1,3.1
			c1.6,0.4,3.8,0,4.7-2.1c0.4-0.8,0.5-1.7,0.4-2.6c-0.1-1.2-1.1-2.3-2.2-2.6C59.4,124,57.6,126.4,57.4,128.8z"/>
		<path class="st5" d="M52.5,117.5c-1.3,1.9-2.5,3.6-3.8,5.3c-1,1.2-1.8,2.6-2.8,3.8c-0.7,0.8-1,1.8-1.1,2.8
			c-0.2,1.6-0.4,3.2-0.6,4.9c0,0.3-0.1,0.4-0.4,0.4c-0.9,0-1.8,0-2.7,0c-0.4,0-0.4-0.1-0.3-0.4c0.3-2,0.5-4,0.8-5.9
			c0.1-0.4,0-0.7-0.1-1.1c-0.7-1.8-1.3-3.6-2.1-5.4c-0.7-1.4-1.1-2.9-1.8-4.4c1.1,0,2.2,0,3.3,0c0.3,0,0.3,0.3,0.4,0.4
			c0.8,1.9,1.5,3.9,2.3,5.8c0.1,0.2,0.1,0.4,0.3,0.5c0.2,0,0.3-0.2,0.4-0.4c1.3-1.8,2.6-3.6,3.9-5.5c0.4-0.6,0.9-1,1.7-0.9
			C50.5,117.5,51.4,117.5,52.5,117.5z"/>
		<path class="st5" d="M76.4,122c-0.4,1.2-0.4,2.4-0.6,3.6c-0.2,1.2-0.3,2.5-0.5,3.7c-0.1,0.4-0.1,0.9,0,1.3c0.2,0.9,0.9,1.4,2,1.5
			c1,0.1,1.9-0.4,2.3-1.2c0.4-0.9,0.6-1.9,0.7-2.9c0.2-1.3,0.3-2.7,0.6-4c0.1-0.6,0.3-1.1,0.3-1.7c0-0.3,0.2-0.3,0.4-0.3
			c0.8,0,1.5,0,2.3,0c0.4,0,0.5,0.1,0.5,0.5c-0.3,1.8-0.5,3.5-0.7,5.3c-0.1,1.1-0.3,2.2-0.6,3.2c-0.8,2.5-2.9,3.8-5.3,3.9
			c-1,0-1.9,0-2.8-0.4c-1.7-0.8-2.7-2.1-2.7-4.1c-0.1-2.2,0.4-4.4,0.7-6.6c0-0.4,0.2-0.8,0.2-1.1c0-0.6,0.2-0.8,0.8-0.7
			C74.7,122,75.5,122,76.4,122z"/>
		<path class="st5" d="M186.4,134.9c-1.2,0.1-2.5-0.2-3.6-0.8c-2-1.1-2.8-2.9-2.8-5.1c0-2.1,0.8-3.9,2.3-5.3
			c2.6-2.4,7.5-2.6,9.9-0.5c0.3,0.2,0.6,0.4,0.8,0.6c0.8,1,0.7,0.7-0.3,1.3c-0.1,0-0.1,0-0.2,0.1c-0.5,0.3-1.1,0.7-1.6,0.8
			c-0.6,0.1-0.9-0.7-1.4-0.9c-1.4-0.7-3.6-0.5-4.8,0.6c-1.2,1-1.8,2.9-1.3,4.4c0.2,0.8,0.7,1.4,1.5,1.7c1.5,0.7,3.8,0.4,5-0.8
			c0.3-0.3,0.5-0.3,0.8,0c0.6,0.4,1.2,0.9,1.9,1.2c0.3,0.1,0.2,0.3,0,0.4C190.9,134.2,189,134.9,186.4,134.9z"/>
		<path class="st5" d="M101.7,134.7c-1.3,0-2.6,0-3.9,0c-0.3,0-0.4-0.1-0.4-0.4c0.6-4.1,1.1-8.2,1.7-12.3c0.2-1.4,0.5-2.7,0.7-4.1
			c0-0.3,0.1-0.4,0.4-0.4c0.9,0,1.7,0,2.6,0c0.3,0,0.4,0,0.3,0.4c-0.6,4.1-1.1,8.2-1.7,12.3c-0.1,0.5-0.4,1.2-0.1,1.6
			c0.2,0.4,1,0.1,1.5,0.1c1.1,0,2.3,0,3.4,0c0.3,0,0.4,0.1,0.4,0.4c-0.1,0.6-0.2,1.3-0.3,1.9c0,0.4-0.2,0.5-0.6,0.5
			C104.4,134.7,103,134.7,101.7,134.7z"/>
		<path class="st5" d="M124,120.2c-0.2-0.1-0.3-0.2-0.4-0.2c-1.1-0.6-1.7-0.3-2,0.9c-0.3,1.2-0.3,1.2,0.9,1.2c0.9,0,0.9,0,0.8,0.9
			c0,0.2,0,0.4-0.1,0.6c-0.2,1.2-0.2,1.2-1.4,1.2c-0.6,0-0.8,0.1-0.9,0.8c-0.4,2.9-0.8,5.8-1.2,8.7c-0.1,0.4-0.2,0.5-0.6,0.5
			c-0.8,0-1.6,0-2.3,0c-0.3,0-0.5,0-0.4-0.4c0.4-3,0.8-5.9,1.3-8.9c0.1-0.5,0-0.8-0.6-0.7c-0.5,0.1-0.7-0.1-0.6-0.6
			c0.1-0.5,0.1-1.1,0.2-1.6c0-0.4,0.1-0.5,0.6-0.5c1,0,1,0,1.2-1c0.1-0.8,0.3-1.6,0.6-2.3c0.8-1.9,3.7-2.6,5.3-1.2
			c0.1,0.1,0.2,0.2,0.2,0.3C124.3,118.6,124.2,119.4,124,120.2z"/>
		<path class="st5" d="M198.1,134.7c-0.4-0.1-1.1,0.3-1.4-0.2c-0.2-0.3,0.1-1,0.2-1.5c0.9-5.1,1.5-10.3,2.2-15.5
			c0.1-0.4,0.2-0.5,0.5-0.5c0.8,0,1.5,0,2.3,0c0.5,0,0.5,0.1,0.5,0.5c-0.2,1.8-0.6,3.5-0.8,5.3c-0.5,3.7-1,7.4-1.5,11.1
			c-0.1,0.6-0.3,0.8-0.8,0.7C198.8,134.7,198.5,134.7,198.1,134.7z"/>
		<path class="st5" d="M91.3,123.4c0.3-0.3,0.5-0.6,0.8-0.8c0.7-0.7,1.6-0.9,2.6-0.8c0.3,0.1,0.6,0.1,0.3,0.5
			c-0.4,0.7-0.7,1.4-1,2.2c-0.1,0.1-0.1,0.2-0.3,0.2c-1.1-0.2-1.7,0.5-2.1,1.3c-0.4,0.8-0.6,1.7-0.7,2.5c-0.2,1.6-0.5,3.3-0.7,4.9
			c0,0.4-0.3,0.7-0.3,1.1c0,0.2-0.2,0.1-0.4,0.2c-0.8,0-1.6,0-2.5,0c-0.3,0-0.3-0.1-0.3-0.4c0.5-4,1.1-8,1.6-12
			c0-0.2,0.1-0.4,0.3-0.4c0.8,0,1.6,0,2.3,0c0.3,0,0.3,0.1,0.3,0.4C91.4,122.7,91.3,123,91.3,123.4z"/>
		<path class="st5" d="M174.1,123.2c0.2-0.2,0.6-0.4,0.9-0.7c0.7-0.6,1.5-0.9,2.4-0.7c0.4,0.1,0.6,0.2,0.3,0.6
			c-0.2,0.4-0.4,0.9-0.5,1.3c-0.2,0.5-0.3,1-1.2,1c-1,0-1.4,0.9-1.8,1.8c-0.6,1.5-0.8,3.2-1,4.8c-0.1,1-0.3,2-0.4,3
			c0,0.3-0.1,0.4-0.4,0.4c-0.9,0-1.8,0-2.8,0c0.2-1.7,0.4-3.3,0.6-4.9c0.3-2.5,0.7-4.9,1-7.4c0-0.3,0.1-0.5,0.5-0.5c0.7,0,1.3,0,2,0
			c0.4,0,0.5,0.1,0.5,0.5C174.1,122.8,174.1,123.1,174.1,123.2z"/>
		<path class="st5" d="M164.2,134.7C164.2,134.7,164.1,134.7,164.2,134.7c-1.7,0-1.6,0-1.4-1.6c0.5-3.4,0.9-6.9,1.4-10.3
			c0.1-0.5,0.2-0.9,0.9-0.8c0.7,0.1,1.3,0,2,0c0.4,0,0.5,0.1,0.5,0.5c-0.3,2.4-0.6,4.7-1,7.1c-0.2,1.5-0.4,3-0.6,4.5
			c-0.1,0.5-0.2,0.7-0.7,0.7C164.9,134.6,164.5,134.7,164.2,134.7z"/>
		<path class="st5" d="M110.4,134.7c-0.3,0-0.6,0-0.9,0c-0.6,0.1-0.7-0.1-0.6-0.7c0.5-3.7,1-7.5,1.5-11.2c0.1-0.6,0.2-1,1-0.9
			c0.6,0.1,1.2,0.1,1.8,0c0.5,0,0.6,0.1,0.6,0.6c-0.2,1.7-0.6,3.3-0.8,5c-0.2,2.1-0.6,4.2-0.8,6.3c-0.1,0.6-0.2,0.9-0.9,0.8
			C111,134.6,110.7,134.7,110.4,134.7z"/>
		<path class="st5" d="M112.6,116.8c1.2,0,2,0.8,2,1.9c0,1.1-0.9,2-2.1,1.9c-1.1,0-2-0.9-1.9-2C110.6,117.7,111.5,116.8,112.6,116.8
			z"/>
		<path class="st5" d="M168.3,118.7c0,1.1-0.8,1.9-1.9,2c-1.1,0-2.1-0.9-2.1-1.9c0-1,1-1.9,2-1.9
			C167.4,116.8,168.3,117.6,168.3,118.7z"/>
		<path d="M208.3,126.9c0.9-2.2,3.5-2.8,5.1-1.9c0.7,0.3,1.1,0.9,1.4,1.5c0.1,0.3,0.1,0.4-0.3,0.4
			C212.5,126.9,210.4,126.9,208.3,126.9z"/>
		<path d="M129,126.9c0.8-1.6,2.2-2.4,3.8-2.3c1.4,0.1,2.4,0.9,2.8,2.3C133.4,126.9,131.2,126.9,129,126.9z"/>
		<path d="M57.4,128.8c0.2-2.4,2-4.8,5.1-4.1c1.1,0.2,2.1,1.3,2.2,2.6c0.1,0.9-0.1,1.7-0.4,2.6c-0.9,2.1-3.1,2.5-4.7,2.1
			C58.5,131.7,57.2,130.2,57.4,128.8z"/>
	</g>
</g>
</svg>
