<?xml version="1.0" encoding="utf-8"?>
<!-- Generator: Adobe Illustrator 22.0.1, SVG Export Plug-In . SVG Version: 6.00 Build 0)  -->
<svg version="1.1" baseProfile="tiny" id="Laag_1" xmlns="http://www.w3.org/2000/svg" xmlns:xlink="http://www.w3.org/1999/xlink"
	 x="0px" y="0px" viewBox="0 0 256 256" xml:space="preserve">
<g>
	<path fill="#C8C8C7" d="M257,121c-3,3.2-6.4,3.2-10.4,1.8c-7.9-2.8-15.9-2.4-24,0c-2.4,0.7-2.3,1.2-1.3,3.3
		c8.5,17.2,5.9,32.5-7.7,45.9c-27.6,27-58.7,48.8-94.8,63.1c-5.4,2.1-11,3.9-16.9,3.9c-6.5,0-9.7-3.3-9.9-9.7
		c-0.1-3.7,0.4-7.3,1.5-10.8c0.9-2.9-0.2-3.5-2.8-3.5c-9.6,0.2-19-1.2-28.8-0.2c-18,1.7-31-8.4-41.6-21.5
		C9.8,180.3,4,165.2,1.9,148.7c-0.1-0.6-0.6-1.1-0.9-1.7c0-7.3,0-14.7,0-22c1.6-5.7,3-11.5,5-17c6.5-18.7,22.1-30.3,39.8-29.9
		c6,0.1,11.8,1.8,17.2,4.6c3.1,1.6,5.2,1.7,5-2.6c-0.1-2.7,2.7-5.3,1.2-7.5c-1.4-2.1-4.9-1.4-7.4-2.2c-19.5-6.2-29.4-23.4-26.5-44
		c0.5-3.5,2.7-5.8,6.6-6.5c21-4,40.4,8.5,44.9,29.5c0.8,3.5,1.6,3.6,4.4,2.2c1.6-0.8,3.5-1.2,5.2-1.5c3.4-0.6,6.5,0,7.5,3.9
		c1,3.7-1.4,5.8-4.5,6.6c-5.6,1.5-10.3,4.4-14.3,8.6c-2.9,3.1-4.6,6.9-5.8,10.9c-0.4,1.3-0.9,3.3,0.4,4.2c1.2,0.8,2.4-0.5,3.6-1.2
		c14-7.5,28-7.4,40.9,1.8c10.9,7.8,17.1,19.3,19.9,32.5c0.8,3.9,1.4,7.8,2.1,11.8c2.2-0.3,2.8-2.2,4-3.4c6.9-7.4,13.2-15.6,23.3-19
		c9.8-3.3,19.6-2.9,29.1,1.5c4.6,2.1,5.5,1.7,6.3-3.5c1.2-7.3,1.1-14.5-1.2-21.6c-0.7-2.1-1-4.3-0.3-6.4c0.7-2.1,2.5-2.9,4.8-2.9
		c3.2,0,4.9,1.9,5.8,4.5c2.8,7.4,3.4,15.2,3,23.1c0,0.8,0.1,1.7,0.1,2.5c-0.1,0-0.3,0.1-0.4,0.1c-0.1,0,0,0.2-0.1,0.3
		c0.1-0.1,0.3-0.3,0.4-0.4c6.1-3.9,12.2-7.8,18.4-11.6c1.8-1.1,3.5-2.6,5.9-1.7c4.9,1.7,6,6.2,1.9,9.5c-4,3.2-8.4,5.8-13.3,9.2
		c8.5,1.3,16.8,0.5,23.1,6.6C257,117.7,257,119.3,257,121z M12,134.8c-0.5,3.6,0.5,7,0.9,10.4c2.4,19.1,9.2,36,23.9,49
		c7,6.2,15.3,10.8,24.9,9.4c8-1.1,15.6-0.9,23.6-0.1c9.1,0.9,14.4-0.2,18.2-9.1c7.2-16.9,17.8-31.9,28.6-46.7
		c1.2-1.7,1.9-3.3,2.2-5.3c1.9-11.9-0.4-23.2-5.3-33.9c-4.6-10.1-11.8-17.6-23.7-19c-6-0.7-11.5,0.8-16.7,3.6
		c-5.3,2.9-10.6,5.4-17,4.9c-5.4-0.5-9.7-3.3-14.3-5.5c-12.6-6.1-25.6-3.2-34.2,7.8C15,110.4,12.7,122.4,12,134.8z M113.4,199.1
		c-4.1,7.8-7.6,15.5-9.6,23.8c-1.2,5.3-1.1,5.5,4.2,4c12.4-3.6,23.8-9.3,35-15.6c5.9-3.3,5.8-3.5,1.4-8.4c-0.7-0.7-1.2-1.6-1.8-2.4
		c-1.8-2.5-1.9-5,0.5-7.1c2.5-2.2,5.2-2,7.7,0.1c2,1.7,3.9,3.7,5.7,5.6c1.7,1.9,3.2,2.3,5.5,0.5c4-3.2,8.4-6,12.6-9
		c7-5.1,7-5.1,0.9-11.5c-0.3-0.4-0.7-0.7-1-1.1c-2.3-2.6-2.2-5.3,0.2-7.6c2.3-2.2,5.1-2.2,7.6,0.2c1.9,1.9,3.9,3.7,5.6,5.7
		c1.6,1.8,2.8,1.6,4.5,0c4.7-4.5,9.5-8.8,14.2-13.3c8.6-8.1,10.4-17.8,6.3-28.7c-6.1-16.4-26.3-23.5-40.8-14.4
		c-6.8,4.3-7,5.6-1.6,11.2c0.8,0.8,1.7,1.6,2.3,2.6c1.7,2.8,2.4,5.8-0.5,8.1c-2.7,2.2-5.5,1.4-8-1c-7.2-6.7-7.3-6.6-13.6,1.5
		c-0.8,1-1.8,2-2.6,3c-2.3,3-5.8,5.8-6.6,9.2c-1,4.3,4.5,5.9,6.7,9c0.1,0.1,0.2,0.2,0.3,0.4c2,2.4,2,4.8-0.1,7.1
		c-2.3,2.5-4.9,2.6-7.5,0.3c-1.6-1.4-3.1-3-4.6-4.6c-1.7-1.9-3-2.3-4.5,0.3c-2.1,3.6-4.5,7-6.7,10.5c-2,3.2-5.2,6.5-5.5,9.9
		c-0.3,3.8,4.7,5.5,7,8.5c0.1,0.1,0.2,0.2,0.3,0.4c2.1,2.6,3.1,5.4,0.4,8c-2.6,2.5-5.6,1.9-8.2-0.1
		C117.2,202.9,115.5,201,113.4,199.1z M73.4,51.3c2.1-3.5,0.7-5.3-0.3-7.1c-4.3-8.1-11.5-12.1-20.1-13.9c-6.1-1.3-7.3-0.1-6.9,6.2
		c0.1,2,0.5,3.9,1.1,5.8c2.4,8.9,11.6,17,19.9,16.4c-1.8-2.2-4.2-3.7-6.1-5.7c-2.2-2.3-3-5.3-0.4-8c2.8-2.8,5.8-2,8.3,0.4
		C70.6,47.2,71.9,49.4,73.4,51.3z"/>
	<path fill="#FFFFFF" d="M221,104c-0.1,0.1-0.3,0.3-0.4,0.4c0-0.1,0-0.2,0.1-0.3C220.7,104.1,220.9,104,221,104
		C221,104,221,104,221,104z"/>
	<path fill="#C8C8C7" d="M20.2,128.6c2-10.1,3.9-21.5,14.5-28.6c1.5-1,3.3-1.6,4.9-2.2c3.3-1.2,5.5,0.3,6.8,3.2
		c1.3,2.9,0.3,5.7-2.3,6.8c-9.1,3.8-10.6,12-12.2,20.2c-0.5,2.2-0.4,4.8-2.1,6.5c-1.6,1.6-3.8,2.3-6,1.3
		C21.4,134.6,19.8,132.7,20.2,128.6z"/>
	<path fill="#C8C8C7" d="M21.1,149.3c-0.3-4.2,1.5-5.7,3.9-6.8c2.4-1,4.3-0.1,5.6,1.8c2,2.8,2.8,6.1,2.1,9.4c-0.5,2.3-2.3,4-4.9,4.2
		c-2.5,0.3-4.3-1.2-5.2-3.1C21.7,152.8,21.4,150.4,21.1,149.3z"/>
</g>
</svg>
