<?xml version="1.0" encoding="utf-8"?>
<!-- Generator: Adobe Illustrator 22.0.1, SVG Export Plug-In . SVG Version: 6.00 Build 0)  -->
<svg version="1.1" id="Laag_1" xmlns="http://www.w3.org/2000/svg" xmlns:xlink="http://www.w3.org/1999/xlink" x="0px" y="0px"
	 viewBox="0 0 256 256" style="enable-background:new 0 0 256 256;" xml:space="preserve">
<style type="text/css">
	.st0{fill:#020304;}
	.st1{fill:#63AAE5;}
	.st2{fill:#5DA1D8;}
</style>
<g>
	<path class="st0" d="M257,257c-85.3,0-170.7,0-256,0C1,173,1,89,0.9,5c0-3.4,0.7-4.1,4.1-4.1C89,1,173,1,257,1c0,2-0.1,4-0.1,6
		c0,79.5,0,159,0,238.5C256.9,249.4,257,253.2,257,257z M254,129C254.3,60.6,198.2,4.2,129.6,4C60.6,3.8,4.3,59.5,4,128.3
		C3.7,197.1,59.3,253.7,127.6,254C197.7,254.3,253.7,198.9,254,129z"/>
	<path class="st1" d="M257,257c0-3.8-0.1-7.6-0.1-11.5c0-79.5,0-159,0-238.5c0-2,0.1-4,0.1-6c2-0.2,0.9,1.4,0.9,2
		c0.1,84,0.1,168,0,252C257.9,255.6,259,257.2,257,257z"/>
	<path class="st1" d="M254,129c-0.3,69.9-56.3,125.3-126.4,125C59.3,253.7,3.7,197.1,4,128.3C4.3,59.5,60.6,3.8,129.6,4
		C198.2,4.2,254.3,60.6,254,129z M129,241.1c61.9,0,112.1-50.2,112.1-112.2C241,67.2,191,17,129.3,16.9c-62-0.1-112.3,50-112.3,112
		C16.9,190.8,67.1,241.1,129,241.1z"/>
	<path class="st0" d="M129,241.1c-61.9,0-112.1-50.2-112.1-112.2C17,67,67.3,16.8,129.3,16.9C191,17,241,67.2,241.1,128.9
		C241.1,190.8,190.9,241.1,129,241.1z M156.7,90.9c-0.7,24.5-6.4,47.8-18.5,69.3c-5.3,9.4-11.6,18-20.6,24.2
		c-12.1,8.3-23.6,5.4-30.4-7.6c-2.8-5.4-4.5-11.1-5.4-17.1c-2.1-13.5-1.4-26.9,0.9-40.3c0.4-2.3,0.7-4.8-2.1-5.3
		c-2.9-0.5-3.4,2.1-3.7,4.3c-0.7,5.1-1.6,10.2-2,15.4c-0.9,15.8-0.3,31.4,7.1,45.9c3.3,6.4,7.7,12.1,14.8,14.1
		c5.2,1.5,6.4,3.3,4.5,8.5c-2.1,5.9,1.1,11.1,6.6,12.4c4.9,1.2,9.4-2,11-7.8c0.5-1.9,1.3-4.1-1.3-5.1c-2.7-1-3.5,1-4.2,3
		c-0.8,2.3-1.7,4.9-4.8,3.6c-3.4-1.5-1.7-4.4-1.1-7c0.6-2.5,1.1-4.4,4.6-3.2c3.3,1.1,6.7,1.9,10.2,2.3c2.6,0.3,3.4,1.3,3.3,3.8
		c-0.1,3.5-0.1,7,0.1,10.5c0.3,4.4,3.1,7.4,6.8,9.1c3.2,1.4,6-0.8,8.3-3c2.7-2.7,4.5-19,2.4-22.1c-0.4-0.5-0.9-1.1-1.5-1.2
		c-2.9-0.8-2.2-1.8-0.3-3.1c3.9-2.6,7.4-5.8,10.3-9.4c2.6-3.3,3.5-2,4.9,0.9c3.6,7.7,7.3,15.4,11.2,22.9c2.9,5.7,7.5,7.4,12.3,5
		c4.9-2.4,6.6-7.7,4-13.2c-4.4-9.4-8.9-18.6-13.4-27.9c-0.9-1.9-1.7-4.6-4.6-3.3c-3.1,1.4-1.7,3.8-0.6,5.9
		c4.3,8.9,8.5,17.7,12.8,26.6c1.1,2.3,2.5,4.9-0.8,6.4c-2.9,1.3-4.1-1.3-5.1-3.4c-4.2-8.5-8.2-17.1-12.5-25.6c-1-2-1-3.6,0.3-5.5
		c8-12.2,13.3-25.7,17-39.8c5.4-20.4,7.6-40.9,2.6-61.7c-3.7-15.4-11.8-26.7-28.6-29.5c-2.6-0.4-5.2-1.2-7.7-2.1
		c-11.6-4.2-21.6-1.2-30.6,6.3C97.2,60,89,77.8,82.5,96.5c-0.7,1.9-0.2,3.4,1.6,4.2c2.3,1,3.3-0.8,4-2.5c2.3-5.5,4.2-11.2,6.8-16.7
		c5.6-12,12.5-23.2,23.5-31.2c13.8-10,26.2-6.4,32.9,9.3C155.5,69.6,156.4,80.2,156.7,90.9z M148.9,101.9
		c0.2-10.9-1.9-21.5-5.2-27.5c-6.2-11.3-16.7-14-27.3-6.6c-11.6,8.1-17.2,20.5-22.2,33.1c-0.7,1.7,0,3,1.5,3.8
		c1.6,0.9,2.9,0,3.7-1.4c0.8-1.5,1.3-3,2-4.6c2.9-7.1,6.4-14,11.6-19.7c4.7-5.3,9.8-11.1,17.7-8.7c8.1,2.5,10,10.2,11.1,17.6
		c3.1,21.1-1.7,40.7-12.1,59c-3.1,5.6-7,10.6-12.5,14.1c-8.1,5.2-15.2,3.2-19.2-5.5c-2-4.4-3.1-9.1-3.5-14c-0.5-6-0.3-12,0.4-18
		c0.2-2.2,0.7-4.8-2.2-5.3c-3.4-0.5-3.4,2.5-3.7,4.8c-0.3,2.1-0.5,4.3-0.6,6.5c-0.4,11.3,0.1,22.4,6.5,32.2
		c5.5,8.5,14.2,10.6,23.1,5.8c5.7-3,10.1-7.6,13.7-12.9C143,138.2,148.1,119.8,148.9,101.9z M32.3,85.1c0.9,3.6-0.9,7.5-4,11.1
		c-0.9,1-1.6,2.1-2.3,3.2c-1.2,1.8-1.8,3.8,0.3,5.3c2.1,1.4,3.4-0.3,4.5-1.8c1.6-2.1,3.1-4.4,4.7-6.5c1.1-1.5,2.7-1.3,4-0.3
		c1.7,1.2,0.3,2.3-0.4,3.3c-0.8,1.2-1.8,2.4-2.6,3.6c-1.3,1.8-2,3.7,0.3,5.2c2.1,1.4,3.4-0.3,4.5-1.7c1.6-2.1,3.1-4.3,4.7-6.5
		c1.2-1.6,2.6-1.2,4-0.4c1.9,1.1,0.5,2.2-0.2,3.2c-1.1,1.6-2.4,3.2-3.4,4.9c-0.8,1.4-0.7,3,0.8,4c1.5,1,2.9,0.5,3.9-0.8
		c1.3-1.7,2.8-3.4,3.8-5.3c1.7-3.2,3.7-3.3,6.9-2.2c12.8,4.6,25.8,8.9,38.7,13.3c5.4,1.8,10.7,3.6,16.1,5.4c2,0.7,3.7,0.3,4.5-1.8
		c0.7-2-0.7-3.1-2.3-3.8c-1.1-0.5-2.2-0.8-3.3-1.2c-17.3-5.9-34.6-11.9-52-17.6c-3-1-4.4-2.4-4.1-5.7c0.2-2.5,0-5-0.2-7.5
		c-0.1-1.4-1.1-2.5-2.6-2.6c-1.5-0.1-2.5,1-2.9,2.3c-0.3,1.1-0.1,2.3-0.4,3.4c-0.5,1.9,1.9,5.4-1.5,5.6c-3.7,0.3-2.6-3.4-2.8-5.7
		c0-0.5,0-1,0-1.5c-0.4-2.9,1.4-7.6-3.2-7.5c-4.2,0.1-2.2,4.7-2.7,7.4c-0.3,1.4,1.3,3.8-1.5,3.9c-2.4,0.1-3.4-1.5-3.2-4
		c0.2-2.7,0.1-5.3,0-8c-0.1-1.6-1-2.9-2.8-3c-1.8-0.1-2.8,1.1-2.9,2.8C32.2,79.8,32.3,81.8,32.3,85.1z M135.1,110.8
		c0.1-8.2-1.1-13.2-3.2-16.6c-3.6-5.7-8.8-7-14.5-3.4c-5,3.1-8,7.9-10.4,13.1c-0.9,2-1.4,4,1.1,5.1c2.3,1,3.3-0.8,4.1-2.5
		c1.6-3.3,3.4-6.5,6.2-9c4.5-3.9,7.8-3.1,9.8,2.4c3.6,9.9-1.5,29.6-9.4,36.7c-4.4,3.9-8,2.9-9.6-2.7c-0.7-2.5-0.9-5.2-1.2-7.9
		c-0.2-1.8-1-3.4-2.9-3.4c-2-0.1-2.9,1.3-2.9,3.3c-0.2,5.1,0.6,10,3.5,14.3c3.3,5,8.7,6.2,13.9,3.2c3.1-1.8,5.5-4.3,7.4-7.3
		C132.3,127.6,134.8,118.4,135.1,110.8z"/>
	<path class="st2" d="M156.7,90.9c-0.3-10.7-1.2-21.3-5.5-31.3c-6.7-15.7-19.1-19.3-32.9-9.3c-11,7.9-17.9,19.2-23.5,31.2
		c-2.5,5.4-4.5,11.1-6.8,16.7c-0.7,1.7-1.7,3.5-4,2.5c-1.7-0.7-2.2-2.3-1.6-4.2C89,77.8,97.2,60,112.9,46.9
		c9-7.5,19.1-10.6,30.6-6.3c2.5,0.9,5.1,1.7,7.7,2.1c16.8,2.8,24.9,14.1,28.6,29.5c5,20.8,2.8,41.4-2.6,61.7
		c-3.7,14.1-9,27.6-17,39.8c-1.3,1.9-1.3,3.5-0.3,5.5c4.2,8.5,8.3,17.1,12.5,25.6c1,2.1,2.2,4.7,5.1,3.4c3.3-1.4,1.9-4,0.8-6.4
		c-4.3-8.9-8.5-17.7-12.8-26.6c-1-2.2-2.4-4.6,0.6-5.9c2.9-1.3,3.7,1.5,4.6,3.3c4.5,9.3,9.1,18.6,13.4,27.9c2.6,5.5,0.8,10.8-4,13.2
		c-4.8,2.4-9.4,0.7-12.3-5c-3.9-7.5-7.6-15.2-11.2-22.9c-1.4-2.9-2.3-4.2-4.9-0.9c-2.9,3.7-6.3,6.8-10.3,9.4
		c-1.9,1.3-2.6,2.3,0.3,3.1c0.6,0.2,1.2,0.7,1.5,1.2c2.1,3.1,0.3,19.4-2.4,22.1c-2.3,2.3-5.1,4.4-8.3,3c-3.7-1.7-6.5-4.7-6.8-9.1
		c-0.2-3.5-0.2-7-0.1-10.5c0.1-2.5-0.7-3.5-3.3-3.8c-3.4-0.4-6.9-1.2-10.2-2.3c-3.4-1.2-4,0.7-4.6,3.2c-0.6,2.6-2.3,5.4,1.1,7
		c3,1.3,4-1.3,4.8-3.6c0.7-2,1.5-4,4.2-3c2.6,1,1.9,3.1,1.3,5.1c-1.6,5.7-6.1,8.9-11,7.8c-5.5-1.3-8.8-6.5-6.6-12.4
		c1.9-5.2,0.7-7.1-4.5-8.5c-7.1-2-11.5-7.6-14.8-14.1c-7.4-14.5-8-30.1-7.1-45.9c0.3-5.1,1.2-10.2,2-15.4c0.3-2.2,0.8-4.8,3.7-4.3
		c2.8,0.5,2.5,3,2.1,5.3c-2.4,13.4-3,26.8-0.9,40.3c0.9,6,2.6,11.7,5.4,17.1c6.8,13,18.2,16,30.4,7.6c9-6.2,15.3-14.8,20.6-24.2
		C150.3,138.7,156,115.5,156.7,90.9z M116.5,192.6c5.5,2.6,10.5,2.5,15.6,0.4c6.9-3,12.4-7.8,16.9-13.7
		c20.7-27.2,28.8-58.2,27.2-91.9c-0.4-9.4-2.4-18.5-7.2-26.8c-3.4-5.8-8.3-9.7-15.7-10.6c12.9,25.4,10.8,51.3,4.2,77
		C150.9,152.9,140.1,176.6,116.5,192.6z M138.4,197.4c-4.3,0.8-7.5,1.9-6.8,7.2c0.4,2.6,0,5.3,0.1,7.9c0,2.3,0.6,4.6,3.4,4.5
		c2.5-0.1,2.7-2.4,2.7-4.5C137.9,207.6,137.4,202.7,138.4,197.4z"/>
	<path class="st2" d="M148.9,101.9c-0.8,17.9-5.9,36.3-17.1,52.8c-3.6,5.3-8,9.9-13.7,12.9c-8.9,4.7-17.6,2.6-23.1-5.8
		c-6.4-9.8-6.9-21-6.5-32.2c0.1-2.2,0.2-4.3,0.6-6.5c0.4-2.2,0.3-5.3,3.7-4.8c2.9,0.4,2.5,3.1,2.2,5.3c-0.7,6-0.9,12-0.4,18
		c0.4,4.9,1.5,9.6,3.5,14c4,8.8,11.1,10.8,19.2,5.5c5.4-3.5,9.4-8.5,12.5-14.1c10.3-18.4,15.2-38,12.1-59c-1.1-7.3-3-15.1-11.1-17.6
		c-7.9-2.4-13,3.4-17.7,8.7c-5.2,5.8-8.6,12.6-11.6,19.7c-0.6,1.5-1.2,3.1-2,4.6c-0.8,1.5-2.1,2.3-3.7,1.4c-1.5-0.8-2.1-2.1-1.5-3.8
		c5-12.6,10.6-25,22.2-33.1c10.5-7.4,21.1-4.7,27.3,6.6C147,80.4,149.1,91,148.9,101.9z"/>
	<path class="st2" d="M32.3,85.1c0-3.3-0.1-5.3,0-7.2c0.1-1.6,1.2-2.8,2.9-2.8c1.8,0.1,2.7,1.3,2.8,3c0.1,2.7,0.2,5.3,0,8
		c-0.2,2.5,0.9,4.1,3.2,4c2.8-0.1,1.2-2.5,1.5-3.9c0.5-2.7-1.4-7.3,2.7-7.4c4.7-0.1,2.8,4.6,3.2,7.5c0.1,0.5,0,1,0,1.5
		c0.2,2.3-0.9,6,2.8,5.7c3.4-0.2,1-3.7,1.5-5.6c0.3-1.1,0-2.4,0.4-3.4c0.4-1.3,1.4-2.4,2.9-2.3c1.5,0.1,2.5,1.1,2.6,2.6
		c0.2,2.5,0.4,5,0.2,7.5c-0.3,3.3,1.1,4.7,4.1,5.7c17.4,5.8,34.7,11.7,52,17.6c1.1,0.4,2.2,0.7,3.3,1.2c1.6,0.7,3,1.7,2.3,3.8
		c-0.7,2.2-2.5,2.5-4.5,1.8c-5.4-1.8-10.7-3.6-16.1-5.4c-12.9-4.4-25.8-8.7-38.7-13.3c-3.2-1.2-5.3-1-6.9,2.2
		c-1,1.9-2.4,3.6-3.8,5.3c-1,1.3-2.4,1.8-3.9,0.8c-1.5-1-1.6-2.5-0.8-4c1-1.7,2.2-3.3,3.4-4.9c0.7-1,2.1-2.1,0.2-3.2
		c-1.3-0.8-2.8-1.2-4,0.4c-1.5,2.2-3.1,4.4-4.7,6.5c-1.1,1.5-2.4,3.1-4.5,1.7c-2.3-1.5-1.5-3.4-0.3-5.2c0.9-1.2,1.8-2.4,2.6-3.6
		c0.7-1,2.1-2.1,0.4-3.3c-1.3-0.9-2.9-1.2-4,0.3c-1.6,2.1-3.1,4.3-4.7,6.5c-1.1,1.5-2.4,3.2-4.5,1.8c-2.1-1.5-1.4-3.5-0.3-5.3
		c0.7-1.1,1.5-2.2,2.3-3.2C31.4,92.6,33.2,88.7,32.3,85.1z"/>
	<path class="st2" d="M135.1,110.8c-0.3,7.6-2.9,16.8-8.2,25.2c-1.9,3-4.3,5.5-7.4,7.3c-5.3,3-10.6,1.9-13.9-3.2
		c-2.8-4.3-3.6-9.2-3.5-14.3c0.1-1.9,0.9-3.3,2.9-3.3c2,0.1,2.7,1.6,2.9,3.4c0.3,2.6,0.4,5.3,1.2,7.9c1.7,5.7,5.3,6.6,9.6,2.7
		c8-7.1,13-26.8,9.4-36.7c-2-5.5-5.3-6.3-9.8-2.4c-2.8,2.5-4.6,5.6-6.2,9c-0.8,1.7-1.9,3.5-4.1,2.5c-2.4-1.1-2-3.1-1.1-5.1
		c2.4-5.2,5.4-10,10.4-13.1c5.7-3.5,11-2.2,14.5,3.4C134.1,97.6,135.2,102.6,135.1,110.8z"/>
	<path class="st0" d="M116.5,192.6c23.6-15.9,34.5-39.6,41.1-65.6c6.6-25.7,8.6-51.6-4.2-77c7.4,0.9,12.2,4.7,15.7,10.6
		c4.9,8.2,6.8,17.4,7.2,26.8c1.5,33.7-6.5,64.7-27.2,91.9c-4.5,5.9-10,10.7-16.9,13.7C127,195.1,121.9,195.2,116.5,192.6z"/>
	<path class="st0" d="M138.4,197.4c-1,5.2-0.5,10.1-0.6,15c0,2.1-0.3,4.4-2.7,4.5c-2.8,0.2-3.4-2.1-3.4-4.5c0-2.6,0.3-5.3-0.1-7.9
		C130.9,199.4,134.1,198.2,138.4,197.4z"/>
</g>
</svg>
