<?xml version="1.0" encoding="utf-8"?>
<!-- Generator: Adobe Illustrator 22.0.1, SVG Export Plug-In . SVG Version: 6.00 Build 0)  -->
<svg version="1.1" baseProfile="tiny" id="Laag_1" xmlns="http://www.w3.org/2000/svg" xmlns:xlink="http://www.w3.org/1999/xlink"
	 x="0px" y="0px" viewBox="0 0 256 256" xml:space="preserve">
<g>
	<path fill="#CAC9C9" d="M181,1c5.9,4.3,9.5,9.4,5.5,16.9c-0.5,0.9-0.8,1.9,0.3,2.7c0.9,0.6,1.9,0.4,2.9,0.1
		C202,16.6,207.4,20,209,32.8c0.2,1.2,0.3,2.5,1.5,2.9c1.9,0.6,2.6-1.2,3.6-2.2c4.3-4.1,8.2-5.1,13-2.8c4.7,2.2,6.2,6.2,5.9,11.1
		c-0.3,5.3-10.9,19.1-16,20.6c-3.9,1.2-7.2-0.5-10-3c-3.7-3.3-3.5-7.6-2.5-12c0.3-1.3,2.4-2.9,0.7-3.9c-2.1-1.3-2.7,1.3-3.5,2.5
		c-14,20-27.8,40.2-41.8,60.2c-1.7,2.4-2,4.8-2,7.5c0,45.3,0,90.7,0.1,136c0,2.7-0.2,5.3-2,7.5c-18,0-36,0-54,0
		c-1.6-2.6-2-5.5-2-8.6c0.1-44.9,0-89.9,0.1-134.8c0-2.9-0.4-5.4-2.2-7.9c-14-20-27.9-40.1-41.8-60.1c-0.8-1.1-1.3-3.3-3.2-2.3
		c-1.8,0.9,0,2.3,0.3,3.4c2.2,6.2,0.6,11.4-4.4,14.3c-4.9,2.9-10.5,1.8-14.5-3.4c-2.9-3.8-5.6-7.9-7.9-12.1
		c-3-5.3-1.4-10.5,3.9-14.3c3.9-2.8,9.1-2.1,13.1,1.6c1.2,1.2,2,3.6,4.2,2.8s1.3-3.1,1.4-4.9c0.4-8.2,10.3-15.4,18.5-10.5
		c1.2,0.7,2.4,1.3,3.7,0.4c1-0.7,0.8-1.8,0.3-2.7C67.5,10.4,71.2,5.3,77,1c2.3,0,4.7,0,7,0c7.1,4,10.1,11.2,14.1,17.6
		c2.7,4.4,0.8,9.9-3.6,13.2c-4.1,3.1-9.2,2.8-13.2-0.9c-0.9-0.8-1.6-1.7-2.4-2.5c-0.7-0.7-1.4-1.7-2.5-0.8c-1,0.8-0.3,1.8,0.1,2.7
		c0.3,0.6,0.7,1.2,1,1.7C87.8,46.8,98,61.6,108.2,76.4c1.2,1.8,2.6,2.8,4.9,2.7c10.7-0.1,21.3-0.1,32,0c2.1,0,3.4-0.9,4.5-2.5
		c10.5-15.2,21-30.3,31.4-45.6c0.6-0.9,2.5-1.9,0.9-3.3c-1.8-1.5-2.5,0.6-3.5,1.5c-0.6,0.5-1.2,1.2-1.8,1.8
		c-3.9,3.6-8.8,4.1-12.7,1.2c-4.7-3.4-6.8-9.1-3.9-13.6c4-6.4,7-13.7,14.1-17.6C176.3,1,178.7,1,181,1z M108.9,177
		c0,20.8,0,41.7,0,62.5c0,9.5,0,9.2,9.4,9.6c4.7,0.2,5.8-1.4,5.7-5.9c-0.2-22-0.1-44-0.1-66c0-3.3,0.5-6.3,4.6-6.2
		c4,0.1,3.4,3.3,3.4,5.9c0,20.3,0,40.7,0,61c0,11,0,10.7,10.9,11.1c5.3,0.2,6.3-1.6,6.2-6.4c-0.2-43.8-0.1-87.7-0.1-131.5
		c0-2.7,0.1-5.2,1.8-7.6c16.4-22.4,31.8-45.5,47.6-68.3c1.7-2.5,3-5.3,0-7.4c-3.1-2.2-5.1-0.1-6.9,2.5c-12.1,17.7-24.4,35.2-36.5,53
		c-2.2,3.2-4.7,4.7-8.6,4.7c-11.3-0.2-22.7-0.3-34,0c-4.8,0.1-7.6-1.6-10.2-5.5c-11.8-17.5-24-34.8-36-52.1
		c-1.6-2.3-3.6-4.6-6.5-2.7c-3,1.9-2.4,4.7-0.5,7.4c4.2,5.6,8,11.3,11.9,16.9c11.4,16.4,22.6,32.9,34.2,49.1
		c2.7,3.8,3.9,7.4,3.8,11.9C108.8,134.4,108.9,155.7,108.9,177z M90.9,22.2c-2.5-4.2-5.3-8.8-9.2-12.7C81,8.8,79.8,9.1,79,9.8
		s-1.2,1.7-0.7,2.7c2.5,4.5,5.2,8.7,8.5,12.6c0.7,0.9,1.8,0.6,2.7,0.1C90.5,24.6,91,23.9,90.9,22.2z M177.2,9.1
		c-0.4,0.2-1,0.3-1.3,0.6c-3.2,4-6.3,8-8.7,12.5c-0.6,1.1,0,2.2,1.2,2.9c1.2,0.7,2.3,0.7,3.1-0.3c2.8-4.1,5.7-8.1,8.1-12.4
		C180.6,10.7,179.2,9.4,177.2,9.1z M35.5,37.9c-1.8,0.9-3.2,1.9-1.9,3.9c2.4,3.8,5.1,7.4,7.7,11c0.9,1.2,2.2,1.6,3.5,0.7
		c1.3-0.9,1.5-2.3,0.7-3.5c-2.5-3.7-5.2-7.3-7.8-10.9C37.2,38.5,36.3,38.3,35.5,37.9z M224.8,41.2c0.1-1.6-0.5-2.4-1.5-2.9
		s-2-0.2-2.7,0.6c-3.4,3.5-5.6,7.8-8.3,11.8c-0.6,0.9-0.2,2,0.6,2.7s2,0.9,2.7,0.2C219.8,50,222,45.1,224.8,41.2z"/>
	<path fill="#CAC9C9" d="M127.8,72c-14.2,0-26.2-11.9-25.6-26.3c0.7-15.2,10.9-25.1,26.1-25.3c15-0.3,25.8,12,25.7,26.2
		C153.9,61.1,142.6,72.1,127.8,72z M110.9,45.9c0,10.6,6.9,18,17,18.1c9.8,0.1,18.1-7.9,18.1-17.5c0-10-7.6-17.5-17.7-17.6
		C117.8,28.9,110.9,35.6,110.9,45.9z"/>
</g>
</svg>
